%TF.GenerationSoftware,KiCad,Pcbnew,9.0.2*%
%TF.CreationDate,2025-06-30T15:24:12-07:00*%
%TF.ProjectId,hackpad,6861636b-7061-4642-9e6b-696361645f70,rev?*%
%TF.SameCoordinates,Original*%
%TF.FileFunction,Copper,L2,Bot*%
%TF.FilePolarity,Positive*%
%FSLAX46Y46*%
G04 Gerber Fmt 4.6, Leading zero omitted, Abs format (unit mm)*
G04 Created by KiCad (PCBNEW 9.0.2) date 2025-06-30 15:24:12*
%MOMM*%
%LPD*%
G01*
G04 APERTURE LIST*
G04 Aperture macros list*
%AMRoundRect*
0 Rectangle with rounded corners*
0 $1 Rounding radius*
0 $2 $3 $4 $5 $6 $7 $8 $9 X,Y pos of 4 corners*
0 Add a 4 corners polygon primitive as box body*
4,1,4,$2,$3,$4,$5,$6,$7,$8,$9,$2,$3,0*
0 Add four circle primitives for the rounded corners*
1,1,$1+$1,$2,$3*
1,1,$1+$1,$4,$5*
1,1,$1+$1,$6,$7*
1,1,$1+$1,$8,$9*
0 Add four rect primitives between the rounded corners*
20,1,$1+$1,$2,$3,$4,$5,0*
20,1,$1+$1,$4,$5,$6,$7,0*
20,1,$1+$1,$6,$7,$8,$9,0*
20,1,$1+$1,$8,$9,$2,$3,0*%
G04 Aperture macros list end*
%TA.AperFunction,ComponentPad*%
%ADD10C,2.200000*%
%TD*%
%TA.AperFunction,ComponentPad*%
%ADD11R,1.700000X1.700000*%
%TD*%
%TA.AperFunction,ComponentPad*%
%ADD12O,1.700000X1.700000*%
%TD*%
%TA.AperFunction,ComponentPad*%
%ADD13R,2.000000X2.000000*%
%TD*%
%TA.AperFunction,ComponentPad*%
%ADD14C,2.000000*%
%TD*%
%TA.AperFunction,ComponentPad*%
%ADD15R,3.200000X2.000000*%
%TD*%
%TA.AperFunction,ComponentPad*%
%ADD16RoundRect,0.250000X0.550000X-0.550000X0.550000X0.550000X-0.550000X0.550000X-0.550000X-0.550000X0*%
%TD*%
%TA.AperFunction,ComponentPad*%
%ADD17C,1.600000*%
%TD*%
%TA.AperFunction,SMDPad,CuDef*%
%ADD18RoundRect,0.152400X-1.063600X-0.609600X1.063600X-0.609600X1.063600X0.609600X-1.063600X0.609600X0*%
%TD*%
%TA.AperFunction,ComponentPad*%
%ADD19C,1.524000*%
%TD*%
%TA.AperFunction,SMDPad,CuDef*%
%ADD20RoundRect,0.152400X1.063600X0.609600X-1.063600X0.609600X-1.063600X-0.609600X1.063600X-0.609600X0*%
%TD*%
%TA.AperFunction,ViaPad*%
%ADD21C,0.600000*%
%TD*%
%TA.AperFunction,Conductor*%
%ADD22C,0.200000*%
%TD*%
%TA.AperFunction,Conductor*%
%ADD23C,0.750000*%
%TD*%
G04 APERTURE END LIST*
D10*
%TO.P,SW8,1,1*%
%TO.N,Column 0*%
X78740000Y-90170000D03*
%TO.P,SW8,2,2*%
%TO.N,Net-(D8-A)*%
X72390000Y-92710000D03*
%TD*%
%TO.P,SW2,1,1*%
%TO.N,Column 0*%
X78740000Y-109220000D03*
%TO.P,SW2,2,2*%
%TO.N,Net-(D2-A)*%
X72390000Y-111760000D03*
%TD*%
%TO.P,SW4,1,1*%
%TO.N,Column 2*%
X116840000Y-109220000D03*
%TO.P,SW4,2,2*%
%TO.N,Net-(D4-A)*%
X110490000Y-111760000D03*
%TD*%
%TO.P,SW5,1,1*%
%TO.N,Column 0*%
X78740000Y-128270000D03*
%TO.P,SW5,2,2*%
%TO.N,Net-(D5-A)*%
X72390000Y-130810000D03*
%TD*%
%TO.P,SW3,1,1*%
%TO.N,Column 1*%
X97790000Y-109220000D03*
%TO.P,SW3,2,2*%
%TO.N,Net-(D3-A)*%
X91440000Y-111760000D03*
%TD*%
%TO.P,SW6,1,1*%
%TO.N,Column 1*%
X97790000Y-128270000D03*
%TO.P,SW6,2,2*%
%TO.N,Net-(D6-A)*%
X91440000Y-130810000D03*
%TD*%
%TO.P,SW7,1,1*%
%TO.N,Column 2*%
X116840000Y-128270000D03*
%TO.P,SW7,2,2*%
%TO.N,Net-(D7-A)*%
X110490000Y-130810000D03*
%TD*%
D11*
%TO.P,J1,1,Pin_1*%
%TO.N,GND*%
X103340000Y-72505000D03*
D12*
%TO.P,J1,2,Pin_2*%
%TO.N,+5V*%
X103340000Y-75045000D03*
%TO.P,J1,3,Pin_3*%
%TO.N,SCL*%
X103340000Y-77585000D03*
%TO.P,J1,4,Pin_4*%
%TO.N,SDA*%
X103340000Y-80125000D03*
%TD*%
D13*
%TO.P,SW11,A,A*%
%TO.N,SW11A*%
X107050000Y-92750000D03*
D14*
%TO.P,SW11,B,B*%
%TO.N,SW11B*%
X107050000Y-97750000D03*
%TO.P,SW11,C,C*%
%TO.N,GND*%
X107050000Y-95250000D03*
D15*
%TO.P,SW11,MP*%
%TO.N,N/C*%
X114550000Y-89650000D03*
X114550000Y-100850000D03*
D14*
%TO.P,SW11,S1,S1*%
%TO.N,Column 2*%
X121550000Y-97750000D03*
%TO.P,SW11,S2,S2*%
%TO.N,SW11S2*%
X121550000Y-92750000D03*
%TD*%
D10*
%TO.P,SW1,1,1*%
%TO.N,Column 1*%
X97790000Y-90170000D03*
%TO.P,SW1,2,2*%
%TO.N,Net-(D1-A)*%
X91440000Y-92710000D03*
%TD*%
D16*
%TO.P,D3,1,K*%
%TO.N,Row 1*%
X85725000Y-119538750D03*
D17*
%TO.P,D3,2,A*%
%TO.N,Net-(D3-A)*%
X85725000Y-111918750D03*
%TD*%
D18*
%TO.P,XIAO-RP2040 HERE1,1,GPIO26/ADC0/A0*%
%TO.N,Column 0*%
X144186250Y-70000000D03*
D19*
X143351250Y-70000000D03*
D18*
%TO.P,XIAO-RP2040 HERE1,2,GPIO27/ADC1/A1*%
%TO.N,Column 1*%
X144186250Y-72540000D03*
D19*
X143351250Y-72540000D03*
D18*
%TO.P,XIAO-RP2040 HERE1,3,GPIO28/ADC2/A2*%
%TO.N,Column 2*%
X144186250Y-75080000D03*
D19*
X143351250Y-75080000D03*
D18*
%TO.P,XIAO-RP2040 HERE1,4,GPIO29/ADC3/A3*%
%TO.N,Row 0*%
X144186250Y-77620000D03*
D19*
X143351250Y-77620000D03*
D18*
%TO.P,XIAO-RP2040 HERE1,5,GPIO6/SDA*%
%TO.N,SDA*%
X144186250Y-80160000D03*
D19*
X143351250Y-80160000D03*
D18*
%TO.P,XIAO-RP2040 HERE1,6,GPIO7/SCL*%
%TO.N,SCL*%
X144186250Y-82700000D03*
D19*
X143351250Y-82700000D03*
D18*
%TO.P,XIAO-RP2040 HERE1,7,GPIO0/TX*%
%TO.N,LED*%
X144186250Y-85240000D03*
D19*
X143351250Y-85240000D03*
%TO.P,XIAO-RP2040 HERE1,8,GPIO1/RX*%
%TO.N,Row 1*%
X128111250Y-85240000D03*
D20*
X127276250Y-85240000D03*
D19*
%TO.P,XIAO-RP2040 HERE1,9,GPIO2/SCK*%
%TO.N,Row 2*%
X128111250Y-82700000D03*
D20*
X127276250Y-82700000D03*
D19*
%TO.P,XIAO-RP2040 HERE1,10,GPIO4/MISO*%
%TO.N,SW11B*%
X128111250Y-80160000D03*
D20*
X127276250Y-80160000D03*
D19*
%TO.P,XIAO-RP2040 HERE1,11,GPIO3/MOSI*%
%TO.N,SW11A*%
X128111250Y-77620000D03*
D20*
X127276250Y-77620000D03*
D19*
%TO.P,XIAO-RP2040 HERE1,12,3V3*%
%TO.N,unconnected-(XIAO-RP2040 HERE1-3V3-Pad12)*%
X128111250Y-75080000D03*
D20*
X127276250Y-75080000D03*
D19*
%TO.P,XIAO-RP2040 HERE1,13,GND*%
%TO.N,GND*%
X128111250Y-72540000D03*
D20*
X127276250Y-72540000D03*
D19*
%TO.P,XIAO-RP2040 HERE1,14,VBUS*%
%TO.N,+5V*%
X128111250Y-70000000D03*
D20*
X127276250Y-70000000D03*
%TD*%
D16*
%TO.P,D6,1,K*%
%TO.N,Row 2*%
X85725000Y-138588750D03*
D17*
%TO.P,D6,2,A*%
%TO.N,Net-(D6-A)*%
X85725000Y-130968750D03*
%TD*%
D16*
%TO.P,D8,1,K*%
%TO.N,Row 0*%
X66675000Y-100488750D03*
D17*
%TO.P,D8,2,A*%
%TO.N,Net-(D8-A)*%
X66675000Y-92868750D03*
%TD*%
D16*
%TO.P,D2,1,K*%
%TO.N,Row 1*%
X66675000Y-119538750D03*
D17*
%TO.P,D2,2,A*%
%TO.N,Net-(D2-A)*%
X66675000Y-111918750D03*
%TD*%
D16*
%TO.P,D11,1,K*%
%TO.N,Row 0*%
X126206250Y-100488750D03*
D17*
%TO.P,D11,2,A*%
%TO.N,SW11S2*%
X126206250Y-92868750D03*
%TD*%
D16*
%TO.P,D7,1,K*%
%TO.N,Row 2*%
X104775000Y-138588750D03*
D17*
%TO.P,D7,2,A*%
%TO.N,Net-(D7-A)*%
X104775000Y-130968750D03*
%TD*%
D16*
%TO.P,D5,1,K*%
%TO.N,Row 2*%
X66675000Y-138588750D03*
D17*
%TO.P,D5,2,A*%
%TO.N,Net-(D5-A)*%
X66675000Y-130968750D03*
%TD*%
D16*
%TO.P,D4,1,K*%
%TO.N,Row 1*%
X104775000Y-119538750D03*
D17*
%TO.P,D4,2,A*%
%TO.N,Net-(D4-A)*%
X104775000Y-111918750D03*
%TD*%
D16*
%TO.P,D1,1,K*%
%TO.N,Row 0*%
X85725000Y-100488750D03*
D17*
%TO.P,D1,2,A*%
%TO.N,Net-(D1-A)*%
X85725000Y-92868750D03*
%TD*%
D21*
%TO.N,+5V*%
X132200000Y-77600000D03*
X132200000Y-85600000D03*
%TO.N,GND*%
X103700000Y-93700000D03*
X103300000Y-97600000D03*
X124100000Y-71800000D03*
X110000000Y-93300000D03*
X130500000Y-74500000D03*
X109800000Y-96100000D03*
X131500000Y-69900000D03*
X124700000Y-74500000D03*
%TO.N,Net-(LED6-DOUT)*%
X123300000Y-114400000D03*
X119300000Y-105900000D03*
%TD*%
D22*
%TO.N,Row 0*%
X136000000Y-84971250D02*
X143351250Y-77620000D01*
X136000000Y-90695000D02*
X136000000Y-84971250D01*
X126206250Y-100488750D02*
X136000000Y-90695000D01*
%TO.N,Row 1*%
X104775000Y-113827000D02*
X120249000Y-98353000D01*
X120249000Y-95890892D02*
X128111250Y-88028642D01*
X128111250Y-88028642D02*
X128111250Y-85240000D01*
X120249000Y-98353000D02*
X120249000Y-95890892D01*
X104775000Y-119538750D02*
X104775000Y-113827000D01*
%TO.N,Net-(D5-A)*%
X72231250Y-130968750D02*
X72390000Y-130810000D01*
X66675000Y-130968750D02*
X72231250Y-130968750D01*
%TO.N,Net-(D6-A)*%
X91281250Y-130968750D02*
X91440000Y-130810000D01*
X85725000Y-130968750D02*
X91281250Y-130968750D01*
%TO.N,Row 2*%
X66675000Y-138588750D02*
X85725000Y-138588750D01*
X124200000Y-85533620D02*
X127033620Y-82700000D01*
X124200000Y-88123624D02*
X124200000Y-85533620D01*
X127033620Y-82700000D02*
X128111250Y-82700000D01*
X104775000Y-138588750D02*
X103674000Y-137487750D01*
X103674000Y-137487750D02*
X103674000Y-108649624D01*
X103674000Y-108649624D02*
X124200000Y-88123624D01*
X85725000Y-138588750D02*
X104775000Y-138588750D01*
D23*
%TO.N,+5V*%
X132200000Y-85600000D02*
X132200000Y-77600000D01*
%TO.N,GND*%
X124100000Y-71800000D02*
X127371250Y-71800000D01*
X110000000Y-93300000D02*
X108050000Y-95250000D01*
X127371250Y-71800000D02*
X128111250Y-72540000D01*
X103600000Y-97600000D02*
X105950000Y-95250000D01*
X128860000Y-72540000D02*
X131500000Y-69900000D01*
X103300000Y-97600000D02*
X103600000Y-97600000D01*
X108050000Y-95250000D02*
X107050000Y-95250000D01*
X105950000Y-95250000D02*
X107050000Y-95250000D01*
X128111250Y-72540000D02*
X128860000Y-72540000D01*
D22*
%TO.N,Net-(LED6-DOUT)*%
X123300000Y-109900000D02*
X119300000Y-105900000D01*
X123300000Y-114400000D02*
X123300000Y-109900000D01*
%TO.N,Column 0*%
X95110000Y-73800000D02*
X139551250Y-73800000D01*
X78740000Y-128270000D02*
X78740000Y-90170000D01*
X139551250Y-73800000D02*
X143351250Y-70000000D01*
X78740000Y-90170000D02*
X95110000Y-73800000D01*
%TO.N,Column 1*%
X97790000Y-128270000D02*
X97790000Y-90170000D01*
X111403000Y-76557000D02*
X139334250Y-76557000D01*
X97790000Y-90170000D02*
X111403000Y-76557000D01*
X139334250Y-76557000D02*
X143351250Y-72540000D01*
%TO.N,Column 2*%
X134000000Y-90600000D02*
X134000000Y-84431250D01*
X121550000Y-97750000D02*
X126850000Y-97750000D01*
X126850000Y-97750000D02*
X134000000Y-90600000D01*
X116840000Y-109220000D02*
X116840000Y-102460000D01*
X134000000Y-84431250D02*
X143351250Y-75080000D01*
X116840000Y-128270000D02*
X116840000Y-109220000D01*
X116840000Y-102460000D02*
X121550000Y-97750000D01*
%TO.N,SW11B*%
X127242000Y-80160000D02*
X128111250Y-80160000D01*
X107050000Y-97750000D02*
X109652000Y-97750000D01*
X109652000Y-97750000D02*
X127242000Y-80160000D01*
%TO.N,SW11A*%
X108050000Y-92750000D02*
X123180000Y-77620000D01*
X123180000Y-77620000D02*
X128111250Y-77620000D01*
X107050000Y-92750000D02*
X108050000Y-92750000D01*
%TO.N,Net-(D7-A)*%
X110331250Y-130968750D02*
X110490000Y-130810000D01*
X104775000Y-130968750D02*
X110331250Y-130968750D01*
%TD*%
%TA.AperFunction,Conductor*%
%TO.N,GND*%
G36*
X112368834Y-89382913D02*
G01*
X112424767Y-89424785D01*
X112449184Y-89490249D01*
X112449500Y-89499095D01*
X112449500Y-90697870D01*
X112449501Y-90697876D01*
X112455908Y-90757483D01*
X112506202Y-90892328D01*
X112506206Y-90892335D01*
X112592452Y-91007544D01*
X112592455Y-91007547D01*
X112707664Y-91093793D01*
X112707671Y-91093797D01*
X112842517Y-91144091D01*
X112842516Y-91144091D01*
X112849444Y-91144835D01*
X112902127Y-91150500D01*
X115102902Y-91150499D01*
X115169941Y-91170184D01*
X115215696Y-91222987D01*
X115225640Y-91292146D01*
X115196615Y-91355702D01*
X115190583Y-91362180D01*
X109439584Y-97113181D01*
X109378261Y-97146666D01*
X109351903Y-97149500D01*
X108504068Y-97149500D01*
X108437029Y-97129815D01*
X108393583Y-97081795D01*
X108333342Y-96963566D01*
X108320323Y-96945647D01*
X108194517Y-96772490D01*
X108027510Y-96605483D01*
X107971259Y-96564614D01*
X107928595Y-96509284D01*
X107923902Y-96477455D01*
X107179408Y-95732962D01*
X107242993Y-95715925D01*
X107357007Y-95650099D01*
X107450099Y-95557007D01*
X107515925Y-95442993D01*
X107532962Y-95379409D01*
X108272658Y-96119105D01*
X108272658Y-96119104D01*
X108332914Y-96036169D01*
X108332918Y-96036163D01*
X108440102Y-95825802D01*
X108513065Y-95601247D01*
X108550000Y-95368052D01*
X108550000Y-95131947D01*
X108513065Y-94898752D01*
X108440102Y-94674197D01*
X108332914Y-94463828D01*
X108263394Y-94368142D01*
X108239914Y-94302335D01*
X108255739Y-94234281D01*
X108289401Y-94195989D01*
X108292329Y-94193796D01*
X108292331Y-94193796D01*
X108407546Y-94107546D01*
X108493796Y-93992331D01*
X108544091Y-93857483D01*
X108550500Y-93797873D01*
X108550499Y-93150095D01*
X108570183Y-93083057D01*
X108586813Y-93062420D01*
X112237821Y-89411412D01*
X112299142Y-89377929D01*
X112368834Y-89382913D01*
G37*
%TD.AperFunction*%
%TA.AperFunction,Conductor*%
G36*
X141973570Y-72288456D02*
G01*
X142005099Y-72288906D01*
X142008151Y-72290929D01*
X142011807Y-72291191D01*
X142037058Y-72310094D01*
X142063333Y-72327514D01*
X142064807Y-72330867D01*
X142067740Y-72333063D01*
X142078759Y-72362605D01*
X142091450Y-72391476D01*
X142091379Y-72396441D01*
X142092157Y-72398527D01*
X142090947Y-72426767D01*
X142088750Y-72440641D01*
X142088750Y-72639360D01*
X142119836Y-72835636D01*
X142120381Y-72837903D01*
X142120336Y-72838790D01*
X142120599Y-72840448D01*
X142120250Y-72840503D01*
X142116888Y-72907685D01*
X142087487Y-72954526D01*
X139121834Y-75920181D01*
X139060511Y-75953666D01*
X139034153Y-75956500D01*
X129278335Y-75956500D01*
X129211296Y-75936815D01*
X129165541Y-75884011D01*
X129155597Y-75814853D01*
X129178018Y-75759614D01*
X129191034Y-75741698D01*
X129191033Y-75741698D01*
X129191037Y-75741694D01*
X129281255Y-75564632D01*
X129342663Y-75375636D01*
X129373750Y-75179361D01*
X129373750Y-74980639D01*
X129342663Y-74784364D01*
X129281255Y-74595368D01*
X129281252Y-74595361D01*
X129273830Y-74580794D01*
X129260934Y-74512125D01*
X129287211Y-74447385D01*
X129344318Y-74407128D01*
X129384315Y-74400500D01*
X139464581Y-74400500D01*
X139464597Y-74400501D01*
X139472193Y-74400501D01*
X139630304Y-74400501D01*
X139630307Y-74400501D01*
X139783035Y-74359577D01*
X139833154Y-74330639D01*
X139919966Y-74280520D01*
X140031770Y-74168716D01*
X140031770Y-74168714D01*
X140041978Y-74158507D01*
X140041979Y-74158504D01*
X141880793Y-72319690D01*
X141908459Y-72304584D01*
X141935237Y-72287910D01*
X141938900Y-72287962D01*
X141942115Y-72286207D01*
X141973570Y-72288456D01*
G37*
%TD.AperFunction*%
%TA.AperFunction,Conductor*%
G36*
X147442539Y-67520185D02*
G01*
X147488294Y-67572989D01*
X147499500Y-67624500D01*
X147499500Y-146375500D01*
X147479815Y-146442539D01*
X147427011Y-146488294D01*
X147375500Y-146499500D01*
X63624500Y-146499500D01*
X63557461Y-146479815D01*
X63511706Y-146427011D01*
X63500500Y-146375500D01*
X63500500Y-137988733D01*
X65374500Y-137988733D01*
X65374500Y-139188751D01*
X65374501Y-139188768D01*
X65385000Y-139291546D01*
X65385001Y-139291549D01*
X65440185Y-139458081D01*
X65440186Y-139458084D01*
X65532288Y-139607406D01*
X65656344Y-139731462D01*
X65805666Y-139823564D01*
X65972203Y-139878749D01*
X66074991Y-139889250D01*
X67275008Y-139889249D01*
X67377797Y-139878749D01*
X67544334Y-139823564D01*
X67693656Y-139731462D01*
X67817712Y-139607406D01*
X67909814Y-139458084D01*
X67964999Y-139291547D01*
X67965000Y-139291542D01*
X67965912Y-139287283D01*
X67999199Y-139225852D01*
X68060414Y-139192169D01*
X68087163Y-139189250D01*
X84312837Y-139189250D01*
X84379876Y-139208935D01*
X84425631Y-139261739D01*
X84434089Y-139287291D01*
X84434999Y-139291542D01*
X84490185Y-139458081D01*
X84490186Y-139458084D01*
X84582288Y-139607406D01*
X84706344Y-139731462D01*
X84855666Y-139823564D01*
X85022203Y-139878749D01*
X85124991Y-139889250D01*
X86325008Y-139889249D01*
X86427797Y-139878749D01*
X86594334Y-139823564D01*
X86743656Y-139731462D01*
X86867712Y-139607406D01*
X86959814Y-139458084D01*
X87014999Y-139291547D01*
X87015000Y-139291542D01*
X87015912Y-139287283D01*
X87049199Y-139225852D01*
X87110414Y-139192169D01*
X87137163Y-139189250D01*
X103362837Y-139189250D01*
X103429876Y-139208935D01*
X103475631Y-139261739D01*
X103484089Y-139287291D01*
X103484999Y-139291542D01*
X103540185Y-139458081D01*
X103540186Y-139458084D01*
X103632288Y-139607406D01*
X103756344Y-139731462D01*
X103905666Y-139823564D01*
X104072203Y-139878749D01*
X104174991Y-139889250D01*
X105375008Y-139889249D01*
X105477797Y-139878749D01*
X105644334Y-139823564D01*
X105793656Y-139731462D01*
X105917712Y-139607406D01*
X106009814Y-139458084D01*
X106064999Y-139291547D01*
X106075500Y-139188759D01*
X106075499Y-137988742D01*
X106074541Y-137979368D01*
X106064999Y-137885953D01*
X106064998Y-137885950D01*
X106026461Y-137769654D01*
X106009814Y-137719416D01*
X105917712Y-137570094D01*
X105793656Y-137446038D01*
X105644334Y-137353936D01*
X105477797Y-137298751D01*
X105477795Y-137298750D01*
X105375016Y-137288250D01*
X105375009Y-137288250D01*
X104398500Y-137288250D01*
X104331461Y-137268565D01*
X104285706Y-137215761D01*
X104274500Y-137164250D01*
X104274500Y-132344225D01*
X104294185Y-132277186D01*
X104346989Y-132231431D01*
X104416147Y-132221487D01*
X104436820Y-132226295D01*
X104470458Y-132237225D01*
X104470461Y-132237225D01*
X104470466Y-132237227D01*
X104672648Y-132269250D01*
X104672649Y-132269250D01*
X104877351Y-132269250D01*
X104877352Y-132269250D01*
X105079534Y-132237227D01*
X105274219Y-132173970D01*
X105456610Y-132081037D01*
X105549590Y-132013482D01*
X105622213Y-131960721D01*
X105622215Y-131960718D01*
X105622219Y-131960716D01*
X105766966Y-131815969D01*
X105766968Y-131815965D01*
X105766971Y-131815963D01*
X105887284Y-131650364D01*
X105887285Y-131650363D01*
X105887287Y-131650360D01*
X105894117Y-131636954D01*
X105942091Y-131586159D01*
X106004602Y-131569250D01*
X109004587Y-131569250D01*
X109071626Y-131588935D01*
X109115072Y-131636956D01*
X109121130Y-131648846D01*
X109269201Y-131852649D01*
X109269205Y-131852654D01*
X109269207Y-131852656D01*
X109447344Y-132030793D01*
X109447345Y-132030794D01*
X109447344Y-132030794D01*
X109453661Y-132035383D01*
X109496327Y-132090714D01*
X109502305Y-132160327D01*
X109469699Y-132222122D01*
X109408860Y-132256479D01*
X109361378Y-132258174D01*
X109306611Y-132249500D01*
X109133389Y-132249500D01*
X109093728Y-132255781D01*
X108962302Y-132276597D01*
X108797552Y-132330128D01*
X108643211Y-132408768D01*
X108586289Y-132450125D01*
X108503072Y-132510586D01*
X108503070Y-132510588D01*
X108503069Y-132510588D01*
X108380588Y-132633069D01*
X108380588Y-132633070D01*
X108380586Y-132633072D01*
X108336859Y-132693256D01*
X108278768Y-132773211D01*
X108200128Y-132927552D01*
X108146597Y-133092302D01*
X108119500Y-133263389D01*
X108119500Y-133436611D01*
X108146598Y-133607701D01*
X108200127Y-133772445D01*
X108278768Y-133926788D01*
X108380586Y-134066928D01*
X108503072Y-134189414D01*
X108643212Y-134291232D01*
X108797555Y-134369873D01*
X108962299Y-134423402D01*
X109133389Y-134450500D01*
X109133390Y-134450500D01*
X109306610Y-134450500D01*
X109306611Y-134450500D01*
X109477701Y-134423402D01*
X109642445Y-134369873D01*
X109796788Y-134291232D01*
X109936928Y-134189414D01*
X110059414Y-134066928D01*
X110161232Y-133926788D01*
X110239873Y-133772445D01*
X110293402Y-133607701D01*
X110320500Y-133436611D01*
X110320500Y-133263389D01*
X110310854Y-133202486D01*
X112049500Y-133202486D01*
X112049500Y-133497513D01*
X112081571Y-133741113D01*
X112088007Y-133789993D01*
X112162212Y-134066930D01*
X112164361Y-134074951D01*
X112164364Y-134074961D01*
X112277254Y-134347500D01*
X112277258Y-134347510D01*
X112424761Y-134602993D01*
X112604352Y-134837040D01*
X112604358Y-134837047D01*
X112812952Y-135045641D01*
X112812959Y-135045647D01*
X113047006Y-135225238D01*
X113302489Y-135372741D01*
X113302490Y-135372741D01*
X113302493Y-135372743D01*
X113575048Y-135485639D01*
X113860007Y-135561993D01*
X114152494Y-135600500D01*
X114152501Y-135600500D01*
X114447499Y-135600500D01*
X114447506Y-135600500D01*
X114739993Y-135561993D01*
X115024952Y-135485639D01*
X115297507Y-135372743D01*
X115552994Y-135225238D01*
X115787042Y-135045646D01*
X115995646Y-134837042D01*
X116175238Y-134602994D01*
X116322743Y-134347507D01*
X116435639Y-134074952D01*
X116511993Y-133789993D01*
X116550500Y-133497506D01*
X116550500Y-133263389D01*
X118279500Y-133263389D01*
X118279500Y-133436611D01*
X118306598Y-133607701D01*
X118360127Y-133772445D01*
X118438768Y-133926788D01*
X118540586Y-134066928D01*
X118663072Y-134189414D01*
X118803212Y-134291232D01*
X118957555Y-134369873D01*
X119122299Y-134423402D01*
X119293389Y-134450500D01*
X119293390Y-134450500D01*
X119466610Y-134450500D01*
X119466611Y-134450500D01*
X119637701Y-134423402D01*
X119802445Y-134369873D01*
X119956788Y-134291232D01*
X120096928Y-134189414D01*
X120219414Y-134066928D01*
X120321232Y-133926788D01*
X120399873Y-133772445D01*
X120453402Y-133607701D01*
X120480500Y-133436611D01*
X120480500Y-133263389D01*
X120453402Y-133092299D01*
X120399873Y-132927555D01*
X120321232Y-132773212D01*
X120219414Y-132633072D01*
X120096928Y-132510586D01*
X119956788Y-132408768D01*
X119802445Y-132330127D01*
X119637701Y-132276598D01*
X119637699Y-132276597D01*
X119637698Y-132276597D01*
X119506271Y-132255781D01*
X119466611Y-132249500D01*
X119293389Y-132249500D01*
X119253728Y-132255781D01*
X119122302Y-132276597D01*
X118957552Y-132330128D01*
X118803211Y-132408768D01*
X118746289Y-132450125D01*
X118663072Y-132510586D01*
X118663070Y-132510588D01*
X118663069Y-132510588D01*
X118540588Y-132633069D01*
X118540588Y-132633070D01*
X118540586Y-132633072D01*
X118496859Y-132693256D01*
X118438768Y-132773211D01*
X118360128Y-132927552D01*
X118306597Y-133092302D01*
X118279500Y-133263389D01*
X116550500Y-133263389D01*
X116550500Y-133202494D01*
X116511993Y-132910007D01*
X116435639Y-132625048D01*
X116322743Y-132352493D01*
X116317969Y-132344225D01*
X116175238Y-132097006D01*
X115995647Y-131862959D01*
X115995641Y-131862952D01*
X115787047Y-131654358D01*
X115787040Y-131654352D01*
X115552993Y-131474761D01*
X115297510Y-131327258D01*
X115297500Y-131327254D01*
X115024961Y-131214364D01*
X115024954Y-131214362D01*
X115024952Y-131214361D01*
X114739993Y-131138007D01*
X114691113Y-131131571D01*
X114447513Y-131099500D01*
X114447506Y-131099500D01*
X114152494Y-131099500D01*
X114152486Y-131099500D01*
X113874085Y-131136153D01*
X113860007Y-131138007D01*
X113685428Y-131184785D01*
X113575048Y-131214361D01*
X113575038Y-131214364D01*
X113302499Y-131327254D01*
X113302489Y-131327258D01*
X113047006Y-131474761D01*
X112812959Y-131654352D01*
X112812952Y-131654358D01*
X112604358Y-131862952D01*
X112604352Y-131862959D01*
X112424761Y-132097006D01*
X112277258Y-132352489D01*
X112277254Y-132352499D01*
X112164364Y-132625038D01*
X112164361Y-132625048D01*
X112088008Y-132910004D01*
X112088006Y-132910015D01*
X112049500Y-133202486D01*
X110310854Y-133202486D01*
X110293402Y-133092299D01*
X110239873Y-132927555D01*
X110161232Y-132773212D01*
X110059414Y-132633072D01*
X110007482Y-132581140D01*
X109973997Y-132519817D01*
X109978981Y-132450125D01*
X110020853Y-132394192D01*
X110086317Y-132369775D01*
X110114561Y-132370986D01*
X110115212Y-132371089D01*
X110115215Y-132371090D01*
X110364038Y-132410500D01*
X110364039Y-132410500D01*
X110615961Y-132410500D01*
X110615962Y-132410500D01*
X110864785Y-132371090D01*
X111104379Y-132293241D01*
X111328845Y-132178870D01*
X111532656Y-132030793D01*
X111710793Y-131852656D01*
X111858870Y-131648845D01*
X111973241Y-131424379D01*
X112051090Y-131184785D01*
X112090500Y-130935962D01*
X112090500Y-130684038D01*
X112051090Y-130435215D01*
X111973241Y-130195621D01*
X111973239Y-130195618D01*
X111973239Y-130195616D01*
X111931747Y-130114184D01*
X111858870Y-129971155D01*
X111757107Y-129831090D01*
X111710798Y-129767350D01*
X111710794Y-129767345D01*
X111532654Y-129589205D01*
X111532649Y-129589201D01*
X111328848Y-129441132D01*
X111328847Y-129441131D01*
X111328845Y-129441130D01*
X111258747Y-129405413D01*
X111104383Y-129326760D01*
X110864785Y-129248910D01*
X110615962Y-129209500D01*
X110364038Y-129209500D01*
X110239626Y-129229205D01*
X110115214Y-129248910D01*
X109875616Y-129326760D01*
X109651151Y-129441132D01*
X109447350Y-129589201D01*
X109447345Y-129589205D01*
X109269205Y-129767345D01*
X109269201Y-129767350D01*
X109121132Y-129971151D01*
X109006760Y-130195616D01*
X108978508Y-130282569D01*
X108939070Y-130340244D01*
X108874711Y-130367442D01*
X108860577Y-130368250D01*
X106004602Y-130368250D01*
X105937563Y-130348565D01*
X105894117Y-130300545D01*
X105887284Y-130287135D01*
X105766971Y-130121536D01*
X105622213Y-129976778D01*
X105456613Y-129856465D01*
X105456612Y-129856464D01*
X105456610Y-129856463D01*
X105399653Y-129827441D01*
X105274223Y-129763531D01*
X105079534Y-129700272D01*
X104904995Y-129672628D01*
X104877352Y-129668250D01*
X104672648Y-129668250D01*
X104616652Y-129677119D01*
X104470464Y-129700273D01*
X104470457Y-129700274D01*
X104436817Y-129711205D01*
X104366976Y-129713200D01*
X104307144Y-129677119D01*
X104276316Y-129614418D01*
X104274500Y-129593274D01*
X104274500Y-120963249D01*
X104294185Y-120896210D01*
X104346989Y-120850455D01*
X104398500Y-120839249D01*
X105375002Y-120839249D01*
X105375008Y-120839249D01*
X105477797Y-120828749D01*
X105644334Y-120773564D01*
X105793656Y-120681462D01*
X105917712Y-120557406D01*
X106009814Y-120408084D01*
X106064999Y-120241547D01*
X106075500Y-120138759D01*
X106075499Y-118938742D01*
X106064999Y-118835953D01*
X106009814Y-118669416D01*
X105917712Y-118520094D01*
X105793656Y-118396038D01*
X105644334Y-118303936D01*
X105644331Y-118303935D01*
X105477795Y-118248750D01*
X105473533Y-118247838D01*
X105412102Y-118214551D01*
X105378419Y-118153336D01*
X105375500Y-118126587D01*
X105375500Y-114213389D01*
X108119500Y-114213389D01*
X108119500Y-114386610D01*
X108134108Y-114478846D01*
X108146598Y-114557701D01*
X108200127Y-114722445D01*
X108278768Y-114876788D01*
X108380586Y-115016928D01*
X108503072Y-115139414D01*
X108643212Y-115241232D01*
X108797555Y-115319873D01*
X108962299Y-115373402D01*
X109133389Y-115400500D01*
X109133390Y-115400500D01*
X109306610Y-115400500D01*
X109306611Y-115400500D01*
X109477701Y-115373402D01*
X109642445Y-115319873D01*
X109796788Y-115241232D01*
X109936928Y-115139414D01*
X110059414Y-115016928D01*
X110161232Y-114876788D01*
X110239873Y-114722445D01*
X110293402Y-114557701D01*
X110320500Y-114386611D01*
X110320500Y-114213389D01*
X110293402Y-114042299D01*
X110239873Y-113877555D01*
X110161232Y-113723212D01*
X110059414Y-113583072D01*
X110007482Y-113531140D01*
X109973997Y-113469817D01*
X109978981Y-113400125D01*
X110020853Y-113344192D01*
X110086317Y-113319775D01*
X110114561Y-113320986D01*
X110115212Y-113321089D01*
X110115215Y-113321090D01*
X110364038Y-113360500D01*
X110364039Y-113360500D01*
X110615961Y-113360500D01*
X110615962Y-113360500D01*
X110864785Y-113321090D01*
X111104379Y-113243241D01*
X111328845Y-113128870D01*
X111532656Y-112980793D01*
X111710793Y-112802656D01*
X111858870Y-112598845D01*
X111973241Y-112374379D01*
X112051090Y-112134785D01*
X112090500Y-111885962D01*
X112090500Y-111634038D01*
X112051090Y-111385215D01*
X111973241Y-111145621D01*
X111973239Y-111145618D01*
X111973239Y-111145616D01*
X111931747Y-111064184D01*
X111858870Y-110921155D01*
X111775542Y-110806463D01*
X111710798Y-110717350D01*
X111710794Y-110717345D01*
X111532654Y-110539205D01*
X111532649Y-110539201D01*
X111328848Y-110391132D01*
X111328847Y-110391131D01*
X111328845Y-110391130D01*
X111258747Y-110355413D01*
X111104383Y-110276760D01*
X110864785Y-110198910D01*
X110615962Y-110159500D01*
X110364038Y-110159500D01*
X110274137Y-110173739D01*
X110115214Y-110198910D01*
X109875616Y-110276760D01*
X109651151Y-110391132D01*
X109447350Y-110539201D01*
X109447345Y-110539205D01*
X109269205Y-110717345D01*
X109269201Y-110717350D01*
X109121132Y-110921151D01*
X109006760Y-111145616D01*
X108928910Y-111385214D01*
X108889500Y-111634038D01*
X108889500Y-111885961D01*
X108928910Y-112134785D01*
X109006760Y-112374383D01*
X109121132Y-112598848D01*
X109269201Y-112802649D01*
X109269205Y-112802654D01*
X109269207Y-112802656D01*
X109447344Y-112980793D01*
X109447345Y-112980794D01*
X109447344Y-112980794D01*
X109453661Y-112985383D01*
X109496327Y-113040714D01*
X109502305Y-113110327D01*
X109469699Y-113172122D01*
X109408860Y-113206479D01*
X109361378Y-113208174D01*
X109306611Y-113199500D01*
X109133389Y-113199500D01*
X109093728Y-113205781D01*
X108962302Y-113226597D01*
X108797552Y-113280128D01*
X108643211Y-113358768D01*
X108586289Y-113400125D01*
X108503072Y-113460586D01*
X108503070Y-113460588D01*
X108503069Y-113460588D01*
X108380588Y-113583069D01*
X108380588Y-113583070D01*
X108380586Y-113583072D01*
X108336859Y-113643256D01*
X108278768Y-113723211D01*
X108200128Y-113877552D01*
X108146597Y-114042302D01*
X108119500Y-114213389D01*
X105375500Y-114213389D01*
X105375500Y-114127097D01*
X105395185Y-114060058D01*
X105411819Y-114039416D01*
X116027819Y-103423416D01*
X116089142Y-103389931D01*
X116158834Y-103394915D01*
X116214767Y-103436787D01*
X116239184Y-103502251D01*
X116239500Y-103511097D01*
X116239500Y-107653699D01*
X116219815Y-107720738D01*
X116171795Y-107764184D01*
X116001151Y-107851132D01*
X115797350Y-107999201D01*
X115797345Y-107999205D01*
X115619205Y-108177345D01*
X115619201Y-108177350D01*
X115471132Y-108381151D01*
X115356760Y-108605616D01*
X115278910Y-108845214D01*
X115239500Y-109094038D01*
X115239500Y-109345961D01*
X115278910Y-109594785D01*
X115356760Y-109834383D01*
X115471132Y-110058848D01*
X115619201Y-110262649D01*
X115619205Y-110262654D01*
X115797345Y-110440794D01*
X115797350Y-110440798D01*
X115938397Y-110543274D01*
X116001155Y-110588870D01*
X116171795Y-110675815D01*
X116222591Y-110723789D01*
X116239500Y-110786300D01*
X116239500Y-112765461D01*
X116219815Y-112832500D01*
X116167011Y-112878255D01*
X116097853Y-112888199D01*
X116034297Y-112859174D01*
X116017125Y-112840949D01*
X115995644Y-112812955D01*
X115787047Y-112604358D01*
X115787040Y-112604352D01*
X115552993Y-112424761D01*
X115297510Y-112277258D01*
X115297500Y-112277254D01*
X115024961Y-112164364D01*
X115024954Y-112164362D01*
X115024952Y-112164361D01*
X114739993Y-112088007D01*
X114691113Y-112081571D01*
X114447513Y-112049500D01*
X114447506Y-112049500D01*
X114152494Y-112049500D01*
X114152486Y-112049500D01*
X113874085Y-112086153D01*
X113860007Y-112088007D01*
X113685428Y-112134785D01*
X113575048Y-112164361D01*
X113575038Y-112164364D01*
X113302499Y-112277254D01*
X113302489Y-112277258D01*
X113047006Y-112424761D01*
X112812959Y-112604352D01*
X112812952Y-112604358D01*
X112604358Y-112812952D01*
X112604352Y-112812959D01*
X112424761Y-113047006D01*
X112277258Y-113302489D01*
X112277254Y-113302499D01*
X112164364Y-113575038D01*
X112164361Y-113575048D01*
X112088008Y-113860004D01*
X112088006Y-113860015D01*
X112049500Y-114152486D01*
X112049500Y-114447513D01*
X112073985Y-114633489D01*
X112088007Y-114739993D01*
X112164361Y-115024951D01*
X112164364Y-115024961D01*
X112277254Y-115297500D01*
X112277258Y-115297510D01*
X112424761Y-115552993D01*
X112604352Y-115787040D01*
X112604358Y-115787047D01*
X112812952Y-115995641D01*
X112812959Y-115995647D01*
X113047006Y-116175238D01*
X113302489Y-116322741D01*
X113302490Y-116322741D01*
X113302493Y-116322743D01*
X113575048Y-116435639D01*
X113860007Y-116511993D01*
X114152494Y-116550500D01*
X114152501Y-116550500D01*
X114447499Y-116550500D01*
X114447506Y-116550500D01*
X114739993Y-116511993D01*
X115024952Y-116435639D01*
X115297507Y-116322743D01*
X115552994Y-116175238D01*
X115787042Y-115995646D01*
X115995646Y-115787042D01*
X116017124Y-115759052D01*
X116073552Y-115717849D01*
X116143298Y-115713694D01*
X116204218Y-115747906D01*
X116236971Y-115809624D01*
X116239500Y-115834538D01*
X116239500Y-126703699D01*
X116219815Y-126770738D01*
X116171795Y-126814184D01*
X116001151Y-126901132D01*
X115797350Y-127049201D01*
X115797345Y-127049205D01*
X115619205Y-127227345D01*
X115619201Y-127227350D01*
X115471132Y-127431151D01*
X115356760Y-127655616D01*
X115278910Y-127895214D01*
X115239500Y-128144038D01*
X115239500Y-128395961D01*
X115278910Y-128644785D01*
X115356760Y-128884383D01*
X115471132Y-129108848D01*
X115619201Y-129312649D01*
X115619205Y-129312654D01*
X115797345Y-129490794D01*
X115797350Y-129490798D01*
X115938397Y-129593274D01*
X116001155Y-129638870D01*
X116143121Y-129711205D01*
X116225616Y-129753239D01*
X116225618Y-129753239D01*
X116225621Y-129753241D01*
X116465215Y-129831090D01*
X116714038Y-129870500D01*
X116714039Y-129870500D01*
X116965961Y-129870500D01*
X116965962Y-129870500D01*
X117214785Y-129831090D01*
X117454379Y-129753241D01*
X117678845Y-129638870D01*
X117882656Y-129490793D01*
X118060793Y-129312656D01*
X118208870Y-129108845D01*
X118323241Y-128884379D01*
X118401090Y-128644785D01*
X118440500Y-128395962D01*
X118440500Y-128144038D01*
X118401090Y-127895215D01*
X118323241Y-127655621D01*
X118323239Y-127655618D01*
X118323239Y-127655616D01*
X118281747Y-127574184D01*
X118208870Y-127431155D01*
X118189952Y-127405117D01*
X118060798Y-127227350D01*
X118060794Y-127227345D01*
X117882654Y-127049205D01*
X117882649Y-127049201D01*
X117678848Y-126901132D01*
X117678847Y-126901131D01*
X117678845Y-126901130D01*
X117609186Y-126865637D01*
X117508205Y-126814184D01*
X117457409Y-126766209D01*
X117440500Y-126703699D01*
X117440500Y-114213389D01*
X118279500Y-114213389D01*
X118279500Y-114386610D01*
X118294108Y-114478846D01*
X118306598Y-114557701D01*
X118360127Y-114722445D01*
X118438768Y-114876788D01*
X118540586Y-115016928D01*
X118663072Y-115139414D01*
X118803212Y-115241232D01*
X118957555Y-115319873D01*
X119122299Y-115373402D01*
X119293389Y-115400500D01*
X119293390Y-115400500D01*
X119466610Y-115400500D01*
X119466611Y-115400500D01*
X119637701Y-115373402D01*
X119802445Y-115319873D01*
X119956788Y-115241232D01*
X120096928Y-115139414D01*
X120219414Y-115016928D01*
X120321232Y-114876788D01*
X120399873Y-114722445D01*
X120453402Y-114557701D01*
X120480500Y-114386611D01*
X120480500Y-114213389D01*
X120453402Y-114042299D01*
X120399873Y-113877555D01*
X120321232Y-113723212D01*
X120219414Y-113583072D01*
X120096928Y-113460586D01*
X119956788Y-113358768D01*
X119802445Y-113280127D01*
X119637701Y-113226598D01*
X119637699Y-113226597D01*
X119637698Y-113226597D01*
X119506271Y-113205781D01*
X119466611Y-113199500D01*
X119293389Y-113199500D01*
X119253728Y-113205781D01*
X119122302Y-113226597D01*
X118957552Y-113280128D01*
X118803211Y-113358768D01*
X118746289Y-113400125D01*
X118663072Y-113460586D01*
X118663070Y-113460588D01*
X118663069Y-113460588D01*
X118540588Y-113583069D01*
X118540588Y-113583070D01*
X118540586Y-113583072D01*
X118496859Y-113643256D01*
X118438768Y-113723211D01*
X118360128Y-113877552D01*
X118306597Y-114042302D01*
X118279500Y-114213389D01*
X117440500Y-114213389D01*
X117440500Y-110786300D01*
X117460185Y-110719261D01*
X117508204Y-110675815D01*
X117678845Y-110588870D01*
X117882656Y-110440793D01*
X118060793Y-110262656D01*
X118208870Y-110058845D01*
X118323241Y-109834379D01*
X118401090Y-109594785D01*
X118440500Y-109345962D01*
X118440500Y-109094038D01*
X118401090Y-108845215D01*
X118323241Y-108605621D01*
X118323239Y-108605618D01*
X118323239Y-108605616D01*
X118227561Y-108417839D01*
X118208870Y-108381155D01*
X118136037Y-108280909D01*
X118060798Y-108177350D01*
X118060794Y-108177345D01*
X117882654Y-107999205D01*
X117882649Y-107999201D01*
X117678848Y-107851132D01*
X117678847Y-107851131D01*
X117678845Y-107851130D01*
X117609186Y-107815637D01*
X117508205Y-107764184D01*
X117457409Y-107716209D01*
X117440500Y-107653699D01*
X117440500Y-105821153D01*
X118499500Y-105821153D01*
X118499500Y-105978846D01*
X118530261Y-106133489D01*
X118530264Y-106133501D01*
X118590602Y-106279172D01*
X118590609Y-106279185D01*
X118678210Y-106410288D01*
X118678213Y-106410292D01*
X118789707Y-106521786D01*
X118789711Y-106521789D01*
X118920814Y-106609390D01*
X118920827Y-106609397D01*
X119066498Y-106669735D01*
X119066503Y-106669737D01*
X119131147Y-106682595D01*
X119221849Y-106700638D01*
X119283760Y-106733023D01*
X119285339Y-106734574D01*
X122663181Y-110112416D01*
X122696666Y-110173739D01*
X122699500Y-110200097D01*
X122699500Y-113820234D01*
X122679815Y-113887273D01*
X122678602Y-113889125D01*
X122590609Y-114020814D01*
X122590602Y-114020827D01*
X122530264Y-114166498D01*
X122530261Y-114166510D01*
X122499500Y-114321153D01*
X122499500Y-114478846D01*
X122530261Y-114633489D01*
X122530264Y-114633501D01*
X122590602Y-114779172D01*
X122590609Y-114779185D01*
X122678210Y-114910288D01*
X122678213Y-114910292D01*
X122789707Y-115021786D01*
X122789711Y-115021789D01*
X122920814Y-115109390D01*
X122920827Y-115109397D01*
X122993296Y-115139414D01*
X123066503Y-115169737D01*
X123221153Y-115200499D01*
X123221156Y-115200500D01*
X123221158Y-115200500D01*
X123378844Y-115200500D01*
X123378845Y-115200499D01*
X123533497Y-115169737D01*
X123679179Y-115109394D01*
X123810289Y-115021789D01*
X123921789Y-114910289D01*
X124009394Y-114779179D01*
X124069737Y-114633497D01*
X124100500Y-114478842D01*
X124100500Y-114321158D01*
X124100500Y-114321155D01*
X124100499Y-114321153D01*
X124069738Y-114166510D01*
X124069737Y-114166503D01*
X124032140Y-114075735D01*
X124009397Y-114020827D01*
X124009390Y-114020814D01*
X123921398Y-113889125D01*
X123900520Y-113822447D01*
X123900500Y-113820234D01*
X123900500Y-109820945D01*
X123900500Y-109820943D01*
X123900382Y-109820500D01*
X123859577Y-109668215D01*
X123813678Y-109588716D01*
X123780520Y-109531284D01*
X123668716Y-109419480D01*
X123668715Y-109419479D01*
X123664385Y-109415149D01*
X123664374Y-109415139D01*
X120134574Y-105885339D01*
X120101089Y-105824016D01*
X120100638Y-105821849D01*
X120069738Y-105666510D01*
X120069737Y-105666503D01*
X120069735Y-105666498D01*
X120009397Y-105520827D01*
X120009390Y-105520814D01*
X119921789Y-105389711D01*
X119921786Y-105389707D01*
X119810292Y-105278213D01*
X119810288Y-105278210D01*
X119679185Y-105190609D01*
X119679172Y-105190602D01*
X119533501Y-105130264D01*
X119533489Y-105130261D01*
X119378845Y-105099500D01*
X119378842Y-105099500D01*
X119221158Y-105099500D01*
X119221155Y-105099500D01*
X119066510Y-105130261D01*
X119066498Y-105130264D01*
X118920827Y-105190602D01*
X118920814Y-105190609D01*
X118789711Y-105278210D01*
X118789707Y-105278213D01*
X118678213Y-105389707D01*
X118678210Y-105389711D01*
X118590609Y-105520814D01*
X118590602Y-105520827D01*
X118530264Y-105666498D01*
X118530261Y-105666510D01*
X118499500Y-105821153D01*
X117440500Y-105821153D01*
X117440500Y-102760096D01*
X117460185Y-102693057D01*
X117476814Y-102672420D01*
X120946437Y-99202796D01*
X121007758Y-99169313D01*
X121072433Y-99172547D01*
X121198632Y-99213553D01*
X121286110Y-99227408D01*
X121431903Y-99250500D01*
X121431908Y-99250500D01*
X121668097Y-99250500D01*
X121901368Y-99213553D01*
X121934468Y-99202798D01*
X122125992Y-99140568D01*
X122336433Y-99033343D01*
X122527510Y-98894517D01*
X122694517Y-98727510D01*
X122833343Y-98536433D01*
X122893583Y-98418204D01*
X122941558Y-98367409D01*
X123004068Y-98350500D01*
X126763331Y-98350500D01*
X126763347Y-98350501D01*
X126770943Y-98350501D01*
X126929054Y-98350501D01*
X126929057Y-98350501D01*
X127081785Y-98309577D01*
X127143506Y-98273942D01*
X127218716Y-98230520D01*
X127330520Y-98118716D01*
X127330520Y-98118714D01*
X127340724Y-98108511D01*
X127340728Y-98108506D01*
X134358506Y-91090728D01*
X134358511Y-91090724D01*
X134368714Y-91080520D01*
X134368716Y-91080520D01*
X134480520Y-90968716D01*
X134537681Y-90869709D01*
X134559577Y-90831785D01*
X134600501Y-90679057D01*
X134600501Y-90520943D01*
X134600501Y-90513348D01*
X134600500Y-90513330D01*
X134600500Y-84731347D01*
X134620185Y-84664308D01*
X134636819Y-84643666D01*
X138249531Y-81030954D01*
X141880794Y-77399690D01*
X141942115Y-77366207D01*
X142011807Y-77371191D01*
X142067740Y-77413063D01*
X142092157Y-77478527D01*
X142090947Y-77506767D01*
X142088750Y-77520641D01*
X142088750Y-77719360D01*
X142119836Y-77915636D01*
X142120381Y-77917903D01*
X142120336Y-77918790D01*
X142120599Y-77920448D01*
X142120250Y-77920503D01*
X142116888Y-77987685D01*
X142087487Y-78034526D01*
X135634172Y-84487841D01*
X135634164Y-84487849D01*
X135631286Y-84490728D01*
X135631284Y-84490730D01*
X135519480Y-84602534D01*
X135498138Y-84639500D01*
X135440423Y-84739465D01*
X135399499Y-84892193D01*
X135399499Y-84892195D01*
X135399499Y-85060296D01*
X135399500Y-85060309D01*
X135399500Y-90394902D01*
X135379815Y-90461941D01*
X135363181Y-90482583D01*
X126693832Y-99151931D01*
X126632509Y-99185416D01*
X126606151Y-99188250D01*
X125606248Y-99188250D01*
X125606230Y-99188251D01*
X125503453Y-99198750D01*
X125503450Y-99198751D01*
X125336918Y-99253935D01*
X125336913Y-99253937D01*
X125187592Y-99346039D01*
X125063539Y-99470092D01*
X124971437Y-99619413D01*
X124971436Y-99619416D01*
X124916251Y-99785953D01*
X124916251Y-99785954D01*
X124916250Y-99785954D01*
X124905750Y-99888733D01*
X124905750Y-101088751D01*
X124905751Y-101088768D01*
X124916250Y-101191546D01*
X124916251Y-101191549D01*
X124971435Y-101358081D01*
X124971436Y-101358084D01*
X125063538Y-101507406D01*
X125187594Y-101631462D01*
X125336916Y-101723564D01*
X125503453Y-101778749D01*
X125606241Y-101789250D01*
X126806258Y-101789249D01*
X126909047Y-101778749D01*
X127075584Y-101723564D01*
X127224906Y-101631462D01*
X127348962Y-101507406D01*
X127441064Y-101358084D01*
X127496249Y-101191547D01*
X127506750Y-101088759D01*
X127506749Y-100088845D01*
X127526433Y-100021807D01*
X127543063Y-100001170D01*
X136358506Y-91185728D01*
X136358511Y-91185724D01*
X136368714Y-91175520D01*
X136368716Y-91175520D01*
X136480520Y-91063716D01*
X136512951Y-91007544D01*
X136535368Y-90968717D01*
X136535369Y-90968715D01*
X136559574Y-90926790D01*
X136559573Y-90926790D01*
X136559577Y-90926785D01*
X136600500Y-90774057D01*
X136600500Y-90615943D01*
X136600500Y-85271346D01*
X136620185Y-85204307D01*
X136636814Y-85183670D01*
X141880794Y-79939689D01*
X141942115Y-79906206D01*
X142011807Y-79911190D01*
X142067740Y-79953062D01*
X142092157Y-80018526D01*
X142090947Y-80046765D01*
X142088750Y-80060639D01*
X142088750Y-80259360D01*
X142119837Y-80455637D01*
X142181243Y-80644629D01*
X142181244Y-80644632D01*
X142271463Y-80821694D01*
X142388269Y-80982464D01*
X142388271Y-80982466D01*
X142528789Y-81122984D01*
X142608310Y-81180758D01*
X142615074Y-81186039D01*
X142619248Y-81189537D01*
X142719303Y-81289592D01*
X142784987Y-81328437D01*
X142792772Y-81334962D01*
X142806738Y-81355926D01*
X142823929Y-81374338D01*
X142825778Y-81384506D01*
X142831510Y-81393110D01*
X142831924Y-81418297D01*
X142836432Y-81443079D01*
X142832489Y-81452634D01*
X142832660Y-81462970D01*
X142819393Y-81484381D01*
X142809786Y-81507669D01*
X142799372Y-81516692D01*
X142795859Y-81522363D01*
X142789121Y-81525575D01*
X142776246Y-81536732D01*
X142719303Y-81570408D01*
X142719296Y-81570413D01*
X142623104Y-81666604D01*
X142608311Y-81679239D01*
X142528786Y-81737018D01*
X142388271Y-81877533D01*
X142271463Y-82038305D01*
X142181244Y-82215367D01*
X142181243Y-82215370D01*
X142119837Y-82404362D01*
X142119837Y-82404364D01*
X142088750Y-82600639D01*
X142088750Y-82799361D01*
X142100677Y-82874664D01*
X142119837Y-82995637D01*
X142181243Y-83184629D01*
X142181244Y-83184632D01*
X142252580Y-83324635D01*
X142271463Y-83361694D01*
X142388269Y-83522464D01*
X142388271Y-83522466D01*
X142528789Y-83662984D01*
X142608310Y-83720758D01*
X142615074Y-83726039D01*
X142619248Y-83729537D01*
X142719303Y-83829592D01*
X142784987Y-83868437D01*
X142792772Y-83874962D01*
X142806738Y-83895926D01*
X142823929Y-83914338D01*
X142825778Y-83924506D01*
X142831510Y-83933110D01*
X142831924Y-83958297D01*
X142836432Y-83983079D01*
X142832489Y-83992634D01*
X142832660Y-84002970D01*
X142819393Y-84024381D01*
X142809786Y-84047669D01*
X142799372Y-84056692D01*
X142795859Y-84062363D01*
X142789121Y-84065575D01*
X142776246Y-84076732D01*
X142719303Y-84110408D01*
X142719296Y-84110413D01*
X142623104Y-84206604D01*
X142608311Y-84219239D01*
X142528786Y-84277018D01*
X142388271Y-84417533D01*
X142271463Y-84578305D01*
X142181244Y-84755367D01*
X142181243Y-84755370D01*
X142119837Y-84944362D01*
X142088750Y-85140639D01*
X142088750Y-85339360D01*
X142119837Y-85535637D01*
X142181243Y-85724629D01*
X142181244Y-85724632D01*
X142271463Y-85901694D01*
X142388269Y-86062464D01*
X142388271Y-86062466D01*
X142528789Y-86202984D01*
X142608310Y-86260758D01*
X142623101Y-86273390D01*
X142719303Y-86369592D01*
X142861291Y-86453564D01*
X142903066Y-86465701D01*
X143019697Y-86499586D01*
X143019700Y-86499586D01*
X143019702Y-86499587D01*
X143056716Y-86502500D01*
X143056724Y-86502500D01*
X145315776Y-86502500D01*
X145315784Y-86502500D01*
X145352798Y-86499587D01*
X145352800Y-86499586D01*
X145352802Y-86499586D01*
X145435705Y-86475500D01*
X145511209Y-86453564D01*
X145653197Y-86369592D01*
X145769842Y-86252947D01*
X145853814Y-86110959D01*
X145899837Y-85952548D01*
X145902750Y-85915534D01*
X145902750Y-84564466D01*
X145899837Y-84527452D01*
X145889168Y-84490730D01*
X145853815Y-84369045D01*
X145853814Y-84369042D01*
X145853814Y-84369041D01*
X145769842Y-84227053D01*
X145769840Y-84227051D01*
X145769837Y-84227047D01*
X145653202Y-84110412D01*
X145653194Y-84110406D01*
X145596254Y-84076732D01*
X145548571Y-84025663D01*
X145536067Y-83956921D01*
X145562712Y-83892332D01*
X145596254Y-83863268D01*
X145653197Y-83829592D01*
X145769842Y-83712947D01*
X145853814Y-83570959D01*
X145899837Y-83412548D01*
X145902750Y-83375534D01*
X145902750Y-82024466D01*
X145899837Y-81987452D01*
X145853814Y-81829041D01*
X145769842Y-81687053D01*
X145769840Y-81687051D01*
X145769837Y-81687047D01*
X145653202Y-81570412D01*
X145653194Y-81570406D01*
X145596254Y-81536732D01*
X145548571Y-81485663D01*
X145536067Y-81416921D01*
X145562712Y-81352332D01*
X145596254Y-81323268D01*
X145653197Y-81289592D01*
X145769842Y-81172947D01*
X145853814Y-81030959D01*
X145899837Y-80872548D01*
X145902750Y-80835534D01*
X145902750Y-79484466D01*
X145899837Y-79447452D01*
X145891043Y-79417184D01*
X145853815Y-79289045D01*
X145853814Y-79289042D01*
X145853814Y-79289041D01*
X145769842Y-79147053D01*
X145769840Y-79147051D01*
X145769837Y-79147047D01*
X145653202Y-79030412D01*
X145653194Y-79030406D01*
X145596254Y-78996732D01*
X145548571Y-78945663D01*
X145536067Y-78876921D01*
X145562712Y-78812332D01*
X145596254Y-78783268D01*
X145653197Y-78749592D01*
X145769842Y-78632947D01*
X145853814Y-78490959D01*
X145899837Y-78332548D01*
X145902750Y-78295534D01*
X145902750Y-76944466D01*
X145899837Y-76907452D01*
X145891043Y-76877184D01*
X145853815Y-76749045D01*
X145853814Y-76749042D01*
X145853814Y-76749041D01*
X145769842Y-76607053D01*
X145769840Y-76607051D01*
X145769837Y-76607047D01*
X145653202Y-76490412D01*
X145653194Y-76490406D01*
X145596254Y-76456732D01*
X145548571Y-76405663D01*
X145536067Y-76336921D01*
X145562712Y-76272332D01*
X145596254Y-76243268D01*
X145653197Y-76209592D01*
X145769842Y-76092947D01*
X145853814Y-75950959D01*
X145899837Y-75792548D01*
X145902750Y-75755534D01*
X145902750Y-74404466D01*
X145899837Y-74367452D01*
X145897549Y-74359577D01*
X145853815Y-74209045D01*
X145853814Y-74209042D01*
X145853814Y-74209041D01*
X145769842Y-74067053D01*
X145769840Y-74067051D01*
X145769837Y-74067047D01*
X145653202Y-73950412D01*
X145653194Y-73950406D01*
X145596254Y-73916732D01*
X145548571Y-73865663D01*
X145536067Y-73796921D01*
X145562712Y-73732332D01*
X145596254Y-73703268D01*
X145653197Y-73669592D01*
X145769842Y-73552947D01*
X145853814Y-73410959D01*
X145899837Y-73252548D01*
X145902750Y-73215534D01*
X145902750Y-71864466D01*
X145899837Y-71827452D01*
X145853814Y-71669041D01*
X145769842Y-71527053D01*
X145769840Y-71527051D01*
X145769837Y-71527047D01*
X145653202Y-71410412D01*
X145653194Y-71410406D01*
X145623639Y-71392927D01*
X145596253Y-71376731D01*
X145548571Y-71325663D01*
X145536067Y-71256921D01*
X145562712Y-71192332D01*
X145596254Y-71163268D01*
X145653197Y-71129592D01*
X145769842Y-71012947D01*
X145853814Y-70870959D01*
X145899837Y-70712548D01*
X145902750Y-70675534D01*
X145902750Y-69324466D01*
X145899837Y-69287452D01*
X145853814Y-69129041D01*
X145769842Y-68987053D01*
X145769840Y-68987051D01*
X145769837Y-68987047D01*
X145653202Y-68870412D01*
X145653193Y-68870405D01*
X145511207Y-68786435D01*
X145511204Y-68786434D01*
X145352802Y-68740413D01*
X145352796Y-68740412D01*
X145315791Y-68737500D01*
X145315784Y-68737500D01*
X143056716Y-68737500D01*
X143056708Y-68737500D01*
X143019703Y-68740412D01*
X143019697Y-68740413D01*
X142861295Y-68786434D01*
X142861292Y-68786435D01*
X142719306Y-68870405D01*
X142719296Y-68870413D01*
X142623104Y-68966604D01*
X142608311Y-68979239D01*
X142528786Y-69037018D01*
X142388271Y-69177533D01*
X142271463Y-69338305D01*
X142181244Y-69515367D01*
X142181243Y-69515370D01*
X142119837Y-69704362D01*
X142088750Y-69900639D01*
X142088750Y-70099360D01*
X142119836Y-70295635D01*
X142120381Y-70297902D01*
X142120336Y-70298789D01*
X142120599Y-70300447D01*
X142120250Y-70300502D01*
X142116888Y-70367684D01*
X142087487Y-70414525D01*
X139338834Y-73163181D01*
X139277511Y-73196666D01*
X139251153Y-73199500D01*
X129393858Y-73199500D01*
X129326819Y-73179815D01*
X129281064Y-73127011D01*
X129271120Y-73057853D01*
X129279295Y-73028053D01*
X129280786Y-73024451D01*
X129342175Y-72835519D01*
X129373250Y-72639321D01*
X129373250Y-72440678D01*
X129342174Y-72244479D01*
X129342174Y-72244476D01*
X129280792Y-72055562D01*
X129190608Y-71878567D01*
X129163518Y-71841283D01*
X128548897Y-72455904D01*
X128525458Y-72368429D01*
X128466939Y-72267070D01*
X128384180Y-72184311D01*
X128282821Y-72125792D01*
X128195343Y-72102352D01*
X128814889Y-71482807D01*
X128742889Y-71410807D01*
X128742884Y-71410803D01*
X128685763Y-71377022D01*
X128638079Y-71325953D01*
X128625576Y-71257211D01*
X128652222Y-71192622D01*
X128669274Y-71175220D01*
X128677037Y-71168718D01*
X128743197Y-71129592D01*
X128843269Y-71029518D01*
X128847463Y-71026007D01*
X128848648Y-71025489D01*
X128854189Y-71020758D01*
X128933714Y-70962981D01*
X129074231Y-70822464D01*
X129191037Y-70661694D01*
X129281255Y-70484632D01*
X129342663Y-70295636D01*
X129373750Y-70099361D01*
X129373750Y-69900639D01*
X129342663Y-69704364D01*
X129281255Y-69515368D01*
X129281255Y-69515367D01*
X129191036Y-69338305D01*
X129074231Y-69177536D01*
X128933714Y-69037019D01*
X128854187Y-68979239D01*
X128839397Y-68966608D01*
X128743197Y-68870408D01*
X128743196Y-68870407D01*
X128743193Y-68870405D01*
X128601207Y-68786435D01*
X128601204Y-68786434D01*
X128442802Y-68740413D01*
X128442796Y-68740412D01*
X128405791Y-68737500D01*
X128405784Y-68737500D01*
X126146716Y-68737500D01*
X126146708Y-68737500D01*
X126109703Y-68740412D01*
X126109697Y-68740413D01*
X125951295Y-68786434D01*
X125951292Y-68786435D01*
X125809306Y-68870405D01*
X125809297Y-68870412D01*
X125692662Y-68987047D01*
X125692655Y-68987056D01*
X125608685Y-69129042D01*
X125608684Y-69129045D01*
X125562663Y-69287447D01*
X125562662Y-69287453D01*
X125559750Y-69324458D01*
X125559750Y-70675541D01*
X125562662Y-70712546D01*
X125562663Y-70712552D01*
X125608684Y-70870954D01*
X125608685Y-70870957D01*
X125692655Y-71012943D01*
X125692662Y-71012952D01*
X125809297Y-71129587D01*
X125809306Y-71129594D01*
X125866736Y-71163558D01*
X125914420Y-71214627D01*
X125926923Y-71283369D01*
X125900278Y-71347958D01*
X125866737Y-71377021D01*
X125809617Y-71410801D01*
X125809606Y-71410810D01*
X125693060Y-71527356D01*
X125693053Y-71527365D01*
X125609147Y-71669243D01*
X125609146Y-71669246D01*
X125563161Y-71827526D01*
X125563160Y-71827532D01*
X125560250Y-71864511D01*
X125560250Y-71864526D01*
X125560251Y-73075500D01*
X125540566Y-73142539D01*
X125487763Y-73188294D01*
X125436251Y-73199500D01*
X104814000Y-73199500D01*
X104746961Y-73179815D01*
X104701206Y-73127011D01*
X104690000Y-73075500D01*
X104690000Y-72755000D01*
X103773012Y-72755000D01*
X103805925Y-72697993D01*
X103840000Y-72570826D01*
X103840000Y-72439174D01*
X103805925Y-72312007D01*
X103773012Y-72255000D01*
X104690000Y-72255000D01*
X104690000Y-71607172D01*
X104689999Y-71607155D01*
X104683598Y-71547627D01*
X104683596Y-71547620D01*
X104633354Y-71412913D01*
X104633350Y-71412906D01*
X104547190Y-71297812D01*
X104547187Y-71297809D01*
X104432093Y-71211649D01*
X104432086Y-71211645D01*
X104297379Y-71161403D01*
X104297372Y-71161401D01*
X104237844Y-71155000D01*
X103590000Y-71155000D01*
X103590000Y-72071988D01*
X103532993Y-72039075D01*
X103405826Y-72005000D01*
X103274174Y-72005000D01*
X103147007Y-72039075D01*
X103090000Y-72071988D01*
X103090000Y-71155000D01*
X102442155Y-71155000D01*
X102382627Y-71161401D01*
X102382620Y-71161403D01*
X102247913Y-71211645D01*
X102247906Y-71211649D01*
X102132812Y-71297809D01*
X102132809Y-71297812D01*
X102046649Y-71412906D01*
X102046645Y-71412913D01*
X101996403Y-71547620D01*
X101996401Y-71547627D01*
X101990000Y-71607155D01*
X101990000Y-72255000D01*
X102906988Y-72255000D01*
X102874075Y-72312007D01*
X102840000Y-72439174D01*
X102840000Y-72570826D01*
X102874075Y-72697993D01*
X102906988Y-72755000D01*
X101990000Y-72755000D01*
X101990000Y-73075500D01*
X101970315Y-73142539D01*
X101917511Y-73188294D01*
X101866000Y-73199500D01*
X95196669Y-73199500D01*
X95196653Y-73199499D01*
X95189057Y-73199499D01*
X95030943Y-73199499D01*
X94923587Y-73228265D01*
X94878210Y-73240424D01*
X94878209Y-73240425D01*
X94828096Y-73269359D01*
X94828095Y-73269360D01*
X94784689Y-73294420D01*
X94741285Y-73319479D01*
X94741282Y-73319481D01*
X94629478Y-73431286D01*
X79422923Y-88637840D01*
X79361600Y-88671325D01*
X79296924Y-88668090D01*
X79114787Y-88608910D01*
X78948903Y-88582636D01*
X78865962Y-88569500D01*
X78614038Y-88569500D01*
X78489626Y-88589205D01*
X78365214Y-88608910D01*
X78125616Y-88686760D01*
X77901151Y-88801132D01*
X77697350Y-88949201D01*
X77697345Y-88949205D01*
X77519205Y-89127345D01*
X77519201Y-89127350D01*
X77371132Y-89331151D01*
X77256760Y-89555616D01*
X77178910Y-89795214D01*
X77139500Y-90044038D01*
X77139500Y-90295961D01*
X77178910Y-90544785D01*
X77256760Y-90784383D01*
X77311763Y-90892331D01*
X77370468Y-91007546D01*
X77371132Y-91008848D01*
X77519201Y-91212649D01*
X77519205Y-91212654D01*
X77697345Y-91390794D01*
X77697350Y-91390798D01*
X77858210Y-91507669D01*
X77901155Y-91538870D01*
X78071795Y-91625815D01*
X78122591Y-91673789D01*
X78139500Y-91736300D01*
X78139500Y-93715461D01*
X78119815Y-93782500D01*
X78067011Y-93828255D01*
X77997853Y-93838199D01*
X77934297Y-93809174D01*
X77917125Y-93790949D01*
X77895644Y-93762955D01*
X77687047Y-93554358D01*
X77687040Y-93554352D01*
X77452993Y-93374761D01*
X77197510Y-93227258D01*
X77197500Y-93227254D01*
X76924961Y-93114364D01*
X76924954Y-93114362D01*
X76924952Y-93114361D01*
X76639993Y-93038007D01*
X76591113Y-93031571D01*
X76347513Y-92999500D01*
X76347506Y-92999500D01*
X76052494Y-92999500D01*
X76052486Y-92999500D01*
X75774085Y-93036153D01*
X75760007Y-93038007D01*
X75523539Y-93101368D01*
X75475048Y-93114361D01*
X75475038Y-93114364D01*
X75202499Y-93227254D01*
X75202489Y-93227258D01*
X74947006Y-93374761D01*
X74712959Y-93554352D01*
X74712952Y-93554358D01*
X74504358Y-93762952D01*
X74504352Y-93762959D01*
X74324761Y-93997006D01*
X74177258Y-94252489D01*
X74177254Y-94252499D01*
X74064364Y-94525038D01*
X74064361Y-94525048D01*
X73994956Y-94784075D01*
X73988008Y-94810004D01*
X73988006Y-94810015D01*
X73949500Y-95102486D01*
X73949500Y-95397513D01*
X73965913Y-95522174D01*
X73988007Y-95689993D01*
X74064361Y-95974951D01*
X74064364Y-95974961D01*
X74177254Y-96247500D01*
X74177258Y-96247510D01*
X74324761Y-96502993D01*
X74504352Y-96737040D01*
X74504358Y-96737047D01*
X74712952Y-96945641D01*
X74712959Y-96945647D01*
X74947006Y-97125238D01*
X75202489Y-97272741D01*
X75202490Y-97272741D01*
X75202493Y-97272743D01*
X75475048Y-97385639D01*
X75760007Y-97461993D01*
X76052494Y-97500500D01*
X76052501Y-97500500D01*
X76347499Y-97500500D01*
X76347506Y-97500500D01*
X76639993Y-97461993D01*
X76924952Y-97385639D01*
X77197507Y-97272743D01*
X77452994Y-97125238D01*
X77687042Y-96945646D01*
X77895646Y-96737042D01*
X77917124Y-96709052D01*
X77973552Y-96667849D01*
X78043298Y-96663694D01*
X78104218Y-96697906D01*
X78136971Y-96759624D01*
X78139500Y-96784538D01*
X78139500Y-107653699D01*
X78119815Y-107720738D01*
X78071795Y-107764184D01*
X77901151Y-107851132D01*
X77697350Y-107999201D01*
X77697345Y-107999205D01*
X77519205Y-108177345D01*
X77519201Y-108177350D01*
X77371132Y-108381151D01*
X77256760Y-108605616D01*
X77178910Y-108845214D01*
X77139500Y-109094038D01*
X77139500Y-109345961D01*
X77178910Y-109594785D01*
X77256760Y-109834383D01*
X77371132Y-110058848D01*
X77519201Y-110262649D01*
X77519205Y-110262654D01*
X77697345Y-110440794D01*
X77697350Y-110440798D01*
X77838397Y-110543274D01*
X77901155Y-110588870D01*
X78071795Y-110675815D01*
X78122591Y-110723789D01*
X78139500Y-110786300D01*
X78139500Y-112765461D01*
X78119815Y-112832500D01*
X78067011Y-112878255D01*
X77997853Y-112888199D01*
X77934297Y-112859174D01*
X77917125Y-112840949D01*
X77895644Y-112812955D01*
X77687047Y-112604358D01*
X77687040Y-112604352D01*
X77452993Y-112424761D01*
X77197510Y-112277258D01*
X77197500Y-112277254D01*
X76924961Y-112164364D01*
X76924954Y-112164362D01*
X76924952Y-112164361D01*
X76639993Y-112088007D01*
X76591113Y-112081571D01*
X76347513Y-112049500D01*
X76347506Y-112049500D01*
X76052494Y-112049500D01*
X76052486Y-112049500D01*
X75774085Y-112086153D01*
X75760007Y-112088007D01*
X75585428Y-112134785D01*
X75475048Y-112164361D01*
X75475038Y-112164364D01*
X75202499Y-112277254D01*
X75202489Y-112277258D01*
X74947006Y-112424761D01*
X74712959Y-112604352D01*
X74712952Y-112604358D01*
X74504358Y-112812952D01*
X74504352Y-112812959D01*
X74324761Y-113047006D01*
X74177258Y-113302489D01*
X74177254Y-113302499D01*
X74064364Y-113575038D01*
X74064361Y-113575048D01*
X73988008Y-113860004D01*
X73988006Y-113860015D01*
X73949500Y-114152486D01*
X73949500Y-114447513D01*
X73973985Y-114633489D01*
X73988007Y-114739993D01*
X74064361Y-115024951D01*
X74064364Y-115024961D01*
X74177254Y-115297500D01*
X74177258Y-115297510D01*
X74324761Y-115552993D01*
X74504352Y-115787040D01*
X74504358Y-115787047D01*
X74712952Y-115995641D01*
X74712959Y-115995647D01*
X74947006Y-116175238D01*
X75202489Y-116322741D01*
X75202490Y-116322741D01*
X75202493Y-116322743D01*
X75475048Y-116435639D01*
X75760007Y-116511993D01*
X76052494Y-116550500D01*
X76052501Y-116550500D01*
X76347499Y-116550500D01*
X76347506Y-116550500D01*
X76639993Y-116511993D01*
X76924952Y-116435639D01*
X77197507Y-116322743D01*
X77452994Y-116175238D01*
X77687042Y-115995646D01*
X77895646Y-115787042D01*
X77917124Y-115759052D01*
X77973552Y-115717849D01*
X78043298Y-115713694D01*
X78104218Y-115747906D01*
X78136971Y-115809624D01*
X78139500Y-115834538D01*
X78139500Y-126703699D01*
X78119815Y-126770738D01*
X78071795Y-126814184D01*
X77901151Y-126901132D01*
X77697350Y-127049201D01*
X77697345Y-127049205D01*
X77519205Y-127227345D01*
X77519201Y-127227350D01*
X77371132Y-127431151D01*
X77256760Y-127655616D01*
X77178910Y-127895214D01*
X77139500Y-128144038D01*
X77139500Y-128395961D01*
X77178910Y-128644785D01*
X77256760Y-128884383D01*
X77371132Y-129108848D01*
X77519201Y-129312649D01*
X77519205Y-129312654D01*
X77697345Y-129490794D01*
X77697350Y-129490798D01*
X77838397Y-129593274D01*
X77901155Y-129638870D01*
X78043121Y-129711205D01*
X78125616Y-129753239D01*
X78125618Y-129753239D01*
X78125621Y-129753241D01*
X78365215Y-129831090D01*
X78614038Y-129870500D01*
X78614039Y-129870500D01*
X78865961Y-129870500D01*
X78865962Y-129870500D01*
X79114785Y-129831090D01*
X79354379Y-129753241D01*
X79578845Y-129638870D01*
X79782656Y-129490793D01*
X79960793Y-129312656D01*
X80108870Y-129108845D01*
X80223241Y-128884379D01*
X80301090Y-128644785D01*
X80340500Y-128395962D01*
X80340500Y-128144038D01*
X80301090Y-127895215D01*
X80223241Y-127655621D01*
X80223239Y-127655618D01*
X80223239Y-127655616D01*
X80181747Y-127574184D01*
X80108870Y-127431155D01*
X80089952Y-127405117D01*
X79960798Y-127227350D01*
X79960794Y-127227345D01*
X79782654Y-127049205D01*
X79782649Y-127049201D01*
X79578848Y-126901132D01*
X79578847Y-126901131D01*
X79578845Y-126901130D01*
X79509186Y-126865637D01*
X79408205Y-126814184D01*
X79357409Y-126766209D01*
X79340500Y-126703699D01*
X79340500Y-118938733D01*
X84424500Y-118938733D01*
X84424500Y-120138751D01*
X84424501Y-120138768D01*
X84435000Y-120241546D01*
X84435001Y-120241549D01*
X84490185Y-120408081D01*
X84490186Y-120408084D01*
X84582288Y-120557406D01*
X84706344Y-120681462D01*
X84855666Y-120773564D01*
X85022203Y-120828749D01*
X85124991Y-120839250D01*
X86325008Y-120839249D01*
X86427797Y-120828749D01*
X86594334Y-120773564D01*
X86743656Y-120681462D01*
X86867712Y-120557406D01*
X86959814Y-120408084D01*
X87014999Y-120241547D01*
X87025500Y-120138759D01*
X87025499Y-118938742D01*
X87014999Y-118835953D01*
X86959814Y-118669416D01*
X86867712Y-118520094D01*
X86743656Y-118396038D01*
X86594334Y-118303936D01*
X86427797Y-118248751D01*
X86427795Y-118248750D01*
X86325010Y-118238250D01*
X85124998Y-118238250D01*
X85124981Y-118238251D01*
X85022203Y-118248750D01*
X85022200Y-118248751D01*
X84855668Y-118303935D01*
X84855663Y-118303937D01*
X84706342Y-118396039D01*
X84582289Y-118520092D01*
X84490187Y-118669413D01*
X84490186Y-118669416D01*
X84435001Y-118835953D01*
X84435001Y-118835954D01*
X84435000Y-118835954D01*
X84424500Y-118938733D01*
X79340500Y-118938733D01*
X79340500Y-114213389D01*
X80179500Y-114213389D01*
X80179500Y-114386610D01*
X80194108Y-114478846D01*
X80206598Y-114557701D01*
X80260127Y-114722445D01*
X80338768Y-114876788D01*
X80440586Y-115016928D01*
X80563072Y-115139414D01*
X80703212Y-115241232D01*
X80857555Y-115319873D01*
X81022299Y-115373402D01*
X81193389Y-115400500D01*
X81193390Y-115400500D01*
X81366610Y-115400500D01*
X81366611Y-115400500D01*
X81537701Y-115373402D01*
X81702445Y-115319873D01*
X81856788Y-115241232D01*
X81996928Y-115139414D01*
X82119414Y-115016928D01*
X82221232Y-114876788D01*
X82299873Y-114722445D01*
X82353402Y-114557701D01*
X82380500Y-114386611D01*
X82380500Y-114213389D01*
X89069500Y-114213389D01*
X89069500Y-114386610D01*
X89084108Y-114478846D01*
X89096598Y-114557701D01*
X89150127Y-114722445D01*
X89228768Y-114876788D01*
X89330586Y-115016928D01*
X89453072Y-115139414D01*
X89593212Y-115241232D01*
X89747555Y-115319873D01*
X89912299Y-115373402D01*
X90083389Y-115400500D01*
X90083390Y-115400500D01*
X90256610Y-115400500D01*
X90256611Y-115400500D01*
X90427701Y-115373402D01*
X90592445Y-115319873D01*
X90746788Y-115241232D01*
X90886928Y-115139414D01*
X91009414Y-115016928D01*
X91111232Y-114876788D01*
X91189873Y-114722445D01*
X91243402Y-114557701D01*
X91270500Y-114386611D01*
X91270500Y-114213389D01*
X91243402Y-114042299D01*
X91189873Y-113877555D01*
X91111232Y-113723212D01*
X91009414Y-113583072D01*
X90957482Y-113531140D01*
X90923997Y-113469817D01*
X90928981Y-113400125D01*
X90970853Y-113344192D01*
X91036317Y-113319775D01*
X91064561Y-113320986D01*
X91065212Y-113321089D01*
X91065215Y-113321090D01*
X91314038Y-113360500D01*
X91314039Y-113360500D01*
X91565961Y-113360500D01*
X91565962Y-113360500D01*
X91814785Y-113321090D01*
X92054379Y-113243241D01*
X92278845Y-113128870D01*
X92482656Y-112980793D01*
X92660793Y-112802656D01*
X92808870Y-112598845D01*
X92923241Y-112374379D01*
X93001090Y-112134785D01*
X93040500Y-111885962D01*
X93040500Y-111634038D01*
X93001090Y-111385215D01*
X92923241Y-111145621D01*
X92923239Y-111145618D01*
X92923239Y-111145616D01*
X92881747Y-111064184D01*
X92808870Y-110921155D01*
X92725542Y-110806463D01*
X92660798Y-110717350D01*
X92660794Y-110717345D01*
X92482654Y-110539205D01*
X92482649Y-110539201D01*
X92278848Y-110391132D01*
X92278847Y-110391131D01*
X92278845Y-110391130D01*
X92208747Y-110355413D01*
X92054383Y-110276760D01*
X91814785Y-110198910D01*
X91565962Y-110159500D01*
X91314038Y-110159500D01*
X91224137Y-110173739D01*
X91065214Y-110198910D01*
X90825616Y-110276760D01*
X90601151Y-110391132D01*
X90397350Y-110539201D01*
X90397345Y-110539205D01*
X90219205Y-110717345D01*
X90219201Y-110717350D01*
X90071132Y-110921151D01*
X89956760Y-111145616D01*
X89878910Y-111385214D01*
X89839500Y-111634038D01*
X89839500Y-111885961D01*
X89878910Y-112134785D01*
X89956760Y-112374383D01*
X90071132Y-112598848D01*
X90219201Y-112802649D01*
X90219205Y-112802654D01*
X90219207Y-112802656D01*
X90397344Y-112980793D01*
X90397345Y-112980794D01*
X90397344Y-112980794D01*
X90403661Y-112985383D01*
X90446327Y-113040714D01*
X90452305Y-113110327D01*
X90419699Y-113172122D01*
X90358860Y-113206479D01*
X90311378Y-113208174D01*
X90256611Y-113199500D01*
X90083389Y-113199500D01*
X90043728Y-113205781D01*
X89912302Y-113226597D01*
X89747552Y-113280128D01*
X89593211Y-113358768D01*
X89536289Y-113400125D01*
X89453072Y-113460586D01*
X89453070Y-113460588D01*
X89453069Y-113460588D01*
X89330588Y-113583069D01*
X89330588Y-113583070D01*
X89330586Y-113583072D01*
X89286859Y-113643256D01*
X89228768Y-113723211D01*
X89150128Y-113877552D01*
X89096597Y-114042302D01*
X89069500Y-114213389D01*
X82380500Y-114213389D01*
X82353402Y-114042299D01*
X82299873Y-113877555D01*
X82221232Y-113723212D01*
X82119414Y-113583072D01*
X81996928Y-113460586D01*
X81856788Y-113358768D01*
X81702445Y-113280127D01*
X81537701Y-113226598D01*
X81537699Y-113226597D01*
X81537698Y-113226597D01*
X81406271Y-113205781D01*
X81366611Y-113199500D01*
X81193389Y-113199500D01*
X81153728Y-113205781D01*
X81022302Y-113226597D01*
X80857552Y-113280128D01*
X80703211Y-113358768D01*
X80646289Y-113400125D01*
X80563072Y-113460586D01*
X80563070Y-113460588D01*
X80563069Y-113460588D01*
X80440588Y-113583069D01*
X80440588Y-113583070D01*
X80440586Y-113583072D01*
X80396859Y-113643256D01*
X80338768Y-113723211D01*
X80260128Y-113877552D01*
X80206597Y-114042302D01*
X80179500Y-114213389D01*
X79340500Y-114213389D01*
X79340500Y-111816398D01*
X84424500Y-111816398D01*
X84424500Y-112021101D01*
X84456522Y-112223284D01*
X84519781Y-112417973D01*
X84583691Y-112543403D01*
X84611941Y-112598845D01*
X84612715Y-112600363D01*
X84733028Y-112765963D01*
X84877786Y-112910721D01*
X84974241Y-112980798D01*
X85043390Y-113031037D01*
X85159607Y-113090253D01*
X85225776Y-113123968D01*
X85225778Y-113123968D01*
X85225781Y-113123970D01*
X85330137Y-113157877D01*
X85420465Y-113187227D01*
X85497953Y-113199500D01*
X85622648Y-113219250D01*
X85622649Y-113219250D01*
X85827351Y-113219250D01*
X85827352Y-113219250D01*
X86029534Y-113187227D01*
X86224219Y-113123970D01*
X86406610Y-113031037D01*
X86499590Y-112963482D01*
X86572213Y-112910721D01*
X86572215Y-112910718D01*
X86572219Y-112910716D01*
X86716966Y-112765969D01*
X86716968Y-112765965D01*
X86716971Y-112765963D01*
X86834382Y-112604358D01*
X86837287Y-112600360D01*
X86930220Y-112417969D01*
X86993477Y-112223284D01*
X87025500Y-112021102D01*
X87025500Y-111816398D01*
X86993477Y-111614216D01*
X86981181Y-111576374D01*
X86930218Y-111419526D01*
X86896503Y-111353357D01*
X86837287Y-111237140D01*
X86829556Y-111226499D01*
X86716971Y-111071536D01*
X86572213Y-110926778D01*
X86406613Y-110806465D01*
X86406612Y-110806464D01*
X86406610Y-110806463D01*
X86349653Y-110777441D01*
X86224223Y-110713531D01*
X86029534Y-110650272D01*
X85854995Y-110622628D01*
X85827352Y-110618250D01*
X85622648Y-110618250D01*
X85598329Y-110622101D01*
X85420465Y-110650272D01*
X85225776Y-110713531D01*
X85043386Y-110806465D01*
X84877786Y-110926778D01*
X84733028Y-111071536D01*
X84612715Y-111237136D01*
X84519781Y-111419526D01*
X84456522Y-111614215D01*
X84424500Y-111816398D01*
X79340500Y-111816398D01*
X79340500Y-110786300D01*
X79360185Y-110719261D01*
X79408204Y-110675815D01*
X79578845Y-110588870D01*
X79782656Y-110440793D01*
X79960793Y-110262656D01*
X80108870Y-110058845D01*
X80223241Y-109834379D01*
X80301090Y-109594785D01*
X80340500Y-109345962D01*
X80340500Y-109094038D01*
X80301090Y-108845215D01*
X80223241Y-108605621D01*
X80223239Y-108605618D01*
X80223239Y-108605616D01*
X80127561Y-108417839D01*
X80108870Y-108381155D01*
X80036037Y-108280909D01*
X79960798Y-108177350D01*
X79960794Y-108177345D01*
X79782654Y-107999205D01*
X79782649Y-107999201D01*
X79578848Y-107851132D01*
X79578847Y-107851131D01*
X79578845Y-107851130D01*
X79509186Y-107815637D01*
X79408205Y-107764184D01*
X79357409Y-107716209D01*
X79340500Y-107653699D01*
X79340500Y-99888733D01*
X84424500Y-99888733D01*
X84424500Y-101088751D01*
X84424501Y-101088768D01*
X84435000Y-101191546D01*
X84435001Y-101191549D01*
X84490185Y-101358081D01*
X84490186Y-101358084D01*
X84582288Y-101507406D01*
X84706344Y-101631462D01*
X84855666Y-101723564D01*
X85022203Y-101778749D01*
X85124991Y-101789250D01*
X86325008Y-101789249D01*
X86427797Y-101778749D01*
X86594334Y-101723564D01*
X86743656Y-101631462D01*
X86867712Y-101507406D01*
X86959814Y-101358084D01*
X87014999Y-101191547D01*
X87025500Y-101088759D01*
X87025499Y-99888742D01*
X87014999Y-99785953D01*
X86959814Y-99619416D01*
X86867712Y-99470094D01*
X86743656Y-99346038D01*
X86594334Y-99253936D01*
X86427797Y-99198751D01*
X86427795Y-99198750D01*
X86325010Y-99188250D01*
X85124998Y-99188250D01*
X85124981Y-99188251D01*
X85022203Y-99198750D01*
X85022200Y-99198751D01*
X84855668Y-99253935D01*
X84855663Y-99253937D01*
X84706342Y-99346039D01*
X84582289Y-99470092D01*
X84490187Y-99619413D01*
X84490186Y-99619416D01*
X84435001Y-99785953D01*
X84435001Y-99785954D01*
X84435000Y-99785954D01*
X84424500Y-99888733D01*
X79340500Y-99888733D01*
X79340500Y-95163389D01*
X80179500Y-95163389D01*
X80179500Y-95336611D01*
X80206598Y-95507701D01*
X80260127Y-95672445D01*
X80338768Y-95826788D01*
X80440586Y-95966928D01*
X80563072Y-96089414D01*
X80703212Y-96191232D01*
X80857555Y-96269873D01*
X81022299Y-96323402D01*
X81193389Y-96350500D01*
X81193390Y-96350500D01*
X81366610Y-96350500D01*
X81366611Y-96350500D01*
X81537701Y-96323402D01*
X81702445Y-96269873D01*
X81856788Y-96191232D01*
X81996928Y-96089414D01*
X82119414Y-95966928D01*
X82221232Y-95826788D01*
X82299873Y-95672445D01*
X82353402Y-95507701D01*
X82380500Y-95336611D01*
X82380500Y-95163389D01*
X89069500Y-95163389D01*
X89069500Y-95336611D01*
X89096598Y-95507701D01*
X89150127Y-95672445D01*
X89228768Y-95826788D01*
X89330586Y-95966928D01*
X89453072Y-96089414D01*
X89593212Y-96191232D01*
X89747555Y-96269873D01*
X89912299Y-96323402D01*
X90083389Y-96350500D01*
X90083390Y-96350500D01*
X90256610Y-96350500D01*
X90256611Y-96350500D01*
X90427701Y-96323402D01*
X90592445Y-96269873D01*
X90746788Y-96191232D01*
X90886928Y-96089414D01*
X91009414Y-95966928D01*
X91111232Y-95826788D01*
X91189873Y-95672445D01*
X91243402Y-95507701D01*
X91270500Y-95336611D01*
X91270500Y-95163389D01*
X91243402Y-94992299D01*
X91189873Y-94827555D01*
X91111232Y-94673212D01*
X91009414Y-94533072D01*
X90957482Y-94481140D01*
X90923997Y-94419817D01*
X90928981Y-94350125D01*
X90970853Y-94294192D01*
X91036317Y-94269775D01*
X91064561Y-94270986D01*
X91065212Y-94271089D01*
X91065215Y-94271090D01*
X91314038Y-94310500D01*
X91314039Y-94310500D01*
X91565961Y-94310500D01*
X91565962Y-94310500D01*
X91814785Y-94271090D01*
X92054379Y-94193241D01*
X92278845Y-94078870D01*
X92482656Y-93930793D01*
X92660793Y-93752656D01*
X92808870Y-93548845D01*
X92923241Y-93324379D01*
X93001090Y-93084785D01*
X93040500Y-92835962D01*
X93040500Y-92584038D01*
X93001090Y-92335215D01*
X92923241Y-92095621D01*
X92923239Y-92095618D01*
X92923239Y-92095616D01*
X92855956Y-91963567D01*
X92808870Y-91871155D01*
X92737186Y-91772490D01*
X92660798Y-91667350D01*
X92660794Y-91667345D01*
X92482654Y-91489205D01*
X92482649Y-91489201D01*
X92278848Y-91341132D01*
X92278847Y-91341131D01*
X92278845Y-91341130D01*
X92208747Y-91305413D01*
X92054383Y-91226760D01*
X91814785Y-91148910D01*
X91756617Y-91139697D01*
X91565962Y-91109500D01*
X91314038Y-91109500D01*
X91189626Y-91129205D01*
X91065214Y-91148910D01*
X90825616Y-91226760D01*
X90601151Y-91341132D01*
X90397350Y-91489201D01*
X90397345Y-91489205D01*
X90219205Y-91667345D01*
X90219201Y-91667350D01*
X90071132Y-91871151D01*
X89956760Y-92095616D01*
X89878910Y-92335214D01*
X89839500Y-92584038D01*
X89839500Y-92835961D01*
X89878910Y-93084785D01*
X89956760Y-93324383D01*
X90071132Y-93548848D01*
X90219201Y-93752649D01*
X90219205Y-93752654D01*
X90219207Y-93752656D01*
X90397344Y-93930793D01*
X90397345Y-93930794D01*
X90397344Y-93930794D01*
X90403661Y-93935383D01*
X90446327Y-93990714D01*
X90452305Y-94060327D01*
X90419699Y-94122122D01*
X90358860Y-94156479D01*
X90311378Y-94158174D01*
X90256611Y-94149500D01*
X90083389Y-94149500D01*
X90043728Y-94155781D01*
X89912302Y-94176597D01*
X89747552Y-94230128D01*
X89593211Y-94308768D01*
X89536289Y-94350125D01*
X89453072Y-94410586D01*
X89453070Y-94410588D01*
X89453069Y-94410588D01*
X89330588Y-94533069D01*
X89330588Y-94533070D01*
X89330586Y-94533072D01*
X89286859Y-94593256D01*
X89228768Y-94673211D01*
X89150128Y-94827552D01*
X89096597Y-94992302D01*
X89086349Y-95057007D01*
X89069500Y-95163389D01*
X82380500Y-95163389D01*
X82353402Y-94992299D01*
X82299873Y-94827555D01*
X82221232Y-94673212D01*
X82119414Y-94533072D01*
X81996928Y-94410586D01*
X81856788Y-94308768D01*
X81702445Y-94230127D01*
X81537701Y-94176598D01*
X81537699Y-94176597D01*
X81537698Y-94176597D01*
X81406271Y-94155781D01*
X81366611Y-94149500D01*
X81193389Y-94149500D01*
X81153728Y-94155781D01*
X81022302Y-94176597D01*
X80857552Y-94230128D01*
X80703211Y-94308768D01*
X80646289Y-94350125D01*
X80563072Y-94410586D01*
X80563070Y-94410588D01*
X80563069Y-94410588D01*
X80440588Y-94533069D01*
X80440588Y-94533070D01*
X80440586Y-94533072D01*
X80396859Y-94593256D01*
X80338768Y-94673211D01*
X80260128Y-94827552D01*
X80206597Y-94992302D01*
X80196349Y-95057007D01*
X80179500Y-95163389D01*
X79340500Y-95163389D01*
X79340500Y-92766398D01*
X84424500Y-92766398D01*
X84424500Y-92971101D01*
X84456522Y-93173284D01*
X84519781Y-93367973D01*
X84583691Y-93493403D01*
X84611941Y-93548845D01*
X84612715Y-93550363D01*
X84733028Y-93715963D01*
X84877786Y-93860721D01*
X84974241Y-93930798D01*
X85043390Y-93981037D01*
X85146044Y-94033342D01*
X85225776Y-94073968D01*
X85225778Y-94073968D01*
X85225781Y-94073970D01*
X85329108Y-94107543D01*
X85420465Y-94137227D01*
X85497953Y-94149500D01*
X85622648Y-94169250D01*
X85622649Y-94169250D01*
X85827351Y-94169250D01*
X85827352Y-94169250D01*
X86029534Y-94137227D01*
X86224219Y-94073970D01*
X86406610Y-93981037D01*
X86525700Y-93894514D01*
X86572213Y-93860721D01*
X86572215Y-93860718D01*
X86572219Y-93860716D01*
X86716966Y-93715969D01*
X86716968Y-93715965D01*
X86716971Y-93715963D01*
X86834382Y-93554358D01*
X86837287Y-93550360D01*
X86930220Y-93367969D01*
X86993477Y-93173284D01*
X87025500Y-92971102D01*
X87025500Y-92766398D01*
X86993477Y-92564216D01*
X86930220Y-92369531D01*
X86930218Y-92369528D01*
X86930218Y-92369526D01*
X86889401Y-92289420D01*
X86837287Y-92187140D01*
X86806994Y-92145445D01*
X86716971Y-92021536D01*
X86572213Y-91876778D01*
X86406613Y-91756465D01*
X86406612Y-91756464D01*
X86406610Y-91756463D01*
X86304327Y-91704347D01*
X86224223Y-91663531D01*
X86029534Y-91600272D01*
X85854995Y-91572628D01*
X85827352Y-91568250D01*
X85622648Y-91568250D01*
X85598329Y-91572101D01*
X85420465Y-91600272D01*
X85225776Y-91663531D01*
X85043386Y-91756465D01*
X84877786Y-91876778D01*
X84733028Y-92021536D01*
X84612715Y-92187136D01*
X84519781Y-92369526D01*
X84456522Y-92564215D01*
X84424500Y-92766398D01*
X79340500Y-92766398D01*
X79340500Y-91736300D01*
X79360185Y-91669261D01*
X79408204Y-91625815D01*
X79578845Y-91538870D01*
X79782656Y-91390793D01*
X79960793Y-91212656D01*
X80108870Y-91008845D01*
X80223241Y-90784379D01*
X80301090Y-90544785D01*
X80340500Y-90295962D01*
X80340500Y-90044038D01*
X80301090Y-89795215D01*
X80301089Y-89795211D01*
X80301089Y-89795210D01*
X80241909Y-89613073D01*
X80239914Y-89543232D01*
X80272157Y-89487076D01*
X95322416Y-74436819D01*
X95383739Y-74403334D01*
X95410097Y-74400500D01*
X101958740Y-74400500D01*
X102025779Y-74420185D01*
X102071534Y-74472989D01*
X102081478Y-74542147D01*
X102076671Y-74562818D01*
X102022753Y-74728759D01*
X102007319Y-74826206D01*
X101989500Y-74938713D01*
X101989500Y-75151287D01*
X102022754Y-75361243D01*
X102027430Y-75375635D01*
X102088444Y-75563414D01*
X102184951Y-75752820D01*
X102309890Y-75924786D01*
X102460213Y-76075109D01*
X102632182Y-76200050D01*
X102640946Y-76204516D01*
X102691742Y-76252491D01*
X102708536Y-76320312D01*
X102685998Y-76386447D01*
X102640946Y-76425484D01*
X102632182Y-76429949D01*
X102460213Y-76554890D01*
X102309890Y-76705213D01*
X102184951Y-76877179D01*
X102088444Y-77066585D01*
X102022753Y-77268760D01*
X102013220Y-77328952D01*
X101989500Y-77478713D01*
X101989500Y-77691287D01*
X102022754Y-77901243D01*
X102066060Y-78034526D01*
X102088444Y-78103414D01*
X102184951Y-78292820D01*
X102309890Y-78464786D01*
X102460213Y-78615109D01*
X102632182Y-78740050D01*
X102640946Y-78744516D01*
X102691742Y-78792491D01*
X102708536Y-78860312D01*
X102685998Y-78926447D01*
X102640946Y-78965484D01*
X102632182Y-78969949D01*
X102460213Y-79094890D01*
X102309890Y-79245213D01*
X102184951Y-79417179D01*
X102088444Y-79606585D01*
X102022753Y-79808760D01*
X101989500Y-80018713D01*
X101989500Y-80231286D01*
X102022753Y-80441239D01*
X102088444Y-80643414D01*
X102184951Y-80832820D01*
X102309890Y-81004786D01*
X102460213Y-81155109D01*
X102632179Y-81280048D01*
X102632181Y-81280049D01*
X102632184Y-81280051D01*
X102821588Y-81376557D01*
X103023757Y-81442246D01*
X103233713Y-81475500D01*
X103233714Y-81475500D01*
X103446286Y-81475500D01*
X103446287Y-81475500D01*
X103656243Y-81442246D01*
X103858412Y-81376557D01*
X104047816Y-81280051D01*
X104069789Y-81264086D01*
X104219786Y-81155109D01*
X104219788Y-81155106D01*
X104219792Y-81155104D01*
X104370104Y-81004792D01*
X104370106Y-81004788D01*
X104370109Y-81004786D01*
X104495048Y-80832820D01*
X104495047Y-80832820D01*
X104495051Y-80832816D01*
X104591557Y-80643412D01*
X104657246Y-80441243D01*
X104690500Y-80231287D01*
X104690500Y-80018713D01*
X104657246Y-79808757D01*
X104591557Y-79606588D01*
X104495051Y-79417184D01*
X104495049Y-79417181D01*
X104495048Y-79417179D01*
X104370109Y-79245213D01*
X104219786Y-79094890D01*
X104047820Y-78969951D01*
X104043341Y-78967669D01*
X104039054Y-78965485D01*
X103988259Y-78917512D01*
X103971463Y-78849692D01*
X103993999Y-78783556D01*
X104039054Y-78744515D01*
X104047816Y-78740051D01*
X104069789Y-78724086D01*
X104219786Y-78615109D01*
X104219788Y-78615106D01*
X104219792Y-78615104D01*
X104370104Y-78464792D01*
X104370106Y-78464788D01*
X104370109Y-78464786D01*
X104495048Y-78292820D01*
X104495047Y-78292820D01*
X104495051Y-78292816D01*
X104591557Y-78103412D01*
X104657246Y-77901243D01*
X104690500Y-77691287D01*
X104690500Y-77478713D01*
X104657246Y-77268757D01*
X104591557Y-77066588D01*
X104495051Y-76877184D01*
X104495049Y-76877181D01*
X104495048Y-76877179D01*
X104370109Y-76705213D01*
X104219786Y-76554890D01*
X104047820Y-76429951D01*
X104047115Y-76429591D01*
X104039054Y-76425485D01*
X103988259Y-76377512D01*
X103971463Y-76309692D01*
X103993999Y-76243556D01*
X104039054Y-76204515D01*
X104047816Y-76200051D01*
X104069789Y-76184086D01*
X104219786Y-76075109D01*
X104219788Y-76075106D01*
X104219792Y-76075104D01*
X104370104Y-75924792D01*
X104370106Y-75924788D01*
X104370109Y-75924786D01*
X104495048Y-75752820D01*
X104495047Y-75752820D01*
X104495051Y-75752816D01*
X104591557Y-75563412D01*
X104657246Y-75361243D01*
X104690500Y-75151287D01*
X104690500Y-74938713D01*
X104657246Y-74728757D01*
X104603329Y-74562818D01*
X104601334Y-74492977D01*
X104637414Y-74433144D01*
X104700115Y-74402316D01*
X104721260Y-74400500D01*
X125435750Y-74400500D01*
X125502789Y-74420185D01*
X125548544Y-74472989D01*
X125559750Y-74524500D01*
X125559750Y-75755541D01*
X125562662Y-75792546D01*
X125562663Y-75792549D01*
X125564219Y-75797904D01*
X125564020Y-75867774D01*
X125526078Y-75926444D01*
X125462440Y-75955288D01*
X125445143Y-75956500D01*
X111323942Y-75956500D01*
X111171214Y-75997423D01*
X111123451Y-76025000D01*
X111123450Y-76025000D01*
X111034287Y-76076477D01*
X111034282Y-76076481D01*
X110922478Y-76188286D01*
X98472923Y-88637840D01*
X98411600Y-88671325D01*
X98346924Y-88668090D01*
X98164787Y-88608910D01*
X97998903Y-88582636D01*
X97915962Y-88569500D01*
X97664038Y-88569500D01*
X97539626Y-88589205D01*
X97415214Y-88608910D01*
X97175616Y-88686760D01*
X96951151Y-88801132D01*
X96747350Y-88949201D01*
X96747345Y-88949205D01*
X96569205Y-89127345D01*
X96569201Y-89127350D01*
X96421132Y-89331151D01*
X96306760Y-89555616D01*
X96228910Y-89795214D01*
X96189500Y-90044038D01*
X96189500Y-90295961D01*
X96228910Y-90544785D01*
X96306760Y-90784383D01*
X96361763Y-90892331D01*
X96420468Y-91007546D01*
X96421132Y-91008848D01*
X96569201Y-91212649D01*
X96569205Y-91212654D01*
X96747345Y-91390794D01*
X96747350Y-91390798D01*
X96908210Y-91507669D01*
X96951155Y-91538870D01*
X97121795Y-91625815D01*
X97172591Y-91673789D01*
X97189500Y-91736300D01*
X97189500Y-93715461D01*
X97169815Y-93782500D01*
X97117011Y-93828255D01*
X97047853Y-93838199D01*
X96984297Y-93809174D01*
X96967125Y-93790949D01*
X96945644Y-93762955D01*
X96737047Y-93554358D01*
X96737040Y-93554352D01*
X96502993Y-93374761D01*
X96247510Y-93227258D01*
X96247500Y-93227254D01*
X95974961Y-93114364D01*
X95974954Y-93114362D01*
X95974952Y-93114361D01*
X95689993Y-93038007D01*
X95641113Y-93031571D01*
X95397513Y-92999500D01*
X95397506Y-92999500D01*
X95102494Y-92999500D01*
X95102486Y-92999500D01*
X94824085Y-93036153D01*
X94810007Y-93038007D01*
X94573539Y-93101368D01*
X94525048Y-93114361D01*
X94525038Y-93114364D01*
X94252499Y-93227254D01*
X94252489Y-93227258D01*
X93997006Y-93374761D01*
X93762959Y-93554352D01*
X93762952Y-93554358D01*
X93554358Y-93762952D01*
X93554352Y-93762959D01*
X93374761Y-93997006D01*
X93227258Y-94252489D01*
X93227254Y-94252499D01*
X93114364Y-94525038D01*
X93114361Y-94525048D01*
X93044956Y-94784075D01*
X93038008Y-94810004D01*
X93038006Y-94810015D01*
X92999500Y-95102486D01*
X92999500Y-95397513D01*
X93015913Y-95522174D01*
X93038007Y-95689993D01*
X93114361Y-95974951D01*
X93114364Y-95974961D01*
X93227254Y-96247500D01*
X93227258Y-96247510D01*
X93374761Y-96502993D01*
X93554352Y-96737040D01*
X93554358Y-96737047D01*
X93762952Y-96945641D01*
X93762959Y-96945647D01*
X93997006Y-97125238D01*
X94252489Y-97272741D01*
X94252490Y-97272741D01*
X94252493Y-97272743D01*
X94525048Y-97385639D01*
X94810007Y-97461993D01*
X95102494Y-97500500D01*
X95102501Y-97500500D01*
X95397499Y-97500500D01*
X95397506Y-97500500D01*
X95689993Y-97461993D01*
X95974952Y-97385639D01*
X96247507Y-97272743D01*
X96502994Y-97125238D01*
X96737042Y-96945646D01*
X96945646Y-96737042D01*
X96967124Y-96709052D01*
X97023552Y-96667849D01*
X97093298Y-96663694D01*
X97154218Y-96697906D01*
X97186971Y-96759624D01*
X97189500Y-96784538D01*
X97189500Y-107653699D01*
X97169815Y-107720738D01*
X97121795Y-107764184D01*
X96951151Y-107851132D01*
X96747350Y-107999201D01*
X96747345Y-107999205D01*
X96569205Y-108177345D01*
X96569201Y-108177350D01*
X96421132Y-108381151D01*
X96306760Y-108605616D01*
X96228910Y-108845214D01*
X96189500Y-109094038D01*
X96189500Y-109345961D01*
X96228910Y-109594785D01*
X96306760Y-109834383D01*
X96421132Y-110058848D01*
X96569201Y-110262649D01*
X96569205Y-110262654D01*
X96747345Y-110440794D01*
X96747350Y-110440798D01*
X96888397Y-110543274D01*
X96951155Y-110588870D01*
X97121795Y-110675815D01*
X97172591Y-110723789D01*
X97189500Y-110786300D01*
X97189500Y-112765461D01*
X97169815Y-112832500D01*
X97117011Y-112878255D01*
X97047853Y-112888199D01*
X96984297Y-112859174D01*
X96967125Y-112840949D01*
X96945644Y-112812955D01*
X96737047Y-112604358D01*
X96737040Y-112604352D01*
X96502993Y-112424761D01*
X96247510Y-112277258D01*
X96247500Y-112277254D01*
X95974961Y-112164364D01*
X95974954Y-112164362D01*
X95974952Y-112164361D01*
X95689993Y-112088007D01*
X95641113Y-112081571D01*
X95397513Y-112049500D01*
X95397506Y-112049500D01*
X95102494Y-112049500D01*
X95102486Y-112049500D01*
X94824085Y-112086153D01*
X94810007Y-112088007D01*
X94635428Y-112134785D01*
X94525048Y-112164361D01*
X94525038Y-112164364D01*
X94252499Y-112277254D01*
X94252489Y-112277258D01*
X93997006Y-112424761D01*
X93762959Y-112604352D01*
X93762952Y-112604358D01*
X93554358Y-112812952D01*
X93554352Y-112812959D01*
X93374761Y-113047006D01*
X93227258Y-113302489D01*
X93227254Y-113302499D01*
X93114364Y-113575038D01*
X93114361Y-113575048D01*
X93038008Y-113860004D01*
X93038006Y-113860015D01*
X92999500Y-114152486D01*
X92999500Y-114447513D01*
X93023985Y-114633489D01*
X93038007Y-114739993D01*
X93114361Y-115024951D01*
X93114364Y-115024961D01*
X93227254Y-115297500D01*
X93227258Y-115297510D01*
X93374761Y-115552993D01*
X93554352Y-115787040D01*
X93554358Y-115787047D01*
X93762952Y-115995641D01*
X93762959Y-115995647D01*
X93997006Y-116175238D01*
X94252489Y-116322741D01*
X94252490Y-116322741D01*
X94252493Y-116322743D01*
X94525048Y-116435639D01*
X94810007Y-116511993D01*
X95102494Y-116550500D01*
X95102501Y-116550500D01*
X95397499Y-116550500D01*
X95397506Y-116550500D01*
X95689993Y-116511993D01*
X95974952Y-116435639D01*
X96247507Y-116322743D01*
X96502994Y-116175238D01*
X96737042Y-115995646D01*
X96945646Y-115787042D01*
X96967124Y-115759052D01*
X97023552Y-115717849D01*
X97093298Y-115713694D01*
X97154218Y-115747906D01*
X97186971Y-115809624D01*
X97189500Y-115834538D01*
X97189500Y-126703699D01*
X97169815Y-126770738D01*
X97121795Y-126814184D01*
X96951151Y-126901132D01*
X96747350Y-127049201D01*
X96747345Y-127049205D01*
X96569205Y-127227345D01*
X96569201Y-127227350D01*
X96421132Y-127431151D01*
X96306760Y-127655616D01*
X96228910Y-127895214D01*
X96189500Y-128144038D01*
X96189500Y-128395961D01*
X96228910Y-128644785D01*
X96306760Y-128884383D01*
X96421132Y-129108848D01*
X96569201Y-129312649D01*
X96569205Y-129312654D01*
X96747345Y-129490794D01*
X96747350Y-129490798D01*
X96888397Y-129593274D01*
X96951155Y-129638870D01*
X97093121Y-129711205D01*
X97175616Y-129753239D01*
X97175618Y-129753239D01*
X97175621Y-129753241D01*
X97415215Y-129831090D01*
X97664038Y-129870500D01*
X97664039Y-129870500D01*
X97915961Y-129870500D01*
X97915962Y-129870500D01*
X98164785Y-129831090D01*
X98404379Y-129753241D01*
X98628845Y-129638870D01*
X98832656Y-129490793D01*
X99010793Y-129312656D01*
X99158870Y-129108845D01*
X99273241Y-128884379D01*
X99351090Y-128644785D01*
X99390500Y-128395962D01*
X99390500Y-128144038D01*
X99351090Y-127895215D01*
X99273241Y-127655621D01*
X99273239Y-127655618D01*
X99273239Y-127655616D01*
X99231747Y-127574184D01*
X99158870Y-127431155D01*
X99139952Y-127405117D01*
X99010798Y-127227350D01*
X99010794Y-127227345D01*
X98832654Y-127049205D01*
X98832649Y-127049201D01*
X98628848Y-126901132D01*
X98628847Y-126901131D01*
X98628845Y-126901130D01*
X98559186Y-126865637D01*
X98458205Y-126814184D01*
X98407409Y-126766209D01*
X98390500Y-126703699D01*
X98390500Y-114213389D01*
X99229500Y-114213389D01*
X99229500Y-114386610D01*
X99244108Y-114478846D01*
X99256598Y-114557701D01*
X99310127Y-114722445D01*
X99388768Y-114876788D01*
X99490586Y-115016928D01*
X99613072Y-115139414D01*
X99753212Y-115241232D01*
X99907555Y-115319873D01*
X100072299Y-115373402D01*
X100243389Y-115400500D01*
X100243390Y-115400500D01*
X100416610Y-115400500D01*
X100416611Y-115400500D01*
X100587701Y-115373402D01*
X100752445Y-115319873D01*
X100906788Y-115241232D01*
X101046928Y-115139414D01*
X101169414Y-115016928D01*
X101271232Y-114876788D01*
X101349873Y-114722445D01*
X101403402Y-114557701D01*
X101430500Y-114386611D01*
X101430500Y-114213389D01*
X101403402Y-114042299D01*
X101349873Y-113877555D01*
X101271232Y-113723212D01*
X101169414Y-113583072D01*
X101046928Y-113460586D01*
X100906788Y-113358768D01*
X100752445Y-113280127D01*
X100587701Y-113226598D01*
X100587699Y-113226597D01*
X100587698Y-113226597D01*
X100456271Y-113205781D01*
X100416611Y-113199500D01*
X100243389Y-113199500D01*
X100203728Y-113205781D01*
X100072302Y-113226597D01*
X99907552Y-113280128D01*
X99753211Y-113358768D01*
X99696289Y-113400125D01*
X99613072Y-113460586D01*
X99613070Y-113460588D01*
X99613069Y-113460588D01*
X99490588Y-113583069D01*
X99490588Y-113583070D01*
X99490586Y-113583072D01*
X99446859Y-113643256D01*
X99388768Y-113723211D01*
X99310128Y-113877552D01*
X99256597Y-114042302D01*
X99229500Y-114213389D01*
X98390500Y-114213389D01*
X98390500Y-110786300D01*
X98410185Y-110719261D01*
X98458204Y-110675815D01*
X98628845Y-110588870D01*
X98832656Y-110440793D01*
X99010793Y-110262656D01*
X99158870Y-110058845D01*
X99273241Y-109834379D01*
X99351090Y-109594785D01*
X99390500Y-109345962D01*
X99390500Y-109094038D01*
X99351090Y-108845215D01*
X99273241Y-108605621D01*
X99273239Y-108605618D01*
X99273239Y-108605616D01*
X99177561Y-108417839D01*
X99158870Y-108381155D01*
X99086037Y-108280909D01*
X99010798Y-108177350D01*
X99010794Y-108177345D01*
X98832654Y-107999205D01*
X98832649Y-107999201D01*
X98628848Y-107851132D01*
X98628847Y-107851131D01*
X98628845Y-107851130D01*
X98559186Y-107815637D01*
X98458205Y-107764184D01*
X98407409Y-107716209D01*
X98390500Y-107653699D01*
X98390500Y-95163389D01*
X99229500Y-95163389D01*
X99229500Y-95336611D01*
X99256598Y-95507701D01*
X99310127Y-95672445D01*
X99388768Y-95826788D01*
X99490586Y-95966928D01*
X99613072Y-96089414D01*
X99753212Y-96191232D01*
X99907555Y-96269873D01*
X100072299Y-96323402D01*
X100243389Y-96350500D01*
X100243390Y-96350500D01*
X100416610Y-96350500D01*
X100416611Y-96350500D01*
X100587701Y-96323402D01*
X100752445Y-96269873D01*
X100906788Y-96191232D01*
X101046928Y-96089414D01*
X101169414Y-95966928D01*
X101271232Y-95826788D01*
X101349873Y-95672445D01*
X101403402Y-95507701D01*
X101430500Y-95336611D01*
X101430500Y-95163389D01*
X101403402Y-94992299D01*
X101349873Y-94827555D01*
X101271232Y-94673212D01*
X101169414Y-94533072D01*
X101046928Y-94410586D01*
X100906788Y-94308768D01*
X100752445Y-94230127D01*
X100587701Y-94176598D01*
X100587699Y-94176597D01*
X100587698Y-94176597D01*
X100456271Y-94155781D01*
X100416611Y-94149500D01*
X100243389Y-94149500D01*
X100203728Y-94155781D01*
X100072302Y-94176597D01*
X99907552Y-94230128D01*
X99753211Y-94308768D01*
X99696289Y-94350125D01*
X99613072Y-94410586D01*
X99613070Y-94410588D01*
X99613069Y-94410588D01*
X99490588Y-94533069D01*
X99490588Y-94533070D01*
X99490586Y-94533072D01*
X99446859Y-94593256D01*
X99388768Y-94673211D01*
X99310128Y-94827552D01*
X99256597Y-94992302D01*
X99246349Y-95057007D01*
X99229500Y-95163389D01*
X98390500Y-95163389D01*
X98390500Y-91736300D01*
X98410185Y-91669261D01*
X98458204Y-91625815D01*
X98628845Y-91538870D01*
X98832656Y-91390793D01*
X99010793Y-91212656D01*
X99158870Y-91008845D01*
X99273241Y-90784379D01*
X99351090Y-90544785D01*
X99390500Y-90295962D01*
X99390500Y-90044038D01*
X99351090Y-89795215D01*
X99351089Y-89795211D01*
X99351089Y-89795210D01*
X99291909Y-89613073D01*
X99289914Y-89543232D01*
X99322157Y-89487076D01*
X111615416Y-77193819D01*
X111676739Y-77160334D01*
X111703097Y-77157500D01*
X122493902Y-77157500D01*
X122560941Y-77177185D01*
X122606696Y-77229989D01*
X122616640Y-77299147D01*
X122587615Y-77362703D01*
X122581583Y-77369181D01*
X108569742Y-91381021D01*
X108508419Y-91414506D01*
X108438727Y-91409522D01*
X108407750Y-91392607D01*
X108405328Y-91390794D01*
X108292331Y-91306204D01*
X108292330Y-91306203D01*
X108292328Y-91306202D01*
X108157482Y-91255908D01*
X108157483Y-91255908D01*
X108097883Y-91249501D01*
X108097881Y-91249500D01*
X108097873Y-91249500D01*
X108097864Y-91249500D01*
X106002129Y-91249500D01*
X106002123Y-91249501D01*
X105942516Y-91255908D01*
X105807671Y-91306202D01*
X105807664Y-91306206D01*
X105692455Y-91392452D01*
X105692452Y-91392455D01*
X105606206Y-91507664D01*
X105606202Y-91507671D01*
X105555908Y-91642517D01*
X105549501Y-91702116D01*
X105549500Y-91702135D01*
X105549500Y-93797870D01*
X105549501Y-93797876D01*
X105555908Y-93857483D01*
X105606202Y-93992328D01*
X105606206Y-93992335D01*
X105692452Y-94107544D01*
X105692453Y-94107544D01*
X105692454Y-94107546D01*
X105732103Y-94137227D01*
X105810599Y-94195990D01*
X105852469Y-94251924D01*
X105857453Y-94321615D01*
X105836605Y-94368141D01*
X105767087Y-94463824D01*
X105659897Y-94674197D01*
X105586934Y-94898752D01*
X105550000Y-95131947D01*
X105550000Y-95368052D01*
X105586934Y-95601247D01*
X105659897Y-95825802D01*
X105767087Y-96036174D01*
X105827338Y-96119104D01*
X105827340Y-96119105D01*
X106567037Y-95379408D01*
X106584075Y-95442993D01*
X106649901Y-95557007D01*
X106742993Y-95650099D01*
X106857007Y-95715925D01*
X106920590Y-95732962D01*
X106174280Y-96479271D01*
X106165105Y-96522947D01*
X106128739Y-96564615D01*
X106072490Y-96605482D01*
X105905485Y-96772487D01*
X105905485Y-96772488D01*
X105905483Y-96772490D01*
X105896730Y-96784538D01*
X105766657Y-96963566D01*
X105659433Y-97174003D01*
X105586446Y-97398631D01*
X105549500Y-97631902D01*
X105549500Y-97868097D01*
X105586446Y-98101368D01*
X105659433Y-98325996D01*
X105766657Y-98536433D01*
X105905483Y-98727510D01*
X106072490Y-98894517D01*
X106263567Y-99033343D01*
X106362991Y-99084002D01*
X106474003Y-99140566D01*
X106474005Y-99140566D01*
X106474008Y-99140568D01*
X106508980Y-99151931D01*
X106698631Y-99213553D01*
X106931903Y-99250500D01*
X106931908Y-99250500D01*
X107168097Y-99250500D01*
X107401368Y-99213553D01*
X107434468Y-99202798D01*
X107625992Y-99140568D01*
X107836433Y-99033343D01*
X108027510Y-98894517D01*
X108194517Y-98727510D01*
X108333343Y-98536433D01*
X108393583Y-98418204D01*
X108441558Y-98367409D01*
X108504068Y-98350500D01*
X109565331Y-98350500D01*
X109565347Y-98350501D01*
X109572943Y-98350501D01*
X109731054Y-98350501D01*
X109731057Y-98350501D01*
X109883785Y-98309577D01*
X109945506Y-98273942D01*
X110020716Y-98230520D01*
X110132520Y-98118716D01*
X110132520Y-98118714D01*
X110142724Y-98108511D01*
X110142727Y-98108506D01*
X125348071Y-82903163D01*
X125409392Y-82869680D01*
X125479084Y-82874664D01*
X125535017Y-82916536D01*
X125559434Y-82982000D01*
X125559750Y-82990846D01*
X125559750Y-83273272D01*
X125540065Y-83340311D01*
X125523431Y-83360953D01*
X123719481Y-85164902D01*
X123719479Y-85164905D01*
X123687198Y-85220819D01*
X123687197Y-85220821D01*
X123640423Y-85301834D01*
X123630368Y-85339360D01*
X123599499Y-85454563D01*
X123599499Y-85454565D01*
X123599499Y-85622666D01*
X123599500Y-85622679D01*
X123599500Y-87823526D01*
X123579815Y-87890565D01*
X123563181Y-87911207D01*
X103193481Y-108280906D01*
X103193479Y-108280909D01*
X103143361Y-108367718D01*
X103143359Y-108367720D01*
X103114425Y-108417833D01*
X103114424Y-108417834D01*
X103114423Y-108417839D01*
X103073499Y-108570567D01*
X103073499Y-108570569D01*
X103073499Y-108738670D01*
X103073500Y-108738683D01*
X103073500Y-137401080D01*
X103073499Y-137401098D01*
X103073499Y-137566804D01*
X103073498Y-137566804D01*
X103073499Y-137566807D01*
X103114423Y-137719535D01*
X103143360Y-137769654D01*
X103162180Y-137802251D01*
X103168417Y-137827964D01*
X103178652Y-137870150D01*
X103155800Y-137936177D01*
X103100878Y-137979368D01*
X103054792Y-137988250D01*
X87137163Y-137988250D01*
X87070124Y-137968565D01*
X87024369Y-137915761D01*
X87015911Y-137890209D01*
X87015000Y-137885957D01*
X86995783Y-137827964D01*
X86959814Y-137719416D01*
X86867712Y-137570094D01*
X86743656Y-137446038D01*
X86594334Y-137353936D01*
X86427797Y-137298751D01*
X86427795Y-137298750D01*
X86325010Y-137288250D01*
X85124998Y-137288250D01*
X85124981Y-137288251D01*
X85022203Y-137298750D01*
X85022200Y-137298751D01*
X84855668Y-137353935D01*
X84855663Y-137353937D01*
X84706342Y-137446039D01*
X84582289Y-137570092D01*
X84490187Y-137719413D01*
X84490185Y-137719418D01*
X84435000Y-137885954D01*
X84434088Y-137890217D01*
X84400801Y-137951648D01*
X84339586Y-137985331D01*
X84312837Y-137988250D01*
X68087163Y-137988250D01*
X68020124Y-137968565D01*
X67974369Y-137915761D01*
X67965911Y-137890209D01*
X67965000Y-137885957D01*
X67945783Y-137827964D01*
X67909814Y-137719416D01*
X67817712Y-137570094D01*
X67693656Y-137446038D01*
X67544334Y-137353936D01*
X67377797Y-137298751D01*
X67377795Y-137298750D01*
X67275010Y-137288250D01*
X66074998Y-137288250D01*
X66074981Y-137288251D01*
X65972203Y-137298750D01*
X65972200Y-137298751D01*
X65805668Y-137353935D01*
X65805663Y-137353937D01*
X65656342Y-137446039D01*
X65532289Y-137570092D01*
X65440187Y-137719413D01*
X65440185Y-137719418D01*
X65423540Y-137769650D01*
X65385001Y-137885953D01*
X65385001Y-137885954D01*
X65385000Y-137885954D01*
X65374500Y-137988733D01*
X63500500Y-137988733D01*
X63500500Y-130866398D01*
X65374500Y-130866398D01*
X65374500Y-131071101D01*
X65406522Y-131273284D01*
X65469781Y-131467973D01*
X65521385Y-131569250D01*
X65561941Y-131648845D01*
X65562715Y-131650363D01*
X65683028Y-131815963D01*
X65827786Y-131960721D01*
X65924241Y-132030798D01*
X65993390Y-132081037D01*
X66109607Y-132140253D01*
X66175776Y-132173968D01*
X66175778Y-132173968D01*
X66175781Y-132173970D01*
X66280137Y-132207877D01*
X66370465Y-132237227D01*
X66447953Y-132249500D01*
X66572648Y-132269250D01*
X66572649Y-132269250D01*
X66777351Y-132269250D01*
X66777352Y-132269250D01*
X66979534Y-132237227D01*
X67174219Y-132173970D01*
X67356610Y-132081037D01*
X67449590Y-132013482D01*
X67522213Y-131960721D01*
X67522215Y-131960718D01*
X67522219Y-131960716D01*
X67666966Y-131815969D01*
X67666968Y-131815965D01*
X67666971Y-131815963D01*
X67787284Y-131650364D01*
X67787285Y-131650363D01*
X67787287Y-131650360D01*
X67794117Y-131636954D01*
X67842091Y-131586159D01*
X67904602Y-131569250D01*
X70904587Y-131569250D01*
X70971626Y-131588935D01*
X71015072Y-131636956D01*
X71021130Y-131648846D01*
X71169201Y-131852649D01*
X71169205Y-131852654D01*
X71169207Y-131852656D01*
X71347344Y-132030793D01*
X71347345Y-132030794D01*
X71347344Y-132030794D01*
X71353661Y-132035383D01*
X71396327Y-132090714D01*
X71402305Y-132160327D01*
X71369699Y-132222122D01*
X71308860Y-132256479D01*
X71261378Y-132258174D01*
X71206611Y-132249500D01*
X71033389Y-132249500D01*
X70993728Y-132255781D01*
X70862302Y-132276597D01*
X70697552Y-132330128D01*
X70543211Y-132408768D01*
X70486289Y-132450125D01*
X70403072Y-132510586D01*
X70403070Y-132510588D01*
X70403069Y-132510588D01*
X70280588Y-132633069D01*
X70280588Y-132633070D01*
X70280586Y-132633072D01*
X70236859Y-132693256D01*
X70178768Y-132773211D01*
X70100128Y-132927552D01*
X70046597Y-133092302D01*
X70019500Y-133263389D01*
X70019500Y-133436611D01*
X70046598Y-133607701D01*
X70100127Y-133772445D01*
X70178768Y-133926788D01*
X70280586Y-134066928D01*
X70403072Y-134189414D01*
X70543212Y-134291232D01*
X70697555Y-134369873D01*
X70862299Y-134423402D01*
X71033389Y-134450500D01*
X71033390Y-134450500D01*
X71206610Y-134450500D01*
X71206611Y-134450500D01*
X71377701Y-134423402D01*
X71542445Y-134369873D01*
X71696788Y-134291232D01*
X71836928Y-134189414D01*
X71959414Y-134066928D01*
X72061232Y-133926788D01*
X72139873Y-133772445D01*
X72193402Y-133607701D01*
X72220500Y-133436611D01*
X72220500Y-133263389D01*
X72210854Y-133202486D01*
X73949500Y-133202486D01*
X73949500Y-133497513D01*
X73981571Y-133741113D01*
X73988007Y-133789993D01*
X74062212Y-134066930D01*
X74064361Y-134074951D01*
X74064364Y-134074961D01*
X74177254Y-134347500D01*
X74177258Y-134347510D01*
X74324761Y-134602993D01*
X74504352Y-134837040D01*
X74504358Y-134837047D01*
X74712952Y-135045641D01*
X74712959Y-135045647D01*
X74947006Y-135225238D01*
X75202489Y-135372741D01*
X75202490Y-135372741D01*
X75202493Y-135372743D01*
X75475048Y-135485639D01*
X75760007Y-135561993D01*
X76052494Y-135600500D01*
X76052501Y-135600500D01*
X76347499Y-135600500D01*
X76347506Y-135600500D01*
X76639993Y-135561993D01*
X76924952Y-135485639D01*
X77197507Y-135372743D01*
X77452994Y-135225238D01*
X77687042Y-135045646D01*
X77895646Y-134837042D01*
X78075238Y-134602994D01*
X78222743Y-134347507D01*
X78335639Y-134074952D01*
X78411993Y-133789993D01*
X78450500Y-133497506D01*
X78450500Y-133263389D01*
X80179500Y-133263389D01*
X80179500Y-133436611D01*
X80206598Y-133607701D01*
X80260127Y-133772445D01*
X80338768Y-133926788D01*
X80440586Y-134066928D01*
X80563072Y-134189414D01*
X80703212Y-134291232D01*
X80857555Y-134369873D01*
X81022299Y-134423402D01*
X81193389Y-134450500D01*
X81193390Y-134450500D01*
X81366610Y-134450500D01*
X81366611Y-134450500D01*
X81537701Y-134423402D01*
X81702445Y-134369873D01*
X81856788Y-134291232D01*
X81996928Y-134189414D01*
X82119414Y-134066928D01*
X82221232Y-133926788D01*
X82299873Y-133772445D01*
X82353402Y-133607701D01*
X82380500Y-133436611D01*
X82380500Y-133263389D01*
X82353402Y-133092299D01*
X82299873Y-132927555D01*
X82221232Y-132773212D01*
X82119414Y-132633072D01*
X81996928Y-132510586D01*
X81856788Y-132408768D01*
X81702445Y-132330127D01*
X81537701Y-132276598D01*
X81537699Y-132276597D01*
X81537698Y-132276597D01*
X81406271Y-132255781D01*
X81366611Y-132249500D01*
X81193389Y-132249500D01*
X81153728Y-132255781D01*
X81022302Y-132276597D01*
X80857552Y-132330128D01*
X80703211Y-132408768D01*
X80646289Y-132450125D01*
X80563072Y-132510586D01*
X80563070Y-132510588D01*
X80563069Y-132510588D01*
X80440588Y-132633069D01*
X80440588Y-132633070D01*
X80440586Y-132633072D01*
X80396859Y-132693256D01*
X80338768Y-132773211D01*
X80260128Y-132927552D01*
X80206597Y-133092302D01*
X80179500Y-133263389D01*
X78450500Y-133263389D01*
X78450500Y-133202494D01*
X78411993Y-132910007D01*
X78335639Y-132625048D01*
X78222743Y-132352493D01*
X78217969Y-132344225D01*
X78075238Y-132097006D01*
X77895647Y-131862959D01*
X77895641Y-131862952D01*
X77687047Y-131654358D01*
X77687040Y-131654352D01*
X77452993Y-131474761D01*
X77197510Y-131327258D01*
X77197500Y-131327254D01*
X76924961Y-131214364D01*
X76924954Y-131214362D01*
X76924952Y-131214361D01*
X76639993Y-131138007D01*
X76591113Y-131131571D01*
X76347513Y-131099500D01*
X76347506Y-131099500D01*
X76052494Y-131099500D01*
X76052486Y-131099500D01*
X75774085Y-131136153D01*
X75760007Y-131138007D01*
X75585428Y-131184785D01*
X75475048Y-131214361D01*
X75475038Y-131214364D01*
X75202499Y-131327254D01*
X75202489Y-131327258D01*
X74947006Y-131474761D01*
X74712959Y-131654352D01*
X74712952Y-131654358D01*
X74504358Y-131862952D01*
X74504352Y-131862959D01*
X74324761Y-132097006D01*
X74177258Y-132352489D01*
X74177254Y-132352499D01*
X74064364Y-132625038D01*
X74064361Y-132625048D01*
X73988008Y-132910004D01*
X73988006Y-132910015D01*
X73949500Y-133202486D01*
X72210854Y-133202486D01*
X72193402Y-133092299D01*
X72139873Y-132927555D01*
X72061232Y-132773212D01*
X71959414Y-132633072D01*
X71907482Y-132581140D01*
X71873997Y-132519817D01*
X71878981Y-132450125D01*
X71920853Y-132394192D01*
X71986317Y-132369775D01*
X72014561Y-132370986D01*
X72015212Y-132371089D01*
X72015215Y-132371090D01*
X72264038Y-132410500D01*
X72264039Y-132410500D01*
X72515961Y-132410500D01*
X72515962Y-132410500D01*
X72764785Y-132371090D01*
X73004379Y-132293241D01*
X73228845Y-132178870D01*
X73432656Y-132030793D01*
X73610793Y-131852656D01*
X73758870Y-131648845D01*
X73873241Y-131424379D01*
X73951090Y-131184785D01*
X73990500Y-130935962D01*
X73990500Y-130866398D01*
X84424500Y-130866398D01*
X84424500Y-131071101D01*
X84456522Y-131273284D01*
X84519781Y-131467973D01*
X84571385Y-131569250D01*
X84611941Y-131648845D01*
X84612715Y-131650363D01*
X84733028Y-131815963D01*
X84877786Y-131960721D01*
X84974241Y-132030798D01*
X85043390Y-132081037D01*
X85159607Y-132140253D01*
X85225776Y-132173968D01*
X85225778Y-132173968D01*
X85225781Y-132173970D01*
X85330137Y-132207877D01*
X85420465Y-132237227D01*
X85497953Y-132249500D01*
X85622648Y-132269250D01*
X85622649Y-132269250D01*
X85827351Y-132269250D01*
X85827352Y-132269250D01*
X86029534Y-132237227D01*
X86224219Y-132173970D01*
X86406610Y-132081037D01*
X86499590Y-132013482D01*
X86572213Y-131960721D01*
X86572215Y-131960718D01*
X86572219Y-131960716D01*
X86716966Y-131815969D01*
X86716968Y-131815965D01*
X86716971Y-131815963D01*
X86837284Y-131650364D01*
X86837285Y-131650363D01*
X86837287Y-131650360D01*
X86844117Y-131636954D01*
X86892091Y-131586159D01*
X86954602Y-131569250D01*
X89954587Y-131569250D01*
X90021626Y-131588935D01*
X90065072Y-131636956D01*
X90071130Y-131648846D01*
X90219201Y-131852649D01*
X90219205Y-131852654D01*
X90219207Y-131852656D01*
X90397344Y-132030793D01*
X90397345Y-132030794D01*
X90397344Y-132030794D01*
X90403661Y-132035383D01*
X90446327Y-132090714D01*
X90452305Y-132160327D01*
X90419699Y-132222122D01*
X90358860Y-132256479D01*
X90311378Y-132258174D01*
X90256611Y-132249500D01*
X90083389Y-132249500D01*
X90043728Y-132255781D01*
X89912302Y-132276597D01*
X89747552Y-132330128D01*
X89593211Y-132408768D01*
X89536289Y-132450125D01*
X89453072Y-132510586D01*
X89453070Y-132510588D01*
X89453069Y-132510588D01*
X89330588Y-132633069D01*
X89330588Y-132633070D01*
X89330586Y-132633072D01*
X89286859Y-132693256D01*
X89228768Y-132773211D01*
X89150128Y-132927552D01*
X89096597Y-133092302D01*
X89069500Y-133263389D01*
X89069500Y-133436611D01*
X89096598Y-133607701D01*
X89150127Y-133772445D01*
X89228768Y-133926788D01*
X89330586Y-134066928D01*
X89453072Y-134189414D01*
X89593212Y-134291232D01*
X89747555Y-134369873D01*
X89912299Y-134423402D01*
X90083389Y-134450500D01*
X90083390Y-134450500D01*
X90256610Y-134450500D01*
X90256611Y-134450500D01*
X90427701Y-134423402D01*
X90592445Y-134369873D01*
X90746788Y-134291232D01*
X90886928Y-134189414D01*
X91009414Y-134066928D01*
X91111232Y-133926788D01*
X91189873Y-133772445D01*
X91243402Y-133607701D01*
X91270500Y-133436611D01*
X91270500Y-133263389D01*
X91260854Y-133202486D01*
X92999500Y-133202486D01*
X92999500Y-133497513D01*
X93031571Y-133741113D01*
X93038007Y-133789993D01*
X93112212Y-134066930D01*
X93114361Y-134074951D01*
X93114364Y-134074961D01*
X93227254Y-134347500D01*
X93227258Y-134347510D01*
X93374761Y-134602993D01*
X93554352Y-134837040D01*
X93554358Y-134837047D01*
X93762952Y-135045641D01*
X93762959Y-135045647D01*
X93997006Y-135225238D01*
X94252489Y-135372741D01*
X94252490Y-135372741D01*
X94252493Y-135372743D01*
X94525048Y-135485639D01*
X94810007Y-135561993D01*
X95102494Y-135600500D01*
X95102501Y-135600500D01*
X95397499Y-135600500D01*
X95397506Y-135600500D01*
X95689993Y-135561993D01*
X95974952Y-135485639D01*
X96247507Y-135372743D01*
X96502994Y-135225238D01*
X96737042Y-135045646D01*
X96945646Y-134837042D01*
X97125238Y-134602994D01*
X97272743Y-134347507D01*
X97385639Y-134074952D01*
X97461993Y-133789993D01*
X97500500Y-133497506D01*
X97500500Y-133263389D01*
X99229500Y-133263389D01*
X99229500Y-133436611D01*
X99256598Y-133607701D01*
X99310127Y-133772445D01*
X99388768Y-133926788D01*
X99490586Y-134066928D01*
X99613072Y-134189414D01*
X99753212Y-134291232D01*
X99907555Y-134369873D01*
X100072299Y-134423402D01*
X100243389Y-134450500D01*
X100243390Y-134450500D01*
X100416610Y-134450500D01*
X100416611Y-134450500D01*
X100587701Y-134423402D01*
X100752445Y-134369873D01*
X100906788Y-134291232D01*
X101046928Y-134189414D01*
X101169414Y-134066928D01*
X101271232Y-133926788D01*
X101349873Y-133772445D01*
X101403402Y-133607701D01*
X101430500Y-133436611D01*
X101430500Y-133263389D01*
X101403402Y-133092299D01*
X101349873Y-132927555D01*
X101271232Y-132773212D01*
X101169414Y-132633072D01*
X101046928Y-132510586D01*
X100906788Y-132408768D01*
X100752445Y-132330127D01*
X100587701Y-132276598D01*
X100587699Y-132276597D01*
X100587698Y-132276597D01*
X100456271Y-132255781D01*
X100416611Y-132249500D01*
X100243389Y-132249500D01*
X100203728Y-132255781D01*
X100072302Y-132276597D01*
X99907552Y-132330128D01*
X99753211Y-132408768D01*
X99696289Y-132450125D01*
X99613072Y-132510586D01*
X99613070Y-132510588D01*
X99613069Y-132510588D01*
X99490588Y-132633069D01*
X99490588Y-132633070D01*
X99490586Y-132633072D01*
X99446859Y-132693256D01*
X99388768Y-132773211D01*
X99310128Y-132927552D01*
X99256597Y-133092302D01*
X99229500Y-133263389D01*
X97500500Y-133263389D01*
X97500500Y-133202494D01*
X97461993Y-132910007D01*
X97385639Y-132625048D01*
X97272743Y-132352493D01*
X97267969Y-132344225D01*
X97125238Y-132097006D01*
X96945647Y-131862959D01*
X96945641Y-131862952D01*
X96737047Y-131654358D01*
X96737040Y-131654352D01*
X96502993Y-131474761D01*
X96247510Y-131327258D01*
X96247500Y-131327254D01*
X95974961Y-131214364D01*
X95974954Y-131214362D01*
X95974952Y-131214361D01*
X95689993Y-131138007D01*
X95641113Y-131131571D01*
X95397513Y-131099500D01*
X95397506Y-131099500D01*
X95102494Y-131099500D01*
X95102486Y-131099500D01*
X94824085Y-131136153D01*
X94810007Y-131138007D01*
X94635428Y-131184785D01*
X94525048Y-131214361D01*
X94525038Y-131214364D01*
X94252499Y-131327254D01*
X94252489Y-131327258D01*
X93997006Y-131474761D01*
X93762959Y-131654352D01*
X93762952Y-131654358D01*
X93554358Y-131862952D01*
X93554352Y-131862959D01*
X93374761Y-132097006D01*
X93227258Y-132352489D01*
X93227254Y-132352499D01*
X93114364Y-132625038D01*
X93114361Y-132625048D01*
X93038008Y-132910004D01*
X93038006Y-132910015D01*
X92999500Y-133202486D01*
X91260854Y-133202486D01*
X91243402Y-133092299D01*
X91189873Y-132927555D01*
X91111232Y-132773212D01*
X91009414Y-132633072D01*
X90957482Y-132581140D01*
X90923997Y-132519817D01*
X90928981Y-132450125D01*
X90970853Y-132394192D01*
X91036317Y-132369775D01*
X91064561Y-132370986D01*
X91065212Y-132371089D01*
X91065215Y-132371090D01*
X91314038Y-132410500D01*
X91314039Y-132410500D01*
X91565961Y-132410500D01*
X91565962Y-132410500D01*
X91814785Y-132371090D01*
X92054379Y-132293241D01*
X92278845Y-132178870D01*
X92482656Y-132030793D01*
X92660793Y-131852656D01*
X92808870Y-131648845D01*
X92923241Y-131424379D01*
X93001090Y-131184785D01*
X93040500Y-130935962D01*
X93040500Y-130684038D01*
X93001090Y-130435215D01*
X92923241Y-130195621D01*
X92923239Y-130195618D01*
X92923239Y-130195616D01*
X92881747Y-130114184D01*
X92808870Y-129971155D01*
X92707107Y-129831090D01*
X92660798Y-129767350D01*
X92660794Y-129767345D01*
X92482654Y-129589205D01*
X92482649Y-129589201D01*
X92278848Y-129441132D01*
X92278847Y-129441131D01*
X92278845Y-129441130D01*
X92208747Y-129405413D01*
X92054383Y-129326760D01*
X91814785Y-129248910D01*
X91565962Y-129209500D01*
X91314038Y-129209500D01*
X91189626Y-129229205D01*
X91065214Y-129248910D01*
X90825616Y-129326760D01*
X90601151Y-129441132D01*
X90397350Y-129589201D01*
X90397345Y-129589205D01*
X90219205Y-129767345D01*
X90219201Y-129767350D01*
X90071132Y-129971151D01*
X89956760Y-130195616D01*
X89928508Y-130282569D01*
X89889070Y-130340244D01*
X89824711Y-130367442D01*
X89810577Y-130368250D01*
X86954602Y-130368250D01*
X86887563Y-130348565D01*
X86844117Y-130300545D01*
X86837284Y-130287135D01*
X86716971Y-130121536D01*
X86572213Y-129976778D01*
X86406613Y-129856465D01*
X86406612Y-129856464D01*
X86406610Y-129856463D01*
X86349653Y-129827441D01*
X86224223Y-129763531D01*
X86029534Y-129700272D01*
X85854995Y-129672628D01*
X85827352Y-129668250D01*
X85622648Y-129668250D01*
X85598329Y-129672101D01*
X85420465Y-129700272D01*
X85225776Y-129763531D01*
X85043386Y-129856465D01*
X84877786Y-129976778D01*
X84733028Y-130121536D01*
X84612715Y-130287136D01*
X84519781Y-130469526D01*
X84456522Y-130664215D01*
X84424500Y-130866398D01*
X73990500Y-130866398D01*
X73990500Y-130684038D01*
X73951090Y-130435215D01*
X73873241Y-130195621D01*
X73873239Y-130195618D01*
X73873239Y-130195616D01*
X73831747Y-130114184D01*
X73758870Y-129971155D01*
X73657107Y-129831090D01*
X73610798Y-129767350D01*
X73610794Y-129767345D01*
X73432654Y-129589205D01*
X73432649Y-129589201D01*
X73228848Y-129441132D01*
X73228847Y-129441131D01*
X73228845Y-129441130D01*
X73158747Y-129405413D01*
X73004383Y-129326760D01*
X72764785Y-129248910D01*
X72515962Y-129209500D01*
X72264038Y-129209500D01*
X72139626Y-129229205D01*
X72015214Y-129248910D01*
X71775616Y-129326760D01*
X71551151Y-129441132D01*
X71347350Y-129589201D01*
X71347345Y-129589205D01*
X71169205Y-129767345D01*
X71169201Y-129767350D01*
X71021132Y-129971151D01*
X70906760Y-130195616D01*
X70878508Y-130282569D01*
X70839070Y-130340244D01*
X70774711Y-130367442D01*
X70760577Y-130368250D01*
X67904602Y-130368250D01*
X67837563Y-130348565D01*
X67794117Y-130300545D01*
X67787284Y-130287135D01*
X67666971Y-130121536D01*
X67522213Y-129976778D01*
X67356613Y-129856465D01*
X67356612Y-129856464D01*
X67356610Y-129856463D01*
X67299653Y-129827441D01*
X67174223Y-129763531D01*
X66979534Y-129700272D01*
X66804995Y-129672628D01*
X66777352Y-129668250D01*
X66572648Y-129668250D01*
X66548329Y-129672101D01*
X66370465Y-129700272D01*
X66175776Y-129763531D01*
X65993386Y-129856465D01*
X65827786Y-129976778D01*
X65683028Y-130121536D01*
X65562715Y-130287136D01*
X65469781Y-130469526D01*
X65406522Y-130664215D01*
X65374500Y-130866398D01*
X63500500Y-130866398D01*
X63500500Y-118938733D01*
X65374500Y-118938733D01*
X65374500Y-120138751D01*
X65374501Y-120138768D01*
X65385000Y-120241546D01*
X65385001Y-120241549D01*
X65440185Y-120408081D01*
X65440186Y-120408084D01*
X65532288Y-120557406D01*
X65656344Y-120681462D01*
X65805666Y-120773564D01*
X65972203Y-120828749D01*
X66074991Y-120839250D01*
X67275008Y-120839249D01*
X67377797Y-120828749D01*
X67544334Y-120773564D01*
X67693656Y-120681462D01*
X67817712Y-120557406D01*
X67909814Y-120408084D01*
X67964999Y-120241547D01*
X67975500Y-120138759D01*
X67975499Y-118938742D01*
X67964999Y-118835953D01*
X67909814Y-118669416D01*
X67817712Y-118520094D01*
X67693656Y-118396038D01*
X67544334Y-118303936D01*
X67377797Y-118248751D01*
X67377795Y-118248750D01*
X67275010Y-118238250D01*
X66074998Y-118238250D01*
X66074981Y-118238251D01*
X65972203Y-118248750D01*
X65972200Y-118248751D01*
X65805668Y-118303935D01*
X65805663Y-118303937D01*
X65656342Y-118396039D01*
X65532289Y-118520092D01*
X65440187Y-118669413D01*
X65440186Y-118669416D01*
X65385001Y-118835953D01*
X65385001Y-118835954D01*
X65385000Y-118835954D01*
X65374500Y-118938733D01*
X63500500Y-118938733D01*
X63500500Y-114213389D01*
X70019500Y-114213389D01*
X70019500Y-114386610D01*
X70034108Y-114478846D01*
X70046598Y-114557701D01*
X70100127Y-114722445D01*
X70178768Y-114876788D01*
X70280586Y-115016928D01*
X70403072Y-115139414D01*
X70543212Y-115241232D01*
X70697555Y-115319873D01*
X70862299Y-115373402D01*
X71033389Y-115400500D01*
X71033390Y-115400500D01*
X71206610Y-115400500D01*
X71206611Y-115400500D01*
X71377701Y-115373402D01*
X71542445Y-115319873D01*
X71696788Y-115241232D01*
X71836928Y-115139414D01*
X71959414Y-115016928D01*
X72061232Y-114876788D01*
X72139873Y-114722445D01*
X72193402Y-114557701D01*
X72220500Y-114386611D01*
X72220500Y-114213389D01*
X72193402Y-114042299D01*
X72139873Y-113877555D01*
X72061232Y-113723212D01*
X71959414Y-113583072D01*
X71907482Y-113531140D01*
X71873997Y-113469817D01*
X71878981Y-113400125D01*
X71920853Y-113344192D01*
X71986317Y-113319775D01*
X72014561Y-113320986D01*
X72015212Y-113321089D01*
X72015215Y-113321090D01*
X72264038Y-113360500D01*
X72264039Y-113360500D01*
X72515961Y-113360500D01*
X72515962Y-113360500D01*
X72764785Y-113321090D01*
X73004379Y-113243241D01*
X73228845Y-113128870D01*
X73432656Y-112980793D01*
X73610793Y-112802656D01*
X73758870Y-112598845D01*
X73873241Y-112374379D01*
X73951090Y-112134785D01*
X73990500Y-111885962D01*
X73990500Y-111634038D01*
X73951090Y-111385215D01*
X73873241Y-111145621D01*
X73873239Y-111145618D01*
X73873239Y-111145616D01*
X73831747Y-111064184D01*
X73758870Y-110921155D01*
X73675542Y-110806463D01*
X73610798Y-110717350D01*
X73610794Y-110717345D01*
X73432654Y-110539205D01*
X73432649Y-110539201D01*
X73228848Y-110391132D01*
X73228847Y-110391131D01*
X73228845Y-110391130D01*
X73158747Y-110355413D01*
X73004383Y-110276760D01*
X72764785Y-110198910D01*
X72515962Y-110159500D01*
X72264038Y-110159500D01*
X72174137Y-110173739D01*
X72015214Y-110198910D01*
X71775616Y-110276760D01*
X71551151Y-110391132D01*
X71347350Y-110539201D01*
X71347345Y-110539205D01*
X71169205Y-110717345D01*
X71169201Y-110717350D01*
X71021132Y-110921151D01*
X70906760Y-111145616D01*
X70828910Y-111385214D01*
X70789500Y-111634038D01*
X70789500Y-111885961D01*
X70828910Y-112134785D01*
X70906760Y-112374383D01*
X71021132Y-112598848D01*
X71169201Y-112802649D01*
X71169205Y-112802654D01*
X71169207Y-112802656D01*
X71347344Y-112980793D01*
X71347345Y-112980794D01*
X71347344Y-112980794D01*
X71353661Y-112985383D01*
X71396327Y-113040714D01*
X71402305Y-113110327D01*
X71369699Y-113172122D01*
X71308860Y-113206479D01*
X71261378Y-113208174D01*
X71206611Y-113199500D01*
X71033389Y-113199500D01*
X70993728Y-113205781D01*
X70862302Y-113226597D01*
X70697552Y-113280128D01*
X70543211Y-113358768D01*
X70486289Y-113400125D01*
X70403072Y-113460586D01*
X70403070Y-113460588D01*
X70403069Y-113460588D01*
X70280588Y-113583069D01*
X70280588Y-113583070D01*
X70280586Y-113583072D01*
X70236859Y-113643256D01*
X70178768Y-113723211D01*
X70100128Y-113877552D01*
X70046597Y-114042302D01*
X70019500Y-114213389D01*
X63500500Y-114213389D01*
X63500500Y-111816398D01*
X65374500Y-111816398D01*
X65374500Y-112021101D01*
X65406522Y-112223284D01*
X65469781Y-112417973D01*
X65533691Y-112543403D01*
X65561941Y-112598845D01*
X65562715Y-112600363D01*
X65683028Y-112765963D01*
X65827786Y-112910721D01*
X65924241Y-112980798D01*
X65993390Y-113031037D01*
X66109607Y-113090253D01*
X66175776Y-113123968D01*
X66175778Y-113123968D01*
X66175781Y-113123970D01*
X66280137Y-113157877D01*
X66370465Y-113187227D01*
X66447953Y-113199500D01*
X66572648Y-113219250D01*
X66572649Y-113219250D01*
X66777351Y-113219250D01*
X66777352Y-113219250D01*
X66979534Y-113187227D01*
X67174219Y-113123970D01*
X67356610Y-113031037D01*
X67449590Y-112963482D01*
X67522213Y-112910721D01*
X67522215Y-112910718D01*
X67522219Y-112910716D01*
X67666966Y-112765969D01*
X67666968Y-112765965D01*
X67666971Y-112765963D01*
X67784382Y-112604358D01*
X67787287Y-112600360D01*
X67880220Y-112417969D01*
X67943477Y-112223284D01*
X67975500Y-112021102D01*
X67975500Y-111816398D01*
X67943477Y-111614216D01*
X67931181Y-111576374D01*
X67880218Y-111419526D01*
X67846503Y-111353357D01*
X67787287Y-111237140D01*
X67779556Y-111226499D01*
X67666971Y-111071536D01*
X67522213Y-110926778D01*
X67356613Y-110806465D01*
X67356612Y-110806464D01*
X67356610Y-110806463D01*
X67299653Y-110777441D01*
X67174223Y-110713531D01*
X66979534Y-110650272D01*
X66804995Y-110622628D01*
X66777352Y-110618250D01*
X66572648Y-110618250D01*
X66548329Y-110622101D01*
X66370465Y-110650272D01*
X66175776Y-110713531D01*
X65993386Y-110806465D01*
X65827786Y-110926778D01*
X65683028Y-111071536D01*
X65562715Y-111237136D01*
X65469781Y-111419526D01*
X65406522Y-111614215D01*
X65374500Y-111816398D01*
X63500500Y-111816398D01*
X63500500Y-99888733D01*
X65374500Y-99888733D01*
X65374500Y-101088751D01*
X65374501Y-101088768D01*
X65385000Y-101191546D01*
X65385001Y-101191549D01*
X65440185Y-101358081D01*
X65440186Y-101358084D01*
X65532288Y-101507406D01*
X65656344Y-101631462D01*
X65805666Y-101723564D01*
X65972203Y-101778749D01*
X66074991Y-101789250D01*
X67275008Y-101789249D01*
X67377797Y-101778749D01*
X67544334Y-101723564D01*
X67693656Y-101631462D01*
X67817712Y-101507406D01*
X67909814Y-101358084D01*
X67964999Y-101191547D01*
X67975500Y-101088759D01*
X67975499Y-99888742D01*
X67964999Y-99785953D01*
X67909814Y-99619416D01*
X67817712Y-99470094D01*
X67693656Y-99346038D01*
X67544334Y-99253936D01*
X67377797Y-99198751D01*
X67377795Y-99198750D01*
X67275010Y-99188250D01*
X66074998Y-99188250D01*
X66074981Y-99188251D01*
X65972203Y-99198750D01*
X65972200Y-99198751D01*
X65805668Y-99253935D01*
X65805663Y-99253937D01*
X65656342Y-99346039D01*
X65532289Y-99470092D01*
X65440187Y-99619413D01*
X65440186Y-99619416D01*
X65385001Y-99785953D01*
X65385001Y-99785954D01*
X65385000Y-99785954D01*
X65374500Y-99888733D01*
X63500500Y-99888733D01*
X63500500Y-95163389D01*
X70019500Y-95163389D01*
X70019500Y-95336611D01*
X70046598Y-95507701D01*
X70100127Y-95672445D01*
X70178768Y-95826788D01*
X70280586Y-95966928D01*
X70403072Y-96089414D01*
X70543212Y-96191232D01*
X70697555Y-96269873D01*
X70862299Y-96323402D01*
X71033389Y-96350500D01*
X71033390Y-96350500D01*
X71206610Y-96350500D01*
X71206611Y-96350500D01*
X71377701Y-96323402D01*
X71542445Y-96269873D01*
X71696788Y-96191232D01*
X71836928Y-96089414D01*
X71959414Y-95966928D01*
X72061232Y-95826788D01*
X72139873Y-95672445D01*
X72193402Y-95507701D01*
X72220500Y-95336611D01*
X72220500Y-95163389D01*
X72193402Y-94992299D01*
X72139873Y-94827555D01*
X72061232Y-94673212D01*
X71959414Y-94533072D01*
X71907482Y-94481140D01*
X71873997Y-94419817D01*
X71878981Y-94350125D01*
X71920853Y-94294192D01*
X71986317Y-94269775D01*
X72014561Y-94270986D01*
X72015212Y-94271089D01*
X72015215Y-94271090D01*
X72264038Y-94310500D01*
X72264039Y-94310500D01*
X72515961Y-94310500D01*
X72515962Y-94310500D01*
X72764785Y-94271090D01*
X73004379Y-94193241D01*
X73228845Y-94078870D01*
X73432656Y-93930793D01*
X73610793Y-93752656D01*
X73758870Y-93548845D01*
X73873241Y-93324379D01*
X73951090Y-93084785D01*
X73990500Y-92835962D01*
X73990500Y-92584038D01*
X73951090Y-92335215D01*
X73873241Y-92095621D01*
X73873239Y-92095618D01*
X73873239Y-92095616D01*
X73805956Y-91963567D01*
X73758870Y-91871155D01*
X73687186Y-91772490D01*
X73610798Y-91667350D01*
X73610794Y-91667345D01*
X73432654Y-91489205D01*
X73432649Y-91489201D01*
X73228848Y-91341132D01*
X73228847Y-91341131D01*
X73228845Y-91341130D01*
X73158747Y-91305413D01*
X73004383Y-91226760D01*
X72764785Y-91148910D01*
X72706617Y-91139697D01*
X72515962Y-91109500D01*
X72264038Y-91109500D01*
X72139626Y-91129205D01*
X72015214Y-91148910D01*
X71775616Y-91226760D01*
X71551151Y-91341132D01*
X71347350Y-91489201D01*
X71347345Y-91489205D01*
X71169205Y-91667345D01*
X71169201Y-91667350D01*
X71021132Y-91871151D01*
X70906760Y-92095616D01*
X70828910Y-92335214D01*
X70789500Y-92584038D01*
X70789500Y-92835961D01*
X70828910Y-93084785D01*
X70906760Y-93324383D01*
X71021132Y-93548848D01*
X71169201Y-93752649D01*
X71169205Y-93752654D01*
X71169207Y-93752656D01*
X71347344Y-93930793D01*
X71347345Y-93930794D01*
X71347344Y-93930794D01*
X71353661Y-93935383D01*
X71396327Y-93990714D01*
X71402305Y-94060327D01*
X71369699Y-94122122D01*
X71308860Y-94156479D01*
X71261378Y-94158174D01*
X71206611Y-94149500D01*
X71033389Y-94149500D01*
X70993728Y-94155781D01*
X70862302Y-94176597D01*
X70697552Y-94230128D01*
X70543211Y-94308768D01*
X70486289Y-94350125D01*
X70403072Y-94410586D01*
X70403070Y-94410588D01*
X70403069Y-94410588D01*
X70280588Y-94533069D01*
X70280588Y-94533070D01*
X70280586Y-94533072D01*
X70236859Y-94593256D01*
X70178768Y-94673211D01*
X70100128Y-94827552D01*
X70046597Y-94992302D01*
X70036349Y-95057007D01*
X70019500Y-95163389D01*
X63500500Y-95163389D01*
X63500500Y-92766398D01*
X65374500Y-92766398D01*
X65374500Y-92971101D01*
X65406522Y-93173284D01*
X65469781Y-93367973D01*
X65533691Y-93493403D01*
X65561941Y-93548845D01*
X65562715Y-93550363D01*
X65683028Y-93715963D01*
X65827786Y-93860721D01*
X65924241Y-93930798D01*
X65993390Y-93981037D01*
X66096044Y-94033342D01*
X66175776Y-94073968D01*
X66175778Y-94073968D01*
X66175781Y-94073970D01*
X66279108Y-94107543D01*
X66370465Y-94137227D01*
X66447953Y-94149500D01*
X66572648Y-94169250D01*
X66572649Y-94169250D01*
X66777351Y-94169250D01*
X66777352Y-94169250D01*
X66979534Y-94137227D01*
X67174219Y-94073970D01*
X67356610Y-93981037D01*
X67475700Y-93894514D01*
X67522213Y-93860721D01*
X67522215Y-93860718D01*
X67522219Y-93860716D01*
X67666966Y-93715969D01*
X67666968Y-93715965D01*
X67666971Y-93715963D01*
X67784382Y-93554358D01*
X67787287Y-93550360D01*
X67880220Y-93367969D01*
X67943477Y-93173284D01*
X67975500Y-92971102D01*
X67975500Y-92766398D01*
X67943477Y-92564216D01*
X67880220Y-92369531D01*
X67880218Y-92369528D01*
X67880218Y-92369526D01*
X67839401Y-92289420D01*
X67787287Y-92187140D01*
X67756994Y-92145445D01*
X67666971Y-92021536D01*
X67522213Y-91876778D01*
X67356613Y-91756465D01*
X67356612Y-91756464D01*
X67356610Y-91756463D01*
X67254327Y-91704347D01*
X67174223Y-91663531D01*
X66979534Y-91600272D01*
X66804995Y-91572628D01*
X66777352Y-91568250D01*
X66572648Y-91568250D01*
X66548329Y-91572101D01*
X66370465Y-91600272D01*
X66175776Y-91663531D01*
X65993386Y-91756465D01*
X65827786Y-91876778D01*
X65683028Y-92021536D01*
X65562715Y-92187136D01*
X65469781Y-92369526D01*
X65406522Y-92564215D01*
X65374500Y-92766398D01*
X63500500Y-92766398D01*
X63500500Y-67624500D01*
X63520185Y-67557461D01*
X63572989Y-67511706D01*
X63624500Y-67500500D01*
X147375500Y-67500500D01*
X147442539Y-67520185D01*
G37*
%TD.AperFunction*%
%TD*%
M02*
