%TF.GenerationSoftware,KiCad,Pcbnew,9.0.2*%
%TF.CreationDate,2025-06-30T15:24:12-07:00*%
%TF.ProjectId,hackpad,6861636b-7061-4642-9e6b-696361645f70,rev?*%
%TF.SameCoordinates,Original*%
%TF.FileFunction,Soldermask,Top*%
%TF.FilePolarity,Negative*%
%FSLAX46Y46*%
G04 Gerber Fmt 4.6, Leading zero omitted, Abs format (unit mm)*
G04 Created by KiCad (PCBNEW 9.0.2) date 2025-06-30 15:24:12*
%MOMM*%
%LPD*%
G01*
G04 APERTURE LIST*
G04 Aperture macros list*
%AMRoundRect*
0 Rectangle with rounded corners*
0 $1 Rounding radius*
0 $2 $3 $4 $5 $6 $7 $8 $9 X,Y pos of 4 corners*
0 Add a 4 corners polygon primitive as box body*
4,1,4,$2,$3,$4,$5,$6,$7,$8,$9,$2,$3,0*
0 Add four circle primitives for the rounded corners*
1,1,$1+$1,$2,$3*
1,1,$1+$1,$4,$5*
1,1,$1+$1,$6,$7*
1,1,$1+$1,$8,$9*
0 Add four rect primitives between the rounded corners*
20,1,$1+$1,$2,$3,$4,$5,0*
20,1,$1+$1,$4,$5,$6,$7,0*
20,1,$1+$1,$6,$7,$8,$9,0*
20,1,$1+$1,$8,$9,$2,$3,0*%
G04 Aperture macros list end*
%ADD10R,1.600000X0.850000*%
%ADD11C,1.700000*%
%ADD12C,4.000000*%
%ADD13C,2.200000*%
%ADD14R,1.700000X1.700000*%
%ADD15O,1.700000X1.700000*%
%ADD16R,2.000000X2.000000*%
%ADD17C,2.000000*%
%ADD18R,3.200000X2.000000*%
%ADD19RoundRect,0.250000X0.550000X-0.550000X0.550000X0.550000X-0.550000X0.550000X-0.550000X-0.550000X0*%
%ADD20C,1.600000*%
%ADD21C,1.524000*%
G04 APERTURE END LIST*
D10*
%TO.C,LED7*%
X112550000Y-103900000D03*
X112550000Y-105650000D03*
X116050000Y-105650000D03*
X116050000Y-103900000D03*
%TD*%
%TO.C,LED2*%
X93500000Y-142000000D03*
X93500000Y-143750000D03*
X97000000Y-143750000D03*
X97000000Y-142000000D03*
%TD*%
D11*
%TO.C,SW8*%
X71120000Y-95250000D03*
D12*
X76200000Y-95250000D03*
D11*
X81280000Y-95250000D03*
D13*
X78740000Y-90170000D03*
X72390000Y-92710000D03*
%TD*%
D11*
%TO.C,SW2*%
X71120000Y-114300000D03*
D12*
X76200000Y-114300000D03*
D11*
X81280000Y-114300000D03*
D13*
X78740000Y-109220000D03*
X72390000Y-111760000D03*
%TD*%
D10*
%TO.C,LED3*%
X74450000Y-142000000D03*
X74450000Y-143750000D03*
X77950000Y-143750000D03*
X77950000Y-142000000D03*
%TD*%
D11*
%TO.C,SW4*%
X109220000Y-114300000D03*
D12*
X114300000Y-114300000D03*
D11*
X119380000Y-114300000D03*
D13*
X116840000Y-109220000D03*
X110490000Y-111760000D03*
%TD*%
D10*
%TO.C,LED9*%
X74450000Y-103900000D03*
X74450000Y-105650000D03*
X77950000Y-105650000D03*
X77950000Y-103900000D03*
%TD*%
D11*
%TO.C,SW5*%
X71120000Y-133350000D03*
D12*
X76200000Y-133350000D03*
D11*
X81280000Y-133350000D03*
D13*
X78740000Y-128270000D03*
X72390000Y-130810000D03*
%TD*%
D10*
%TO.C,LED8*%
X93500000Y-103900000D03*
X93500000Y-105650000D03*
X97000000Y-105650000D03*
X97000000Y-103900000D03*
%TD*%
D11*
%TO.C,SW3*%
X90170000Y-114300000D03*
D12*
X95250000Y-114300000D03*
D11*
X100330000Y-114300000D03*
D13*
X97790000Y-109220000D03*
X91440000Y-111760000D03*
%TD*%
D11*
%TO.C,SW6*%
X90170000Y-133350000D03*
D12*
X95250000Y-133350000D03*
D11*
X100330000Y-133350000D03*
D13*
X97790000Y-128270000D03*
X91440000Y-130810000D03*
%TD*%
D11*
%TO.C,SW7*%
X109220000Y-133350000D03*
D12*
X114300000Y-133350000D03*
D11*
X119380000Y-133350000D03*
D13*
X116840000Y-128270000D03*
X110490000Y-130810000D03*
%TD*%
D14*
%TO.C,J1*%
X103340000Y-72505000D03*
D15*
X103340000Y-75045000D03*
X103340000Y-77585000D03*
X103340000Y-80125000D03*
%TD*%
D10*
%TO.C,LED6*%
X116050000Y-124700000D03*
X116050000Y-122950000D03*
X112550000Y-122950000D03*
X112550000Y-124700000D03*
%TD*%
D16*
%TO.C,SW11*%
X107050000Y-92750000D03*
D17*
X107050000Y-97750000D03*
X107050000Y-95250000D03*
D18*
X114550000Y-89650000D03*
X114550000Y-100850000D03*
D17*
X121550000Y-97750000D03*
X121550000Y-92750000D03*
%TD*%
D10*
%TO.C,LED1*%
X112550000Y-142000000D03*
X112550000Y-143750000D03*
X116050000Y-143750000D03*
X116050000Y-142000000D03*
%TD*%
D11*
%TO.C,SW1*%
X90170000Y-95250000D03*
D12*
X95250000Y-95250000D03*
D11*
X100330000Y-95250000D03*
D13*
X97790000Y-90170000D03*
X91440000Y-92710000D03*
%TD*%
D10*
%TO.C,LED4*%
X77950000Y-124700000D03*
X77950000Y-122950000D03*
X74450000Y-122950000D03*
X74450000Y-124700000D03*
%TD*%
%TO.C,LED5*%
X97000000Y-124700000D03*
X97000000Y-122950000D03*
X93500000Y-122950000D03*
X93500000Y-124700000D03*
%TD*%
D19*
%TO.C,D3*%
X85725000Y-119538750D03*
D20*
X85725000Y-111918750D03*
%TD*%
D21*
%TO.C,XIAO-RP2040 HERE1*%
X143351250Y-70000000D03*
X143351250Y-72540000D03*
X143351250Y-75080000D03*
X143351250Y-77620000D03*
X143351250Y-80160000D03*
X143351250Y-82700000D03*
X143351250Y-85240000D03*
X128111250Y-85240000D03*
X128111250Y-82700000D03*
X128111250Y-80160000D03*
X128111250Y-77620000D03*
X128111250Y-75080000D03*
X128111250Y-72540000D03*
X128111250Y-70000000D03*
%TD*%
D19*
%TO.C,D6*%
X85725000Y-138588750D03*
D20*
X85725000Y-130968750D03*
%TD*%
D19*
%TO.C,D8*%
X66675000Y-100488750D03*
D20*
X66675000Y-92868750D03*
%TD*%
D19*
%TO.C,D2*%
X66675000Y-119538750D03*
D20*
X66675000Y-111918750D03*
%TD*%
D19*
%TO.C,D11*%
X126206250Y-100488750D03*
D20*
X126206250Y-92868750D03*
%TD*%
D19*
%TO.C,D7*%
X104775000Y-138588750D03*
D20*
X104775000Y-130968750D03*
%TD*%
D19*
%TO.C,D5*%
X66675000Y-138588750D03*
D20*
X66675000Y-130968750D03*
%TD*%
D19*
%TO.C,D4*%
X104775000Y-119538750D03*
D20*
X104775000Y-111918750D03*
%TD*%
D19*
%TO.C,D1*%
X85725000Y-100488750D03*
D20*
X85725000Y-92868750D03*
%TD*%
M02*
