M48
; DRILL file {KiCad 9.0.2} date 2025-06-30T19:19:16-0700
; FORMAT={-:-/ absolute / metric / decimal}
; #@! TF.CreationDate,2025-06-30T19:19:16-07:00
; #@! TF.GenerationSoftware,Kicad,Pcbnew,9.0.2
; #@! TF.FileFunction,Plated,1,2,PTH
FMAT,2
METRIC
; #@! TA.AperFunction,Plated,PTH,ViaDrill
T1C0.300
; #@! TA.AperFunction,Plated,PTH,ComponentDrill
T2C0.800
; #@! TA.AperFunction,Plated,PTH,ComponentDrill
T3C0.889
; #@! TA.AperFunction,Plated,PTH,ComponentDrill
T4C1.000
; #@! TA.AperFunction,Plated,PTH,ComponentDrill
T5C1.500
%
G90
G05
T1
X103.3Y-97.6
X103.7Y-93.7
X109.8Y-96.1
X110.0Y-93.3
X119.3Y-105.9
X123.3Y-114.4
X124.1Y-71.8
X124.7Y-74.5
X130.5Y-74.5
X131.5Y-69.9
X132.2Y-77.6
X132.2Y-85.6
T2
X66.675Y-92.869
X66.675Y-100.489
X66.675Y-111.919
X66.675Y-119.539
X66.675Y-130.969
X66.675Y-138.589
X85.725Y-92.869
X85.725Y-100.489
X85.725Y-111.919
X85.725Y-119.539
X85.725Y-130.969
X85.725Y-138.589
X104.775Y-111.919
X104.775Y-119.539
X104.775Y-130.969
X104.775Y-138.589
X126.206Y-92.869
X126.206Y-100.489
T3
X128.111Y-70.0
X128.111Y-72.54
X128.111Y-75.08
X128.111Y-77.62
X128.111Y-80.16
X128.111Y-82.7
X128.111Y-85.24
X143.351Y-70.0
X143.351Y-72.54
X143.351Y-75.08
X143.351Y-77.62
X143.351Y-80.16
X143.351Y-82.7
X143.351Y-85.24
T4
X103.34Y-72.505
X103.34Y-75.045
X103.34Y-77.585
X103.34Y-80.125
X107.05Y-92.75
X107.05Y-95.25
X107.05Y-97.75
X121.55Y-92.75
X121.55Y-97.75
T5
X72.39Y-92.71
X72.39Y-111.76
X72.39Y-130.81
X78.74Y-90.17
X78.74Y-109.22
X78.74Y-128.27
X91.44Y-92.71
X91.44Y-111.76
X91.44Y-130.81
X97.79Y-90.17
X97.79Y-109.22
X97.79Y-128.27
X110.49Y-111.76
X110.49Y-130.81
X116.84Y-109.22
X116.84Y-128.27
T5
G00X113.9Y-89.65
M15
G01X115.2Y-89.65
M16
G05
G00X113.9Y-100.85
M15
G01X115.2Y-100.85
M16
G05
M30
