M48
; DRILL file {KiCad 9.0.2} date 2025-06-30T19:19:16-0700
; FORMAT={-:-/ absolute / metric / decimal}
; #@! TF.CreationDate,2025-06-30T19:19:16-07:00
; #@! TF.GenerationSoftware,Kicad,Pcbnew,9.0.2
; #@! TF.FileFunction,NonPlated,1,2,NPTH
FMAT,2
METRIC
; #@! TA.AperFunction,NonPlated,NPTH,ComponentDrill
T1C1.700
; #@! TA.AperFunction,NonPlated,NPTH,ComponentDrill
T2C4.000
%
G90
G05
T1
X71.12Y-95.25
X71.12Y-114.3
X71.12Y-133.35
X81.28Y-95.25
X81.28Y-114.3
X81.28Y-133.35
X90.17Y-95.25
X90.17Y-114.3
X90.17Y-133.35
X100.33Y-95.25
X100.33Y-114.3
X100.33Y-133.35
X109.22Y-114.3
X109.22Y-133.35
X119.38Y-114.3
X119.38Y-133.35
T2
X76.2Y-95.25
X76.2Y-114.3
X76.2Y-133.35
X95.25Y-95.25
X95.25Y-114.3
X95.25Y-133.35
X114.3Y-114.3
X114.3Y-133.35
M30
