%TF.GenerationSoftware,KiCad,Pcbnew,9.0.2*%
%TF.CreationDate,2025-06-30T15:24:12-07:00*%
%TF.ProjectId,hackpad,6861636b-7061-4642-9e6b-696361645f70,rev?*%
%TF.SameCoordinates,Original*%
%TF.FileFunction,Legend,Top*%
%TF.FilePolarity,Positive*%
%FSLAX46Y46*%
G04 Gerber Fmt 4.6, Leading zero omitted, Abs format (unit mm)*
G04 Created by KiCad (PCBNEW 9.0.2) date 2025-06-30 15:24:12*
%MOMM*%
%LPD*%
G01*
G04 APERTURE LIST*
%ADD10C,0.150000*%
%ADD11C,0.120000*%
%ADD12C,0.000000*%
%ADD13C,0.040000*%
G04 APERTURE END LIST*
D10*
X117980952Y-104454819D02*
X117504762Y-104454819D01*
X117504762Y-104454819D02*
X117504762Y-103454819D01*
X118314286Y-103931009D02*
X118647619Y-103931009D01*
X118790476Y-104454819D02*
X118314286Y-104454819D01*
X118314286Y-104454819D02*
X118314286Y-103454819D01*
X118314286Y-103454819D02*
X118790476Y-103454819D01*
X119219048Y-104454819D02*
X119219048Y-103454819D01*
X119219048Y-103454819D02*
X119457143Y-103454819D01*
X119457143Y-103454819D02*
X119600000Y-103502438D01*
X119600000Y-103502438D02*
X119695238Y-103597676D01*
X119695238Y-103597676D02*
X119742857Y-103692914D01*
X119742857Y-103692914D02*
X119790476Y-103883390D01*
X119790476Y-103883390D02*
X119790476Y-104026247D01*
X119790476Y-104026247D02*
X119742857Y-104216723D01*
X119742857Y-104216723D02*
X119695238Y-104311961D01*
X119695238Y-104311961D02*
X119600000Y-104407200D01*
X119600000Y-104407200D02*
X119457143Y-104454819D01*
X119457143Y-104454819D02*
X119219048Y-104454819D01*
X120123810Y-103454819D02*
X120790476Y-103454819D01*
X120790476Y-103454819D02*
X120361905Y-104454819D01*
X98930952Y-142554819D02*
X98454762Y-142554819D01*
X98454762Y-142554819D02*
X98454762Y-141554819D01*
X99264286Y-142031009D02*
X99597619Y-142031009D01*
X99740476Y-142554819D02*
X99264286Y-142554819D01*
X99264286Y-142554819D02*
X99264286Y-141554819D01*
X99264286Y-141554819D02*
X99740476Y-141554819D01*
X100169048Y-142554819D02*
X100169048Y-141554819D01*
X100169048Y-141554819D02*
X100407143Y-141554819D01*
X100407143Y-141554819D02*
X100550000Y-141602438D01*
X100550000Y-141602438D02*
X100645238Y-141697676D01*
X100645238Y-141697676D02*
X100692857Y-141792914D01*
X100692857Y-141792914D02*
X100740476Y-141983390D01*
X100740476Y-141983390D02*
X100740476Y-142126247D01*
X100740476Y-142126247D02*
X100692857Y-142316723D01*
X100692857Y-142316723D02*
X100645238Y-142411961D01*
X100645238Y-142411961D02*
X100550000Y-142507200D01*
X100550000Y-142507200D02*
X100407143Y-142554819D01*
X100407143Y-142554819D02*
X100169048Y-142554819D01*
X101121429Y-141650057D02*
X101169048Y-141602438D01*
X101169048Y-141602438D02*
X101264286Y-141554819D01*
X101264286Y-141554819D02*
X101502381Y-141554819D01*
X101502381Y-141554819D02*
X101597619Y-141602438D01*
X101597619Y-141602438D02*
X101645238Y-141650057D01*
X101645238Y-141650057D02*
X101692857Y-141745295D01*
X101692857Y-141745295D02*
X101692857Y-141840533D01*
X101692857Y-141840533D02*
X101645238Y-141983390D01*
X101645238Y-141983390D02*
X101073810Y-142554819D01*
X101073810Y-142554819D02*
X101692857Y-142554819D01*
X69166667Y-87807200D02*
X69309524Y-87854819D01*
X69309524Y-87854819D02*
X69547619Y-87854819D01*
X69547619Y-87854819D02*
X69642857Y-87807200D01*
X69642857Y-87807200D02*
X69690476Y-87759580D01*
X69690476Y-87759580D02*
X69738095Y-87664342D01*
X69738095Y-87664342D02*
X69738095Y-87569104D01*
X69738095Y-87569104D02*
X69690476Y-87473866D01*
X69690476Y-87473866D02*
X69642857Y-87426247D01*
X69642857Y-87426247D02*
X69547619Y-87378628D01*
X69547619Y-87378628D02*
X69357143Y-87331009D01*
X69357143Y-87331009D02*
X69261905Y-87283390D01*
X69261905Y-87283390D02*
X69214286Y-87235771D01*
X69214286Y-87235771D02*
X69166667Y-87140533D01*
X69166667Y-87140533D02*
X69166667Y-87045295D01*
X69166667Y-87045295D02*
X69214286Y-86950057D01*
X69214286Y-86950057D02*
X69261905Y-86902438D01*
X69261905Y-86902438D02*
X69357143Y-86854819D01*
X69357143Y-86854819D02*
X69595238Y-86854819D01*
X69595238Y-86854819D02*
X69738095Y-86902438D01*
X70071429Y-86854819D02*
X70309524Y-87854819D01*
X70309524Y-87854819D02*
X70500000Y-87140533D01*
X70500000Y-87140533D02*
X70690476Y-87854819D01*
X70690476Y-87854819D02*
X70928572Y-86854819D01*
X71452381Y-87283390D02*
X71357143Y-87235771D01*
X71357143Y-87235771D02*
X71309524Y-87188152D01*
X71309524Y-87188152D02*
X71261905Y-87092914D01*
X71261905Y-87092914D02*
X71261905Y-87045295D01*
X71261905Y-87045295D02*
X71309524Y-86950057D01*
X71309524Y-86950057D02*
X71357143Y-86902438D01*
X71357143Y-86902438D02*
X71452381Y-86854819D01*
X71452381Y-86854819D02*
X71642857Y-86854819D01*
X71642857Y-86854819D02*
X71738095Y-86902438D01*
X71738095Y-86902438D02*
X71785714Y-86950057D01*
X71785714Y-86950057D02*
X71833333Y-87045295D01*
X71833333Y-87045295D02*
X71833333Y-87092914D01*
X71833333Y-87092914D02*
X71785714Y-87188152D01*
X71785714Y-87188152D02*
X71738095Y-87235771D01*
X71738095Y-87235771D02*
X71642857Y-87283390D01*
X71642857Y-87283390D02*
X71452381Y-87283390D01*
X71452381Y-87283390D02*
X71357143Y-87331009D01*
X71357143Y-87331009D02*
X71309524Y-87378628D01*
X71309524Y-87378628D02*
X71261905Y-87473866D01*
X71261905Y-87473866D02*
X71261905Y-87664342D01*
X71261905Y-87664342D02*
X71309524Y-87759580D01*
X71309524Y-87759580D02*
X71357143Y-87807200D01*
X71357143Y-87807200D02*
X71452381Y-87854819D01*
X71452381Y-87854819D02*
X71642857Y-87854819D01*
X71642857Y-87854819D02*
X71738095Y-87807200D01*
X71738095Y-87807200D02*
X71785714Y-87759580D01*
X71785714Y-87759580D02*
X71833333Y-87664342D01*
X71833333Y-87664342D02*
X71833333Y-87473866D01*
X71833333Y-87473866D02*
X71785714Y-87378628D01*
X71785714Y-87378628D02*
X71738095Y-87331009D01*
X71738095Y-87331009D02*
X71642857Y-87283390D01*
X69166667Y-106857200D02*
X69309524Y-106904819D01*
X69309524Y-106904819D02*
X69547619Y-106904819D01*
X69547619Y-106904819D02*
X69642857Y-106857200D01*
X69642857Y-106857200D02*
X69690476Y-106809580D01*
X69690476Y-106809580D02*
X69738095Y-106714342D01*
X69738095Y-106714342D02*
X69738095Y-106619104D01*
X69738095Y-106619104D02*
X69690476Y-106523866D01*
X69690476Y-106523866D02*
X69642857Y-106476247D01*
X69642857Y-106476247D02*
X69547619Y-106428628D01*
X69547619Y-106428628D02*
X69357143Y-106381009D01*
X69357143Y-106381009D02*
X69261905Y-106333390D01*
X69261905Y-106333390D02*
X69214286Y-106285771D01*
X69214286Y-106285771D02*
X69166667Y-106190533D01*
X69166667Y-106190533D02*
X69166667Y-106095295D01*
X69166667Y-106095295D02*
X69214286Y-106000057D01*
X69214286Y-106000057D02*
X69261905Y-105952438D01*
X69261905Y-105952438D02*
X69357143Y-105904819D01*
X69357143Y-105904819D02*
X69595238Y-105904819D01*
X69595238Y-105904819D02*
X69738095Y-105952438D01*
X70071429Y-105904819D02*
X70309524Y-106904819D01*
X70309524Y-106904819D02*
X70500000Y-106190533D01*
X70500000Y-106190533D02*
X70690476Y-106904819D01*
X70690476Y-106904819D02*
X70928572Y-105904819D01*
X71261905Y-106000057D02*
X71309524Y-105952438D01*
X71309524Y-105952438D02*
X71404762Y-105904819D01*
X71404762Y-105904819D02*
X71642857Y-105904819D01*
X71642857Y-105904819D02*
X71738095Y-105952438D01*
X71738095Y-105952438D02*
X71785714Y-106000057D01*
X71785714Y-106000057D02*
X71833333Y-106095295D01*
X71833333Y-106095295D02*
X71833333Y-106190533D01*
X71833333Y-106190533D02*
X71785714Y-106333390D01*
X71785714Y-106333390D02*
X71214286Y-106904819D01*
X71214286Y-106904819D02*
X71833333Y-106904819D01*
X79880952Y-142554819D02*
X79404762Y-142554819D01*
X79404762Y-142554819D02*
X79404762Y-141554819D01*
X80214286Y-142031009D02*
X80547619Y-142031009D01*
X80690476Y-142554819D02*
X80214286Y-142554819D01*
X80214286Y-142554819D02*
X80214286Y-141554819D01*
X80214286Y-141554819D02*
X80690476Y-141554819D01*
X81119048Y-142554819D02*
X81119048Y-141554819D01*
X81119048Y-141554819D02*
X81357143Y-141554819D01*
X81357143Y-141554819D02*
X81500000Y-141602438D01*
X81500000Y-141602438D02*
X81595238Y-141697676D01*
X81595238Y-141697676D02*
X81642857Y-141792914D01*
X81642857Y-141792914D02*
X81690476Y-141983390D01*
X81690476Y-141983390D02*
X81690476Y-142126247D01*
X81690476Y-142126247D02*
X81642857Y-142316723D01*
X81642857Y-142316723D02*
X81595238Y-142411961D01*
X81595238Y-142411961D02*
X81500000Y-142507200D01*
X81500000Y-142507200D02*
X81357143Y-142554819D01*
X81357143Y-142554819D02*
X81119048Y-142554819D01*
X82023810Y-141554819D02*
X82642857Y-141554819D01*
X82642857Y-141554819D02*
X82309524Y-141935771D01*
X82309524Y-141935771D02*
X82452381Y-141935771D01*
X82452381Y-141935771D02*
X82547619Y-141983390D01*
X82547619Y-141983390D02*
X82595238Y-142031009D01*
X82595238Y-142031009D02*
X82642857Y-142126247D01*
X82642857Y-142126247D02*
X82642857Y-142364342D01*
X82642857Y-142364342D02*
X82595238Y-142459580D01*
X82595238Y-142459580D02*
X82547619Y-142507200D01*
X82547619Y-142507200D02*
X82452381Y-142554819D01*
X82452381Y-142554819D02*
X82166667Y-142554819D01*
X82166667Y-142554819D02*
X82071429Y-142507200D01*
X82071429Y-142507200D02*
X82023810Y-142459580D01*
X107266667Y-106857200D02*
X107409524Y-106904819D01*
X107409524Y-106904819D02*
X107647619Y-106904819D01*
X107647619Y-106904819D02*
X107742857Y-106857200D01*
X107742857Y-106857200D02*
X107790476Y-106809580D01*
X107790476Y-106809580D02*
X107838095Y-106714342D01*
X107838095Y-106714342D02*
X107838095Y-106619104D01*
X107838095Y-106619104D02*
X107790476Y-106523866D01*
X107790476Y-106523866D02*
X107742857Y-106476247D01*
X107742857Y-106476247D02*
X107647619Y-106428628D01*
X107647619Y-106428628D02*
X107457143Y-106381009D01*
X107457143Y-106381009D02*
X107361905Y-106333390D01*
X107361905Y-106333390D02*
X107314286Y-106285771D01*
X107314286Y-106285771D02*
X107266667Y-106190533D01*
X107266667Y-106190533D02*
X107266667Y-106095295D01*
X107266667Y-106095295D02*
X107314286Y-106000057D01*
X107314286Y-106000057D02*
X107361905Y-105952438D01*
X107361905Y-105952438D02*
X107457143Y-105904819D01*
X107457143Y-105904819D02*
X107695238Y-105904819D01*
X107695238Y-105904819D02*
X107838095Y-105952438D01*
X108171429Y-105904819D02*
X108409524Y-106904819D01*
X108409524Y-106904819D02*
X108600000Y-106190533D01*
X108600000Y-106190533D02*
X108790476Y-106904819D01*
X108790476Y-106904819D02*
X109028572Y-105904819D01*
X109838095Y-106238152D02*
X109838095Y-106904819D01*
X109600000Y-105857200D02*
X109361905Y-106571485D01*
X109361905Y-106571485D02*
X109980952Y-106571485D01*
X79880952Y-104454819D02*
X79404762Y-104454819D01*
X79404762Y-104454819D02*
X79404762Y-103454819D01*
X80214286Y-103931009D02*
X80547619Y-103931009D01*
X80690476Y-104454819D02*
X80214286Y-104454819D01*
X80214286Y-104454819D02*
X80214286Y-103454819D01*
X80214286Y-103454819D02*
X80690476Y-103454819D01*
X81119048Y-104454819D02*
X81119048Y-103454819D01*
X81119048Y-103454819D02*
X81357143Y-103454819D01*
X81357143Y-103454819D02*
X81500000Y-103502438D01*
X81500000Y-103502438D02*
X81595238Y-103597676D01*
X81595238Y-103597676D02*
X81642857Y-103692914D01*
X81642857Y-103692914D02*
X81690476Y-103883390D01*
X81690476Y-103883390D02*
X81690476Y-104026247D01*
X81690476Y-104026247D02*
X81642857Y-104216723D01*
X81642857Y-104216723D02*
X81595238Y-104311961D01*
X81595238Y-104311961D02*
X81500000Y-104407200D01*
X81500000Y-104407200D02*
X81357143Y-104454819D01*
X81357143Y-104454819D02*
X81119048Y-104454819D01*
X82166667Y-104454819D02*
X82357143Y-104454819D01*
X82357143Y-104454819D02*
X82452381Y-104407200D01*
X82452381Y-104407200D02*
X82500000Y-104359580D01*
X82500000Y-104359580D02*
X82595238Y-104216723D01*
X82595238Y-104216723D02*
X82642857Y-104026247D01*
X82642857Y-104026247D02*
X82642857Y-103645295D01*
X82642857Y-103645295D02*
X82595238Y-103550057D01*
X82595238Y-103550057D02*
X82547619Y-103502438D01*
X82547619Y-103502438D02*
X82452381Y-103454819D01*
X82452381Y-103454819D02*
X82261905Y-103454819D01*
X82261905Y-103454819D02*
X82166667Y-103502438D01*
X82166667Y-103502438D02*
X82119048Y-103550057D01*
X82119048Y-103550057D02*
X82071429Y-103645295D01*
X82071429Y-103645295D02*
X82071429Y-103883390D01*
X82071429Y-103883390D02*
X82119048Y-103978628D01*
X82119048Y-103978628D02*
X82166667Y-104026247D01*
X82166667Y-104026247D02*
X82261905Y-104073866D01*
X82261905Y-104073866D02*
X82452381Y-104073866D01*
X82452381Y-104073866D02*
X82547619Y-104026247D01*
X82547619Y-104026247D02*
X82595238Y-103978628D01*
X82595238Y-103978628D02*
X82642857Y-103883390D01*
X69166667Y-125907200D02*
X69309524Y-125954819D01*
X69309524Y-125954819D02*
X69547619Y-125954819D01*
X69547619Y-125954819D02*
X69642857Y-125907200D01*
X69642857Y-125907200D02*
X69690476Y-125859580D01*
X69690476Y-125859580D02*
X69738095Y-125764342D01*
X69738095Y-125764342D02*
X69738095Y-125669104D01*
X69738095Y-125669104D02*
X69690476Y-125573866D01*
X69690476Y-125573866D02*
X69642857Y-125526247D01*
X69642857Y-125526247D02*
X69547619Y-125478628D01*
X69547619Y-125478628D02*
X69357143Y-125431009D01*
X69357143Y-125431009D02*
X69261905Y-125383390D01*
X69261905Y-125383390D02*
X69214286Y-125335771D01*
X69214286Y-125335771D02*
X69166667Y-125240533D01*
X69166667Y-125240533D02*
X69166667Y-125145295D01*
X69166667Y-125145295D02*
X69214286Y-125050057D01*
X69214286Y-125050057D02*
X69261905Y-125002438D01*
X69261905Y-125002438D02*
X69357143Y-124954819D01*
X69357143Y-124954819D02*
X69595238Y-124954819D01*
X69595238Y-124954819D02*
X69738095Y-125002438D01*
X70071429Y-124954819D02*
X70309524Y-125954819D01*
X70309524Y-125954819D02*
X70500000Y-125240533D01*
X70500000Y-125240533D02*
X70690476Y-125954819D01*
X70690476Y-125954819D02*
X70928572Y-124954819D01*
X71785714Y-124954819D02*
X71309524Y-124954819D01*
X71309524Y-124954819D02*
X71261905Y-125431009D01*
X71261905Y-125431009D02*
X71309524Y-125383390D01*
X71309524Y-125383390D02*
X71404762Y-125335771D01*
X71404762Y-125335771D02*
X71642857Y-125335771D01*
X71642857Y-125335771D02*
X71738095Y-125383390D01*
X71738095Y-125383390D02*
X71785714Y-125431009D01*
X71785714Y-125431009D02*
X71833333Y-125526247D01*
X71833333Y-125526247D02*
X71833333Y-125764342D01*
X71833333Y-125764342D02*
X71785714Y-125859580D01*
X71785714Y-125859580D02*
X71738095Y-125907200D01*
X71738095Y-125907200D02*
X71642857Y-125954819D01*
X71642857Y-125954819D02*
X71404762Y-125954819D01*
X71404762Y-125954819D02*
X71309524Y-125907200D01*
X71309524Y-125907200D02*
X71261905Y-125859580D01*
X98930952Y-104454819D02*
X98454762Y-104454819D01*
X98454762Y-104454819D02*
X98454762Y-103454819D01*
X99264286Y-103931009D02*
X99597619Y-103931009D01*
X99740476Y-104454819D02*
X99264286Y-104454819D01*
X99264286Y-104454819D02*
X99264286Y-103454819D01*
X99264286Y-103454819D02*
X99740476Y-103454819D01*
X100169048Y-104454819D02*
X100169048Y-103454819D01*
X100169048Y-103454819D02*
X100407143Y-103454819D01*
X100407143Y-103454819D02*
X100550000Y-103502438D01*
X100550000Y-103502438D02*
X100645238Y-103597676D01*
X100645238Y-103597676D02*
X100692857Y-103692914D01*
X100692857Y-103692914D02*
X100740476Y-103883390D01*
X100740476Y-103883390D02*
X100740476Y-104026247D01*
X100740476Y-104026247D02*
X100692857Y-104216723D01*
X100692857Y-104216723D02*
X100645238Y-104311961D01*
X100645238Y-104311961D02*
X100550000Y-104407200D01*
X100550000Y-104407200D02*
X100407143Y-104454819D01*
X100407143Y-104454819D02*
X100169048Y-104454819D01*
X101311905Y-103883390D02*
X101216667Y-103835771D01*
X101216667Y-103835771D02*
X101169048Y-103788152D01*
X101169048Y-103788152D02*
X101121429Y-103692914D01*
X101121429Y-103692914D02*
X101121429Y-103645295D01*
X101121429Y-103645295D02*
X101169048Y-103550057D01*
X101169048Y-103550057D02*
X101216667Y-103502438D01*
X101216667Y-103502438D02*
X101311905Y-103454819D01*
X101311905Y-103454819D02*
X101502381Y-103454819D01*
X101502381Y-103454819D02*
X101597619Y-103502438D01*
X101597619Y-103502438D02*
X101645238Y-103550057D01*
X101645238Y-103550057D02*
X101692857Y-103645295D01*
X101692857Y-103645295D02*
X101692857Y-103692914D01*
X101692857Y-103692914D02*
X101645238Y-103788152D01*
X101645238Y-103788152D02*
X101597619Y-103835771D01*
X101597619Y-103835771D02*
X101502381Y-103883390D01*
X101502381Y-103883390D02*
X101311905Y-103883390D01*
X101311905Y-103883390D02*
X101216667Y-103931009D01*
X101216667Y-103931009D02*
X101169048Y-103978628D01*
X101169048Y-103978628D02*
X101121429Y-104073866D01*
X101121429Y-104073866D02*
X101121429Y-104264342D01*
X101121429Y-104264342D02*
X101169048Y-104359580D01*
X101169048Y-104359580D02*
X101216667Y-104407200D01*
X101216667Y-104407200D02*
X101311905Y-104454819D01*
X101311905Y-104454819D02*
X101502381Y-104454819D01*
X101502381Y-104454819D02*
X101597619Y-104407200D01*
X101597619Y-104407200D02*
X101645238Y-104359580D01*
X101645238Y-104359580D02*
X101692857Y-104264342D01*
X101692857Y-104264342D02*
X101692857Y-104073866D01*
X101692857Y-104073866D02*
X101645238Y-103978628D01*
X101645238Y-103978628D02*
X101597619Y-103931009D01*
X101597619Y-103931009D02*
X101502381Y-103883390D01*
X88216667Y-106857200D02*
X88359524Y-106904819D01*
X88359524Y-106904819D02*
X88597619Y-106904819D01*
X88597619Y-106904819D02*
X88692857Y-106857200D01*
X88692857Y-106857200D02*
X88740476Y-106809580D01*
X88740476Y-106809580D02*
X88788095Y-106714342D01*
X88788095Y-106714342D02*
X88788095Y-106619104D01*
X88788095Y-106619104D02*
X88740476Y-106523866D01*
X88740476Y-106523866D02*
X88692857Y-106476247D01*
X88692857Y-106476247D02*
X88597619Y-106428628D01*
X88597619Y-106428628D02*
X88407143Y-106381009D01*
X88407143Y-106381009D02*
X88311905Y-106333390D01*
X88311905Y-106333390D02*
X88264286Y-106285771D01*
X88264286Y-106285771D02*
X88216667Y-106190533D01*
X88216667Y-106190533D02*
X88216667Y-106095295D01*
X88216667Y-106095295D02*
X88264286Y-106000057D01*
X88264286Y-106000057D02*
X88311905Y-105952438D01*
X88311905Y-105952438D02*
X88407143Y-105904819D01*
X88407143Y-105904819D02*
X88645238Y-105904819D01*
X88645238Y-105904819D02*
X88788095Y-105952438D01*
X89121429Y-105904819D02*
X89359524Y-106904819D01*
X89359524Y-106904819D02*
X89550000Y-106190533D01*
X89550000Y-106190533D02*
X89740476Y-106904819D01*
X89740476Y-106904819D02*
X89978572Y-105904819D01*
X90264286Y-105904819D02*
X90883333Y-105904819D01*
X90883333Y-105904819D02*
X90550000Y-106285771D01*
X90550000Y-106285771D02*
X90692857Y-106285771D01*
X90692857Y-106285771D02*
X90788095Y-106333390D01*
X90788095Y-106333390D02*
X90835714Y-106381009D01*
X90835714Y-106381009D02*
X90883333Y-106476247D01*
X90883333Y-106476247D02*
X90883333Y-106714342D01*
X90883333Y-106714342D02*
X90835714Y-106809580D01*
X90835714Y-106809580D02*
X90788095Y-106857200D01*
X90788095Y-106857200D02*
X90692857Y-106904819D01*
X90692857Y-106904819D02*
X90407143Y-106904819D01*
X90407143Y-106904819D02*
X90311905Y-106857200D01*
X90311905Y-106857200D02*
X90264286Y-106809580D01*
X88216667Y-125907200D02*
X88359524Y-125954819D01*
X88359524Y-125954819D02*
X88597619Y-125954819D01*
X88597619Y-125954819D02*
X88692857Y-125907200D01*
X88692857Y-125907200D02*
X88740476Y-125859580D01*
X88740476Y-125859580D02*
X88788095Y-125764342D01*
X88788095Y-125764342D02*
X88788095Y-125669104D01*
X88788095Y-125669104D02*
X88740476Y-125573866D01*
X88740476Y-125573866D02*
X88692857Y-125526247D01*
X88692857Y-125526247D02*
X88597619Y-125478628D01*
X88597619Y-125478628D02*
X88407143Y-125431009D01*
X88407143Y-125431009D02*
X88311905Y-125383390D01*
X88311905Y-125383390D02*
X88264286Y-125335771D01*
X88264286Y-125335771D02*
X88216667Y-125240533D01*
X88216667Y-125240533D02*
X88216667Y-125145295D01*
X88216667Y-125145295D02*
X88264286Y-125050057D01*
X88264286Y-125050057D02*
X88311905Y-125002438D01*
X88311905Y-125002438D02*
X88407143Y-124954819D01*
X88407143Y-124954819D02*
X88645238Y-124954819D01*
X88645238Y-124954819D02*
X88788095Y-125002438D01*
X89121429Y-124954819D02*
X89359524Y-125954819D01*
X89359524Y-125954819D02*
X89550000Y-125240533D01*
X89550000Y-125240533D02*
X89740476Y-125954819D01*
X89740476Y-125954819D02*
X89978572Y-124954819D01*
X90788095Y-124954819D02*
X90597619Y-124954819D01*
X90597619Y-124954819D02*
X90502381Y-125002438D01*
X90502381Y-125002438D02*
X90454762Y-125050057D01*
X90454762Y-125050057D02*
X90359524Y-125192914D01*
X90359524Y-125192914D02*
X90311905Y-125383390D01*
X90311905Y-125383390D02*
X90311905Y-125764342D01*
X90311905Y-125764342D02*
X90359524Y-125859580D01*
X90359524Y-125859580D02*
X90407143Y-125907200D01*
X90407143Y-125907200D02*
X90502381Y-125954819D01*
X90502381Y-125954819D02*
X90692857Y-125954819D01*
X90692857Y-125954819D02*
X90788095Y-125907200D01*
X90788095Y-125907200D02*
X90835714Y-125859580D01*
X90835714Y-125859580D02*
X90883333Y-125764342D01*
X90883333Y-125764342D02*
X90883333Y-125526247D01*
X90883333Y-125526247D02*
X90835714Y-125431009D01*
X90835714Y-125431009D02*
X90788095Y-125383390D01*
X90788095Y-125383390D02*
X90692857Y-125335771D01*
X90692857Y-125335771D02*
X90502381Y-125335771D01*
X90502381Y-125335771D02*
X90407143Y-125383390D01*
X90407143Y-125383390D02*
X90359524Y-125431009D01*
X90359524Y-125431009D02*
X90311905Y-125526247D01*
X107266667Y-125907200D02*
X107409524Y-125954819D01*
X107409524Y-125954819D02*
X107647619Y-125954819D01*
X107647619Y-125954819D02*
X107742857Y-125907200D01*
X107742857Y-125907200D02*
X107790476Y-125859580D01*
X107790476Y-125859580D02*
X107838095Y-125764342D01*
X107838095Y-125764342D02*
X107838095Y-125669104D01*
X107838095Y-125669104D02*
X107790476Y-125573866D01*
X107790476Y-125573866D02*
X107742857Y-125526247D01*
X107742857Y-125526247D02*
X107647619Y-125478628D01*
X107647619Y-125478628D02*
X107457143Y-125431009D01*
X107457143Y-125431009D02*
X107361905Y-125383390D01*
X107361905Y-125383390D02*
X107314286Y-125335771D01*
X107314286Y-125335771D02*
X107266667Y-125240533D01*
X107266667Y-125240533D02*
X107266667Y-125145295D01*
X107266667Y-125145295D02*
X107314286Y-125050057D01*
X107314286Y-125050057D02*
X107361905Y-125002438D01*
X107361905Y-125002438D02*
X107457143Y-124954819D01*
X107457143Y-124954819D02*
X107695238Y-124954819D01*
X107695238Y-124954819D02*
X107838095Y-125002438D01*
X108171429Y-124954819D02*
X108409524Y-125954819D01*
X108409524Y-125954819D02*
X108600000Y-125240533D01*
X108600000Y-125240533D02*
X108790476Y-125954819D01*
X108790476Y-125954819D02*
X109028572Y-124954819D01*
X109314286Y-124954819D02*
X109980952Y-124954819D01*
X109980952Y-124954819D02*
X109552381Y-125954819D01*
X68194819Y-76558333D02*
X68909104Y-76558333D01*
X68909104Y-76558333D02*
X69051961Y-76605952D01*
X69051961Y-76605952D02*
X69147200Y-76701190D01*
X69147200Y-76701190D02*
X69194819Y-76844047D01*
X69194819Y-76844047D02*
X69194819Y-76939285D01*
X69194819Y-75558333D02*
X69194819Y-76129761D01*
X69194819Y-75844047D02*
X68194819Y-75844047D01*
X68194819Y-75844047D02*
X68337676Y-75939285D01*
X68337676Y-75939285D02*
X68432914Y-76034523D01*
X68432914Y-76034523D02*
X68480533Y-76129761D01*
X81911428Y-75769819D02*
X82101904Y-75769819D01*
X82101904Y-75769819D02*
X82197142Y-75817438D01*
X82197142Y-75817438D02*
X82292380Y-75912676D01*
X82292380Y-75912676D02*
X82339999Y-76103152D01*
X82339999Y-76103152D02*
X82339999Y-76436485D01*
X82339999Y-76436485D02*
X82292380Y-76626961D01*
X82292380Y-76626961D02*
X82197142Y-76722200D01*
X82197142Y-76722200D02*
X82101904Y-76769819D01*
X82101904Y-76769819D02*
X81911428Y-76769819D01*
X81911428Y-76769819D02*
X81816190Y-76722200D01*
X81816190Y-76722200D02*
X81720952Y-76626961D01*
X81720952Y-76626961D02*
X81673333Y-76436485D01*
X81673333Y-76436485D02*
X81673333Y-76103152D01*
X81673333Y-76103152D02*
X81720952Y-75912676D01*
X81720952Y-75912676D02*
X81816190Y-75817438D01*
X81816190Y-75817438D02*
X81911428Y-75769819D01*
X83244761Y-76769819D02*
X82768571Y-76769819D01*
X82768571Y-76769819D02*
X82768571Y-75769819D01*
X83578095Y-76246009D02*
X83911428Y-76246009D01*
X84054285Y-76769819D02*
X83578095Y-76769819D01*
X83578095Y-76769819D02*
X83578095Y-75769819D01*
X83578095Y-75769819D02*
X84054285Y-75769819D01*
X84482857Y-76769819D02*
X84482857Y-75769819D01*
X84482857Y-75769819D02*
X84720952Y-75769819D01*
X84720952Y-75769819D02*
X84863809Y-75817438D01*
X84863809Y-75817438D02*
X84959047Y-75912676D01*
X84959047Y-75912676D02*
X85006666Y-76007914D01*
X85006666Y-76007914D02*
X85054285Y-76198390D01*
X85054285Y-76198390D02*
X85054285Y-76341247D01*
X85054285Y-76341247D02*
X85006666Y-76531723D01*
X85006666Y-76531723D02*
X84959047Y-76626961D01*
X84959047Y-76626961D02*
X84863809Y-76722200D01*
X84863809Y-76722200D02*
X84720952Y-76769819D01*
X84720952Y-76769819D02*
X84482857Y-76769819D01*
X86244762Y-76769819D02*
X86244762Y-75769819D01*
X86244762Y-75769819D02*
X86625714Y-75769819D01*
X86625714Y-75769819D02*
X86720952Y-75817438D01*
X86720952Y-75817438D02*
X86768571Y-75865057D01*
X86768571Y-75865057D02*
X86816190Y-75960295D01*
X86816190Y-75960295D02*
X86816190Y-76103152D01*
X86816190Y-76103152D02*
X86768571Y-76198390D01*
X86768571Y-76198390D02*
X86720952Y-76246009D01*
X86720952Y-76246009D02*
X86625714Y-76293628D01*
X86625714Y-76293628D02*
X86244762Y-76293628D01*
X87673333Y-76769819D02*
X87673333Y-76246009D01*
X87673333Y-76246009D02*
X87625714Y-76150771D01*
X87625714Y-76150771D02*
X87530476Y-76103152D01*
X87530476Y-76103152D02*
X87340000Y-76103152D01*
X87340000Y-76103152D02*
X87244762Y-76150771D01*
X87673333Y-76722200D02*
X87578095Y-76769819D01*
X87578095Y-76769819D02*
X87340000Y-76769819D01*
X87340000Y-76769819D02*
X87244762Y-76722200D01*
X87244762Y-76722200D02*
X87197143Y-76626961D01*
X87197143Y-76626961D02*
X87197143Y-76531723D01*
X87197143Y-76531723D02*
X87244762Y-76436485D01*
X87244762Y-76436485D02*
X87340000Y-76388866D01*
X87340000Y-76388866D02*
X87578095Y-76388866D01*
X87578095Y-76388866D02*
X87673333Y-76341247D01*
X88149524Y-76103152D02*
X88149524Y-76769819D01*
X88149524Y-76198390D02*
X88197143Y-76150771D01*
X88197143Y-76150771D02*
X88292381Y-76103152D01*
X88292381Y-76103152D02*
X88435238Y-76103152D01*
X88435238Y-76103152D02*
X88530476Y-76150771D01*
X88530476Y-76150771D02*
X88578095Y-76246009D01*
X88578095Y-76246009D02*
X88578095Y-76769819D01*
X89435238Y-76722200D02*
X89340000Y-76769819D01*
X89340000Y-76769819D02*
X89149524Y-76769819D01*
X89149524Y-76769819D02*
X89054286Y-76722200D01*
X89054286Y-76722200D02*
X89006667Y-76626961D01*
X89006667Y-76626961D02*
X89006667Y-76246009D01*
X89006667Y-76246009D02*
X89054286Y-76150771D01*
X89054286Y-76150771D02*
X89149524Y-76103152D01*
X89149524Y-76103152D02*
X89340000Y-76103152D01*
X89340000Y-76103152D02*
X89435238Y-76150771D01*
X89435238Y-76150771D02*
X89482857Y-76246009D01*
X89482857Y-76246009D02*
X89482857Y-76341247D01*
X89482857Y-76341247D02*
X89006667Y-76436485D01*
X90054286Y-76769819D02*
X89959048Y-76722200D01*
X89959048Y-76722200D02*
X89911429Y-76626961D01*
X89911429Y-76626961D02*
X89911429Y-75769819D01*
X101643450Y-81035713D02*
X101679164Y-80928571D01*
X101679164Y-80928571D02*
X101679164Y-80749999D01*
X101679164Y-80749999D02*
X101643450Y-80678571D01*
X101643450Y-80678571D02*
X101607735Y-80642856D01*
X101607735Y-80642856D02*
X101536307Y-80607142D01*
X101536307Y-80607142D02*
X101464878Y-80607142D01*
X101464878Y-80607142D02*
X101393450Y-80642856D01*
X101393450Y-80642856D02*
X101357735Y-80678571D01*
X101357735Y-80678571D02*
X101322021Y-80749999D01*
X101322021Y-80749999D02*
X101286307Y-80892856D01*
X101286307Y-80892856D02*
X101250592Y-80964285D01*
X101250592Y-80964285D02*
X101214878Y-80999999D01*
X101214878Y-80999999D02*
X101143450Y-81035713D01*
X101143450Y-81035713D02*
X101072021Y-81035713D01*
X101072021Y-81035713D02*
X101000592Y-80999999D01*
X101000592Y-80999999D02*
X100964878Y-80964285D01*
X100964878Y-80964285D02*
X100929164Y-80892856D01*
X100929164Y-80892856D02*
X100929164Y-80714285D01*
X100929164Y-80714285D02*
X100964878Y-80607142D01*
X101679164Y-80285713D02*
X100929164Y-80285713D01*
X100929164Y-80285713D02*
X100929164Y-80107142D01*
X100929164Y-80107142D02*
X100964878Y-79999999D01*
X100964878Y-79999999D02*
X101036307Y-79928570D01*
X101036307Y-79928570D02*
X101107735Y-79892856D01*
X101107735Y-79892856D02*
X101250592Y-79857142D01*
X101250592Y-79857142D02*
X101357735Y-79857142D01*
X101357735Y-79857142D02*
X101500592Y-79892856D01*
X101500592Y-79892856D02*
X101572021Y-79928570D01*
X101572021Y-79928570D02*
X101643450Y-79999999D01*
X101643450Y-79999999D02*
X101679164Y-80107142D01*
X101679164Y-80107142D02*
X101679164Y-80285713D01*
X101464878Y-79571427D02*
X101464878Y-79214285D01*
X101679164Y-79642856D02*
X100929164Y-79392856D01*
X100929164Y-79392856D02*
X101679164Y-79142856D01*
X100929164Y-76044999D02*
X101679164Y-75794999D01*
X101679164Y-75794999D02*
X100929164Y-75544999D01*
X101607735Y-74866428D02*
X101643450Y-74902142D01*
X101643450Y-74902142D02*
X101679164Y-75009285D01*
X101679164Y-75009285D02*
X101679164Y-75080713D01*
X101679164Y-75080713D02*
X101643450Y-75187856D01*
X101643450Y-75187856D02*
X101572021Y-75259285D01*
X101572021Y-75259285D02*
X101500592Y-75294999D01*
X101500592Y-75294999D02*
X101357735Y-75330713D01*
X101357735Y-75330713D02*
X101250592Y-75330713D01*
X101250592Y-75330713D02*
X101107735Y-75294999D01*
X101107735Y-75294999D02*
X101036307Y-75259285D01*
X101036307Y-75259285D02*
X100964878Y-75187856D01*
X100964878Y-75187856D02*
X100929164Y-75080713D01*
X100929164Y-75080713D02*
X100929164Y-75009285D01*
X100929164Y-75009285D02*
X100964878Y-74902142D01*
X100964878Y-74902142D02*
X101000592Y-74866428D01*
X101607735Y-74116428D02*
X101643450Y-74152142D01*
X101643450Y-74152142D02*
X101679164Y-74259285D01*
X101679164Y-74259285D02*
X101679164Y-74330713D01*
X101679164Y-74330713D02*
X101643450Y-74437856D01*
X101643450Y-74437856D02*
X101572021Y-74509285D01*
X101572021Y-74509285D02*
X101500592Y-74544999D01*
X101500592Y-74544999D02*
X101357735Y-74580713D01*
X101357735Y-74580713D02*
X101250592Y-74580713D01*
X101250592Y-74580713D02*
X101107735Y-74544999D01*
X101107735Y-74544999D02*
X101036307Y-74509285D01*
X101036307Y-74509285D02*
X100964878Y-74437856D01*
X100964878Y-74437856D02*
X100929164Y-74330713D01*
X100929164Y-74330713D02*
X100929164Y-74259285D01*
X100929164Y-74259285D02*
X100964878Y-74152142D01*
X100964878Y-74152142D02*
X101000592Y-74116428D01*
X100964878Y-73076428D02*
X100929164Y-73147857D01*
X100929164Y-73147857D02*
X100929164Y-73254999D01*
X100929164Y-73254999D02*
X100964878Y-73362142D01*
X100964878Y-73362142D02*
X101036307Y-73433571D01*
X101036307Y-73433571D02*
X101107735Y-73469285D01*
X101107735Y-73469285D02*
X101250592Y-73504999D01*
X101250592Y-73504999D02*
X101357735Y-73504999D01*
X101357735Y-73504999D02*
X101500592Y-73469285D01*
X101500592Y-73469285D02*
X101572021Y-73433571D01*
X101572021Y-73433571D02*
X101643450Y-73362142D01*
X101643450Y-73362142D02*
X101679164Y-73254999D01*
X101679164Y-73254999D02*
X101679164Y-73183571D01*
X101679164Y-73183571D02*
X101643450Y-73076428D01*
X101643450Y-73076428D02*
X101607735Y-73040714D01*
X101607735Y-73040714D02*
X101357735Y-73040714D01*
X101357735Y-73040714D02*
X101357735Y-73183571D01*
X101679164Y-72719285D02*
X100929164Y-72719285D01*
X100929164Y-72719285D02*
X101679164Y-72290714D01*
X101679164Y-72290714D02*
X100929164Y-72290714D01*
X101679164Y-71933571D02*
X100929164Y-71933571D01*
X100929164Y-71933571D02*
X100929164Y-71755000D01*
X100929164Y-71755000D02*
X100964878Y-71647857D01*
X100964878Y-71647857D02*
X101036307Y-71576428D01*
X101036307Y-71576428D02*
X101107735Y-71540714D01*
X101107735Y-71540714D02*
X101250592Y-71505000D01*
X101250592Y-71505000D02*
X101357735Y-71505000D01*
X101357735Y-71505000D02*
X101500592Y-71540714D01*
X101500592Y-71540714D02*
X101572021Y-71576428D01*
X101572021Y-71576428D02*
X101643450Y-71647857D01*
X101643450Y-71647857D02*
X101679164Y-71755000D01*
X101679164Y-71755000D02*
X101679164Y-71933571D01*
X101643450Y-78477856D02*
X101679164Y-78370714D01*
X101679164Y-78370714D02*
X101679164Y-78192142D01*
X101679164Y-78192142D02*
X101643450Y-78120714D01*
X101643450Y-78120714D02*
X101607735Y-78084999D01*
X101607735Y-78084999D02*
X101536307Y-78049285D01*
X101536307Y-78049285D02*
X101464878Y-78049285D01*
X101464878Y-78049285D02*
X101393450Y-78084999D01*
X101393450Y-78084999D02*
X101357735Y-78120714D01*
X101357735Y-78120714D02*
X101322021Y-78192142D01*
X101322021Y-78192142D02*
X101286307Y-78334999D01*
X101286307Y-78334999D02*
X101250592Y-78406428D01*
X101250592Y-78406428D02*
X101214878Y-78442142D01*
X101214878Y-78442142D02*
X101143450Y-78477856D01*
X101143450Y-78477856D02*
X101072021Y-78477856D01*
X101072021Y-78477856D02*
X101000592Y-78442142D01*
X101000592Y-78442142D02*
X100964878Y-78406428D01*
X100964878Y-78406428D02*
X100929164Y-78334999D01*
X100929164Y-78334999D02*
X100929164Y-78156428D01*
X100929164Y-78156428D02*
X100964878Y-78049285D01*
X101607735Y-77299285D02*
X101643450Y-77334999D01*
X101643450Y-77334999D02*
X101679164Y-77442142D01*
X101679164Y-77442142D02*
X101679164Y-77513570D01*
X101679164Y-77513570D02*
X101643450Y-77620713D01*
X101643450Y-77620713D02*
X101572021Y-77692142D01*
X101572021Y-77692142D02*
X101500592Y-77727856D01*
X101500592Y-77727856D02*
X101357735Y-77763570D01*
X101357735Y-77763570D02*
X101250592Y-77763570D01*
X101250592Y-77763570D02*
X101107735Y-77727856D01*
X101107735Y-77727856D02*
X101036307Y-77692142D01*
X101036307Y-77692142D02*
X100964878Y-77620713D01*
X100964878Y-77620713D02*
X100929164Y-77513570D01*
X100929164Y-77513570D02*
X100929164Y-77442142D01*
X100929164Y-77442142D02*
X100964878Y-77334999D01*
X100964878Y-77334999D02*
X101000592Y-77299285D01*
X101679164Y-76620713D02*
X101679164Y-76977856D01*
X101679164Y-76977856D02*
X100929164Y-76977856D01*
X117980952Y-123454819D02*
X117504762Y-123454819D01*
X117504762Y-123454819D02*
X117504762Y-122454819D01*
X118314286Y-122931009D02*
X118647619Y-122931009D01*
X118790476Y-123454819D02*
X118314286Y-123454819D01*
X118314286Y-123454819D02*
X118314286Y-122454819D01*
X118314286Y-122454819D02*
X118790476Y-122454819D01*
X119219048Y-123454819D02*
X119219048Y-122454819D01*
X119219048Y-122454819D02*
X119457143Y-122454819D01*
X119457143Y-122454819D02*
X119600000Y-122502438D01*
X119600000Y-122502438D02*
X119695238Y-122597676D01*
X119695238Y-122597676D02*
X119742857Y-122692914D01*
X119742857Y-122692914D02*
X119790476Y-122883390D01*
X119790476Y-122883390D02*
X119790476Y-123026247D01*
X119790476Y-123026247D02*
X119742857Y-123216723D01*
X119742857Y-123216723D02*
X119695238Y-123311961D01*
X119695238Y-123311961D02*
X119600000Y-123407200D01*
X119600000Y-123407200D02*
X119457143Y-123454819D01*
X119457143Y-123454819D02*
X119219048Y-123454819D01*
X120647619Y-122454819D02*
X120457143Y-122454819D01*
X120457143Y-122454819D02*
X120361905Y-122502438D01*
X120361905Y-122502438D02*
X120314286Y-122550057D01*
X120314286Y-122550057D02*
X120219048Y-122692914D01*
X120219048Y-122692914D02*
X120171429Y-122883390D01*
X120171429Y-122883390D02*
X120171429Y-123264342D01*
X120171429Y-123264342D02*
X120219048Y-123359580D01*
X120219048Y-123359580D02*
X120266667Y-123407200D01*
X120266667Y-123407200D02*
X120361905Y-123454819D01*
X120361905Y-123454819D02*
X120552381Y-123454819D01*
X120552381Y-123454819D02*
X120647619Y-123407200D01*
X120647619Y-123407200D02*
X120695238Y-123359580D01*
X120695238Y-123359580D02*
X120742857Y-123264342D01*
X120742857Y-123264342D02*
X120742857Y-123026247D01*
X120742857Y-123026247D02*
X120695238Y-122931009D01*
X120695238Y-122931009D02*
X120647619Y-122883390D01*
X120647619Y-122883390D02*
X120552381Y-122835771D01*
X120552381Y-122835771D02*
X120361905Y-122835771D01*
X120361905Y-122835771D02*
X120266667Y-122883390D01*
X120266667Y-122883390D02*
X120219048Y-122931009D01*
X120219048Y-122931009D02*
X120171429Y-123026247D01*
X108040476Y-88457200D02*
X108183333Y-88504819D01*
X108183333Y-88504819D02*
X108421428Y-88504819D01*
X108421428Y-88504819D02*
X108516666Y-88457200D01*
X108516666Y-88457200D02*
X108564285Y-88409580D01*
X108564285Y-88409580D02*
X108611904Y-88314342D01*
X108611904Y-88314342D02*
X108611904Y-88219104D01*
X108611904Y-88219104D02*
X108564285Y-88123866D01*
X108564285Y-88123866D02*
X108516666Y-88076247D01*
X108516666Y-88076247D02*
X108421428Y-88028628D01*
X108421428Y-88028628D02*
X108230952Y-87981009D01*
X108230952Y-87981009D02*
X108135714Y-87933390D01*
X108135714Y-87933390D02*
X108088095Y-87885771D01*
X108088095Y-87885771D02*
X108040476Y-87790533D01*
X108040476Y-87790533D02*
X108040476Y-87695295D01*
X108040476Y-87695295D02*
X108088095Y-87600057D01*
X108088095Y-87600057D02*
X108135714Y-87552438D01*
X108135714Y-87552438D02*
X108230952Y-87504819D01*
X108230952Y-87504819D02*
X108469047Y-87504819D01*
X108469047Y-87504819D02*
X108611904Y-87552438D01*
X108945238Y-87504819D02*
X109183333Y-88504819D01*
X109183333Y-88504819D02*
X109373809Y-87790533D01*
X109373809Y-87790533D02*
X109564285Y-88504819D01*
X109564285Y-88504819D02*
X109802381Y-87504819D01*
X110707142Y-88504819D02*
X110135714Y-88504819D01*
X110421428Y-88504819D02*
X110421428Y-87504819D01*
X110421428Y-87504819D02*
X110326190Y-87647676D01*
X110326190Y-87647676D02*
X110230952Y-87742914D01*
X110230952Y-87742914D02*
X110135714Y-87790533D01*
X111659523Y-88504819D02*
X111088095Y-88504819D01*
X111373809Y-88504819D02*
X111373809Y-87504819D01*
X111373809Y-87504819D02*
X111278571Y-87647676D01*
X111278571Y-87647676D02*
X111183333Y-87742914D01*
X111183333Y-87742914D02*
X111088095Y-87790533D01*
X117980952Y-142554819D02*
X117504762Y-142554819D01*
X117504762Y-142554819D02*
X117504762Y-141554819D01*
X118314286Y-142031009D02*
X118647619Y-142031009D01*
X118790476Y-142554819D02*
X118314286Y-142554819D01*
X118314286Y-142554819D02*
X118314286Y-141554819D01*
X118314286Y-141554819D02*
X118790476Y-141554819D01*
X119219048Y-142554819D02*
X119219048Y-141554819D01*
X119219048Y-141554819D02*
X119457143Y-141554819D01*
X119457143Y-141554819D02*
X119600000Y-141602438D01*
X119600000Y-141602438D02*
X119695238Y-141697676D01*
X119695238Y-141697676D02*
X119742857Y-141792914D01*
X119742857Y-141792914D02*
X119790476Y-141983390D01*
X119790476Y-141983390D02*
X119790476Y-142126247D01*
X119790476Y-142126247D02*
X119742857Y-142316723D01*
X119742857Y-142316723D02*
X119695238Y-142411961D01*
X119695238Y-142411961D02*
X119600000Y-142507200D01*
X119600000Y-142507200D02*
X119457143Y-142554819D01*
X119457143Y-142554819D02*
X119219048Y-142554819D01*
X120742857Y-142554819D02*
X120171429Y-142554819D01*
X120457143Y-142554819D02*
X120457143Y-141554819D01*
X120457143Y-141554819D02*
X120361905Y-141697676D01*
X120361905Y-141697676D02*
X120266667Y-141792914D01*
X120266667Y-141792914D02*
X120171429Y-141840533D01*
X88216667Y-87807200D02*
X88359524Y-87854819D01*
X88359524Y-87854819D02*
X88597619Y-87854819D01*
X88597619Y-87854819D02*
X88692857Y-87807200D01*
X88692857Y-87807200D02*
X88740476Y-87759580D01*
X88740476Y-87759580D02*
X88788095Y-87664342D01*
X88788095Y-87664342D02*
X88788095Y-87569104D01*
X88788095Y-87569104D02*
X88740476Y-87473866D01*
X88740476Y-87473866D02*
X88692857Y-87426247D01*
X88692857Y-87426247D02*
X88597619Y-87378628D01*
X88597619Y-87378628D02*
X88407143Y-87331009D01*
X88407143Y-87331009D02*
X88311905Y-87283390D01*
X88311905Y-87283390D02*
X88264286Y-87235771D01*
X88264286Y-87235771D02*
X88216667Y-87140533D01*
X88216667Y-87140533D02*
X88216667Y-87045295D01*
X88216667Y-87045295D02*
X88264286Y-86950057D01*
X88264286Y-86950057D02*
X88311905Y-86902438D01*
X88311905Y-86902438D02*
X88407143Y-86854819D01*
X88407143Y-86854819D02*
X88645238Y-86854819D01*
X88645238Y-86854819D02*
X88788095Y-86902438D01*
X89121429Y-86854819D02*
X89359524Y-87854819D01*
X89359524Y-87854819D02*
X89550000Y-87140533D01*
X89550000Y-87140533D02*
X89740476Y-87854819D01*
X89740476Y-87854819D02*
X89978572Y-86854819D01*
X90883333Y-87854819D02*
X90311905Y-87854819D01*
X90597619Y-87854819D02*
X90597619Y-86854819D01*
X90597619Y-86854819D02*
X90502381Y-86997676D01*
X90502381Y-86997676D02*
X90407143Y-87092914D01*
X90407143Y-87092914D02*
X90311905Y-87140533D01*
X79880952Y-123454819D02*
X79404762Y-123454819D01*
X79404762Y-123454819D02*
X79404762Y-122454819D01*
X80214286Y-122931009D02*
X80547619Y-122931009D01*
X80690476Y-123454819D02*
X80214286Y-123454819D01*
X80214286Y-123454819D02*
X80214286Y-122454819D01*
X80214286Y-122454819D02*
X80690476Y-122454819D01*
X81119048Y-123454819D02*
X81119048Y-122454819D01*
X81119048Y-122454819D02*
X81357143Y-122454819D01*
X81357143Y-122454819D02*
X81500000Y-122502438D01*
X81500000Y-122502438D02*
X81595238Y-122597676D01*
X81595238Y-122597676D02*
X81642857Y-122692914D01*
X81642857Y-122692914D02*
X81690476Y-122883390D01*
X81690476Y-122883390D02*
X81690476Y-123026247D01*
X81690476Y-123026247D02*
X81642857Y-123216723D01*
X81642857Y-123216723D02*
X81595238Y-123311961D01*
X81595238Y-123311961D02*
X81500000Y-123407200D01*
X81500000Y-123407200D02*
X81357143Y-123454819D01*
X81357143Y-123454819D02*
X81119048Y-123454819D01*
X82547619Y-122788152D02*
X82547619Y-123454819D01*
X82309524Y-122407200D02*
X82071429Y-123121485D01*
X82071429Y-123121485D02*
X82690476Y-123121485D01*
X98930952Y-123454819D02*
X98454762Y-123454819D01*
X98454762Y-123454819D02*
X98454762Y-122454819D01*
X99264286Y-122931009D02*
X99597619Y-122931009D01*
X99740476Y-123454819D02*
X99264286Y-123454819D01*
X99264286Y-123454819D02*
X99264286Y-122454819D01*
X99264286Y-122454819D02*
X99740476Y-122454819D01*
X100169048Y-123454819D02*
X100169048Y-122454819D01*
X100169048Y-122454819D02*
X100407143Y-122454819D01*
X100407143Y-122454819D02*
X100550000Y-122502438D01*
X100550000Y-122502438D02*
X100645238Y-122597676D01*
X100645238Y-122597676D02*
X100692857Y-122692914D01*
X100692857Y-122692914D02*
X100740476Y-122883390D01*
X100740476Y-122883390D02*
X100740476Y-123026247D01*
X100740476Y-123026247D02*
X100692857Y-123216723D01*
X100692857Y-123216723D02*
X100645238Y-123311961D01*
X100645238Y-123311961D02*
X100550000Y-123407200D01*
X100550000Y-123407200D02*
X100407143Y-123454819D01*
X100407143Y-123454819D02*
X100169048Y-123454819D01*
X101645238Y-122454819D02*
X101169048Y-122454819D01*
X101169048Y-122454819D02*
X101121429Y-122931009D01*
X101121429Y-122931009D02*
X101169048Y-122883390D01*
X101169048Y-122883390D02*
X101264286Y-122835771D01*
X101264286Y-122835771D02*
X101502381Y-122835771D01*
X101502381Y-122835771D02*
X101597619Y-122883390D01*
X101597619Y-122883390D02*
X101645238Y-122931009D01*
X101645238Y-122931009D02*
X101692857Y-123026247D01*
X101692857Y-123026247D02*
X101692857Y-123264342D01*
X101692857Y-123264342D02*
X101645238Y-123359580D01*
X101645238Y-123359580D02*
X101597619Y-123407200D01*
X101597619Y-123407200D02*
X101502381Y-123454819D01*
X101502381Y-123454819D02*
X101264286Y-123454819D01*
X101264286Y-123454819D02*
X101169048Y-123407200D01*
X101169048Y-123407200D02*
X101121429Y-123359580D01*
D11*
%TO.C,LED7*%
X111500000Y-102775000D02*
X111500000Y-106775000D01*
X111500000Y-102775000D02*
X117100000Y-102775000D01*
X111500000Y-106775000D02*
X116500000Y-106775000D01*
X117100000Y-106175000D02*
X116500000Y-106775000D01*
X117100000Y-106175000D02*
X117100000Y-102775000D01*
%TO.C,LED2*%
X92450000Y-140875000D02*
X92450000Y-144875000D01*
X92450000Y-140875000D02*
X98050000Y-140875000D01*
X92450000Y-144875000D02*
X97450000Y-144875000D01*
X98050000Y-144275000D02*
X97450000Y-144875000D01*
X98050000Y-144275000D02*
X98050000Y-140875000D01*
%TO.C,SW8*%
X69215000Y-88265000D02*
X83185000Y-88265000D01*
X69215000Y-102235000D02*
X69215000Y-88265000D01*
X83185000Y-88265000D02*
X83185000Y-102235000D01*
X83185000Y-102235000D02*
X69215000Y-102235000D01*
%TO.C,SW2*%
X69215000Y-107315000D02*
X83185000Y-107315000D01*
X69215000Y-121285000D02*
X69215000Y-107315000D01*
X83185000Y-107315000D02*
X83185000Y-121285000D01*
X83185000Y-121285000D02*
X69215000Y-121285000D01*
%TO.C,LED3*%
X73400000Y-140875000D02*
X73400000Y-144875000D01*
X73400000Y-140875000D02*
X79000000Y-140875000D01*
X73400000Y-144875000D02*
X78400000Y-144875000D01*
X79000000Y-144275000D02*
X78400000Y-144875000D01*
X79000000Y-144275000D02*
X79000000Y-140875000D01*
%TO.C,SW4*%
X107315000Y-107315000D02*
X121285000Y-107315000D01*
X107315000Y-121285000D02*
X107315000Y-107315000D01*
X121285000Y-107315000D02*
X121285000Y-121285000D01*
X121285000Y-121285000D02*
X107315000Y-121285000D01*
%TO.C,LED9*%
X73400000Y-102775000D02*
X73400000Y-106775000D01*
X73400000Y-102775000D02*
X79000000Y-102775000D01*
X73400000Y-106775000D02*
X78400000Y-106775000D01*
X79000000Y-106175000D02*
X78400000Y-106775000D01*
X79000000Y-106175000D02*
X79000000Y-102775000D01*
%TO.C,SW5*%
X69215000Y-126365000D02*
X83185000Y-126365000D01*
X69215000Y-140335000D02*
X69215000Y-126365000D01*
X83185000Y-126365000D02*
X83185000Y-140335000D01*
X83185000Y-140335000D02*
X69215000Y-140335000D01*
D12*
%TO.C,G\u002A\u002A\u002A*%
G36*
X143334702Y-112241141D02*
G01*
X143380989Y-112279691D01*
X143412086Y-112328893D01*
X143418377Y-112359462D01*
X143406775Y-112407625D01*
X143386468Y-112442318D01*
X143364118Y-112457519D01*
X143312343Y-112486424D01*
X143234705Y-112527313D01*
X143134765Y-112578467D01*
X143016083Y-112638165D01*
X142882222Y-112704688D01*
X142736742Y-112776316D01*
X142583205Y-112851330D01*
X142425172Y-112928009D01*
X142266204Y-113004634D01*
X142109862Y-113079485D01*
X141959708Y-113150841D01*
X141819302Y-113216985D01*
X141692206Y-113276194D01*
X141581981Y-113326751D01*
X141492189Y-113366934D01*
X141426390Y-113395025D01*
X141388146Y-113409303D01*
X141381083Y-113410767D01*
X141338772Y-113398244D01*
X141295224Y-113367912D01*
X141293284Y-113366011D01*
X141255923Y-113307843D01*
X141253206Y-113246462D01*
X141280438Y-113193895D01*
X141302804Y-113178656D01*
X141354597Y-113149713D01*
X141432256Y-113108788D01*
X141532217Y-113057601D01*
X141650918Y-112997873D01*
X141784796Y-112931325D01*
X141930290Y-112859676D01*
X142083837Y-112784647D01*
X142241874Y-112707959D01*
X142400839Y-112631332D01*
X142557170Y-112556487D01*
X142707304Y-112485145D01*
X142847679Y-112419025D01*
X142974733Y-112359848D01*
X143084902Y-112309335D01*
X143174626Y-112269206D01*
X143240341Y-112241182D01*
X143278484Y-112226983D01*
X143285445Y-112225556D01*
X143334702Y-112241141D01*
G37*
G36*
X143361803Y-113912206D02*
G01*
X143408178Y-113945932D01*
X143447165Y-114005153D01*
X143450406Y-114067286D01*
X143427817Y-114115900D01*
X143406816Y-114131360D01*
X143356713Y-114161420D01*
X143280978Y-114204280D01*
X143183079Y-114258136D01*
X143066487Y-114321187D01*
X142934671Y-114391631D01*
X142791099Y-114467665D01*
X142639241Y-114547488D01*
X142482566Y-114629298D01*
X142324544Y-114711291D01*
X142168643Y-114791668D01*
X142018334Y-114868624D01*
X141877084Y-114940359D01*
X141748365Y-115005070D01*
X141635644Y-115060954D01*
X141542391Y-115106211D01*
X141472075Y-115139038D01*
X141428166Y-115157633D01*
X141415388Y-115161234D01*
X141374692Y-115148771D01*
X141331884Y-115118565D01*
X141329752Y-115116478D01*
X141292250Y-115058286D01*
X141290627Y-114997280D01*
X141324968Y-114937576D01*
X141326023Y-114936422D01*
X141349647Y-114919925D01*
X141402305Y-114888859D01*
X141480457Y-114845059D01*
X141580567Y-114790360D01*
X141699097Y-114726598D01*
X141832508Y-114655607D01*
X141977265Y-114579222D01*
X142129828Y-114499279D01*
X142286660Y-114417612D01*
X142444223Y-114336057D01*
X142598981Y-114256448D01*
X142747394Y-114180621D01*
X142885926Y-114110411D01*
X143011039Y-114047652D01*
X143119195Y-113994180D01*
X143206857Y-113951829D01*
X143270486Y-113922436D01*
X143306545Y-113907834D01*
X143311287Y-113906636D01*
X143361803Y-113912206D01*
G37*
G36*
X143444159Y-113225771D02*
G01*
X143490360Y-113264295D01*
X143521450Y-113313448D01*
X143527781Y-113344099D01*
X143516188Y-113392261D01*
X143495872Y-113427008D01*
X143473628Y-113442106D01*
X143421904Y-113470971D01*
X143344193Y-113511913D01*
X143243987Y-113563244D01*
X143124779Y-113623275D01*
X142990061Y-113690317D01*
X142843326Y-113762682D01*
X142688066Y-113838681D01*
X142527774Y-113916624D01*
X142365942Y-113994824D01*
X142206064Y-114071591D01*
X142051631Y-114145236D01*
X141906136Y-114214071D01*
X141773071Y-114276408D01*
X141655930Y-114330556D01*
X141558205Y-114374828D01*
X141483388Y-114407535D01*
X141434971Y-114426987D01*
X141417726Y-114431873D01*
X141375284Y-114419344D01*
X141331677Y-114389003D01*
X141329752Y-114387117D01*
X141292397Y-114328963D01*
X141289665Y-114267611D01*
X141316906Y-114215058D01*
X141339150Y-114199960D01*
X141390873Y-114171095D01*
X141468584Y-114130153D01*
X141568790Y-114078822D01*
X141687999Y-114018791D01*
X141822717Y-113951749D01*
X141969452Y-113879384D01*
X142124712Y-113803385D01*
X142285004Y-113725442D01*
X142446835Y-113647242D01*
X142606714Y-113570475D01*
X142761147Y-113496830D01*
X142906642Y-113427995D01*
X143039706Y-113365658D01*
X143156847Y-113311510D01*
X143254573Y-113267238D01*
X143329390Y-113234531D01*
X143377806Y-113215079D01*
X143395052Y-113210193D01*
X143444159Y-113225771D01*
G37*
G36*
X143427590Y-114585566D02*
G01*
X143467955Y-114627453D01*
X143487449Y-114682046D01*
X143479249Y-114741524D01*
X143472430Y-114755607D01*
X143445633Y-114784194D01*
X143391310Y-114826755D01*
X143314053Y-114879988D01*
X143218448Y-114940588D01*
X143199521Y-114952099D01*
X142923169Y-115119057D01*
X142676348Y-115268010D01*
X142457439Y-115399912D01*
X142264820Y-115515717D01*
X142096872Y-115616379D01*
X141951974Y-115702851D01*
X141828505Y-115776086D01*
X141724844Y-115837040D01*
X141639371Y-115886665D01*
X141570465Y-115925916D01*
X141516506Y-115955746D01*
X141475872Y-115977108D01*
X141446944Y-115990958D01*
X141428101Y-115998247D01*
X141418953Y-115999999D01*
X141375592Y-115987436D01*
X141331568Y-115957024D01*
X141329752Y-115955243D01*
X141292249Y-115897049D01*
X141290629Y-115836035D01*
X141324976Y-115776310D01*
X141326023Y-115775166D01*
X141348158Y-115758563D01*
X141398310Y-115725333D01*
X141473152Y-115677492D01*
X141569360Y-115617057D01*
X141683608Y-115546045D01*
X141812570Y-115466472D01*
X141952921Y-115380354D01*
X142101335Y-115289708D01*
X142254487Y-115196552D01*
X142409050Y-115102900D01*
X142561700Y-115010771D01*
X142709110Y-114922179D01*
X142847955Y-114839143D01*
X142974911Y-114763678D01*
X143086650Y-114697801D01*
X143179847Y-114643529D01*
X143251178Y-114602878D01*
X143297315Y-114577865D01*
X143311541Y-114571195D01*
X143373177Y-114564206D01*
X143427590Y-114585566D01*
G37*
G36*
X138528879Y-115044131D02*
G01*
X138551278Y-115056372D01*
X138616708Y-115078670D01*
X138654627Y-115076435D01*
X138687146Y-115071181D01*
X138692449Y-115083219D01*
X138686293Y-115099244D01*
X138675952Y-115137097D01*
X138666838Y-115194952D01*
X138663373Y-115229612D01*
X138660606Y-115285866D01*
X138665232Y-115314751D01*
X138679628Y-115325021D01*
X138689518Y-115325895D01*
X138712184Y-115327981D01*
X138703664Y-115337470D01*
X138687774Y-115346955D01*
X138637266Y-115371363D01*
X138571899Y-115396746D01*
X138505056Y-115418566D01*
X138450119Y-115432286D01*
X138428871Y-115434744D01*
X138388022Y-115452501D01*
X138352370Y-115497486D01*
X138300848Y-115550561D01*
X138219884Y-115589280D01*
X138114249Y-115611910D01*
X138022354Y-115617282D01*
X137908800Y-115627742D01*
X137785969Y-115660209D01*
X137684309Y-115699432D01*
X137587761Y-115722301D01*
X137538436Y-115720276D01*
X137480236Y-115719903D01*
X137393976Y-115729721D01*
X137286359Y-115748898D01*
X137255276Y-115755407D01*
X137167548Y-115774318D01*
X137088790Y-115791300D01*
X137028258Y-115804357D01*
X136997378Y-115811023D01*
X136976555Y-115816879D01*
X136969244Y-115826275D01*
X136978491Y-115844181D01*
X137007340Y-115875568D01*
X137058835Y-115925404D01*
X137079431Y-115944958D01*
X137202402Y-116056369D01*
X137318858Y-116149744D01*
X137443439Y-116236752D01*
X137454908Y-116244252D01*
X137515893Y-116287991D01*
X137583241Y-116342173D01*
X137619014Y-116373684D01*
X137670774Y-116417368D01*
X137741980Y-116472071D01*
X137821299Y-116529253D01*
X137866506Y-116560157D01*
X137936719Y-116608283D01*
X137997240Y-116652055D01*
X138040445Y-116685827D01*
X138056818Y-116701099D01*
X138087631Y-116727082D01*
X138137698Y-116758969D01*
X138169736Y-116776343D01*
X138246460Y-116825509D01*
X138286872Y-116876797D01*
X138290936Y-116930112D01*
X138258618Y-116985360D01*
X138249859Y-116994583D01*
X138188436Y-117031286D01*
X138109913Y-117038817D01*
X138018950Y-117017270D01*
X137957286Y-116988769D01*
X137888896Y-116942086D01*
X137843948Y-116891819D01*
X137838765Y-116882336D01*
X137809614Y-116844214D01*
X137752310Y-116793840D01*
X137665078Y-116729755D01*
X137598667Y-116684797D01*
X137513699Y-116627519D01*
X137433041Y-116571296D01*
X137365017Y-116522053D01*
X137317954Y-116485714D01*
X137312873Y-116481449D01*
X137246289Y-116429251D01*
X137156192Y-116365319D01*
X137051177Y-116295209D01*
X136939841Y-116224479D01*
X136830778Y-116158684D01*
X136732583Y-116103382D01*
X136708139Y-116090499D01*
X136613611Y-116036076D01*
X136529928Y-115977447D01*
X136462537Y-115919360D01*
X136416885Y-115866561D01*
X136398419Y-115823795D01*
X136398277Y-115820497D01*
X136415145Y-115768826D01*
X136462108Y-115714364D01*
X136533705Y-115662422D01*
X136592285Y-115631879D01*
X136680785Y-115595583D01*
X136794938Y-115554506D01*
X136924795Y-115511769D01*
X137060406Y-115470493D01*
X137191822Y-115433801D01*
X137309095Y-115404814D01*
X137332146Y-115399751D01*
X137418599Y-115379423D01*
X137500909Y-115356831D01*
X137566242Y-115335625D01*
X137587423Y-115327179D01*
X137641469Y-115305584D01*
X137718075Y-115278224D01*
X137810250Y-115247260D01*
X137911002Y-115214849D01*
X138013337Y-115183152D01*
X138110265Y-115154328D01*
X138194793Y-115130535D01*
X138259929Y-115113933D01*
X138298681Y-115106680D01*
X138301948Y-115106532D01*
X138348580Y-115097485D01*
X138405419Y-115074868D01*
X138423136Y-115065505D01*
X138468934Y-115041122D01*
X138498997Y-115034367D01*
X138528879Y-115044131D01*
G37*
G36*
X130635084Y-113008955D02*
G01*
X130685955Y-113015675D01*
X130723638Y-113005493D01*
X130760516Y-112995231D01*
X130792965Y-112999560D01*
X130834720Y-113021698D01*
X130858273Y-113037039D01*
X130920524Y-113081690D01*
X130982527Y-113130965D01*
X131001005Y-113146990D01*
X131056840Y-113191429D01*
X131123586Y-113236900D01*
X131150818Y-113253269D01*
X131211210Y-113294567D01*
X131265750Y-113343193D01*
X131284483Y-113364677D01*
X131327269Y-113408348D01*
X131387491Y-113455265D01*
X131433024Y-113484105D01*
X131487480Y-113519459D01*
X131527703Y-113554179D01*
X131543318Y-113577075D01*
X131564336Y-113605254D01*
X131608586Y-113638905D01*
X131646113Y-113660339D01*
X131756697Y-113722033D01*
X131857318Y-113789022D01*
X131939941Y-113855443D01*
X131996532Y-113915431D01*
X131997593Y-113916864D01*
X132032031Y-113959688D01*
X132083710Y-114019091D01*
X132144305Y-114085645D01*
X132180783Y-114124359D01*
X132235624Y-114184108D01*
X132279184Y-114236096D01*
X132306180Y-114273735D01*
X132312385Y-114288465D01*
X132303171Y-114318860D01*
X132281748Y-114365808D01*
X132271358Y-114385544D01*
X132227986Y-114445769D01*
X132162938Y-114504298D01*
X132071302Y-114564997D01*
X131978252Y-114616313D01*
X131906885Y-114658319D01*
X131827050Y-114712611D01*
X131762397Y-114762325D01*
X131689867Y-114817313D01*
X131607978Y-114871453D01*
X131541895Y-114909052D01*
X131464937Y-114950644D01*
X131379168Y-115001064D01*
X131316521Y-115040701D01*
X131201516Y-115116198D01*
X131112023Y-115172628D01*
X131043705Y-115211876D01*
X130992227Y-115235827D01*
X130953252Y-115246368D01*
X130922444Y-115245384D01*
X130895467Y-115234759D01*
X130884965Y-115228356D01*
X130846077Y-115206481D01*
X130819915Y-115197702D01*
X130797919Y-115209035D01*
X130757919Y-115238727D01*
X130709260Y-115279755D01*
X130646166Y-115330961D01*
X130597944Y-115355674D01*
X130556458Y-115355693D01*
X130513567Y-115332814D01*
X130503526Y-115325196D01*
X130476361Y-115298816D01*
X130462537Y-115266706D01*
X130458004Y-115216379D01*
X130457916Y-115184568D01*
X130460450Y-115124062D01*
X130471046Y-115082621D01*
X130496220Y-115045244D01*
X130537031Y-115002372D01*
X130597111Y-114950267D01*
X130646391Y-114926581D01*
X130666794Y-114924182D01*
X130724908Y-114914589D01*
X130801436Y-114888898D01*
X130887278Y-114851714D01*
X130973330Y-114807646D01*
X131050490Y-114761301D01*
X131109655Y-114717285D01*
X131138963Y-114685202D01*
X131161585Y-114667111D01*
X131206782Y-114641749D01*
X131247692Y-114622323D01*
X131314701Y-114587957D01*
X131378333Y-114547757D01*
X131404906Y-114527334D01*
X131468185Y-114480457D01*
X131544253Y-114435186D01*
X131624089Y-114395684D01*
X131698671Y-114366117D01*
X131758977Y-114350646D01*
X131788073Y-114350480D01*
X131828166Y-114353111D01*
X131839770Y-114341195D01*
X131827659Y-114321028D01*
X131794564Y-114280715D01*
X131745345Y-114225842D01*
X131684858Y-114161993D01*
X131675954Y-114152847D01*
X131603165Y-114078012D01*
X131514730Y-113986603D01*
X131420146Y-113888464D01*
X131328908Y-113793436D01*
X131297598Y-113760719D01*
X131207896Y-113668516D01*
X131133661Y-113597314D01*
X131066428Y-113540596D01*
X130997729Y-113491845D01*
X130919099Y-113444547D01*
X130822071Y-113392186D01*
X130811795Y-113386819D01*
X130745533Y-113362502D01*
X130670781Y-113349110D01*
X130654837Y-113348282D01*
X130578527Y-113338377D01*
X130524990Y-113307925D01*
X130483360Y-113250459D01*
X130480133Y-113244336D01*
X130455631Y-113165943D01*
X130463123Y-113093079D01*
X130498740Y-113036141D01*
X130549594Y-112998901D01*
X130599359Y-112994849D01*
X130635084Y-113008955D01*
G37*
G36*
X132882355Y-115995897D02*
G01*
X133039437Y-116035450D01*
X133155270Y-116083395D01*
X133211415Y-116108660D01*
X133259092Y-116124676D01*
X133277449Y-116127637D01*
X133312612Y-116134922D01*
X133366759Y-116153714D01*
X133410251Y-116172004D01*
X133465812Y-116194113D01*
X133551679Y-116224324D01*
X133662968Y-116261167D01*
X133794795Y-116303174D01*
X133942277Y-116348877D01*
X134100530Y-116396805D01*
X134264670Y-116445491D01*
X134429814Y-116493465D01*
X134591076Y-116539259D01*
X134743575Y-116581403D01*
X134882425Y-116618430D01*
X134963653Y-116639209D01*
X135075395Y-116667651D01*
X135199484Y-116699971D01*
X135318077Y-116731491D01*
X135386288Y-116750028D01*
X135478463Y-116775408D01*
X135568491Y-116800200D01*
X135644192Y-116821052D01*
X135682591Y-116831633D01*
X135741638Y-116851354D01*
X135771233Y-116871497D01*
X135778320Y-116892765D01*
X135791688Y-116921768D01*
X135828463Y-116933282D01*
X135854702Y-116938128D01*
X135870137Y-116950653D01*
X135878204Y-116979157D01*
X135882335Y-117031941D01*
X135883883Y-117067211D01*
X135889159Y-117195370D01*
X135815936Y-117249551D01*
X135773687Y-117283267D01*
X135747020Y-117309261D01*
X135742283Y-117317408D01*
X135725864Y-117326257D01*
X135685705Y-117331033D01*
X135673474Y-117331291D01*
X135634131Y-117339846D01*
X135568676Y-117363516D01*
X135482776Y-117399525D01*
X135382099Y-117445101D01*
X135272313Y-117497468D01*
X135159086Y-117553854D01*
X135048084Y-117611484D01*
X134944976Y-117667584D01*
X134855428Y-117719380D01*
X134785110Y-117764099D01*
X134775448Y-117770817D01*
X134709085Y-117814687D01*
X134622702Y-117867498D01*
X134528830Y-117921753D01*
X134461211Y-117958798D01*
X134384684Y-118000417D01*
X134320364Y-118037077D01*
X134274934Y-118064853D01*
X134255078Y-118079817D01*
X134255002Y-118079934D01*
X134232987Y-118087992D01*
X134184171Y-118093979D01*
X134118209Y-118096818D01*
X134103223Y-118096912D01*
X133961937Y-118096912D01*
X133899167Y-118013362D01*
X133856205Y-117955504D01*
X133803328Y-117883350D01*
X133751809Y-117812284D01*
X133750665Y-117810696D01*
X133693335Y-117735571D01*
X133624932Y-117652418D01*
X133560116Y-117579049D01*
X133559208Y-117578073D01*
X133491556Y-117502692D01*
X133423441Y-117422003D01*
X133359159Y-117341650D01*
X133303006Y-117267280D01*
X133259275Y-117204538D01*
X133232262Y-117159067D01*
X133225556Y-117139528D01*
X133214358Y-117112086D01*
X133184655Y-117066265D01*
X133142284Y-117010844D01*
X133130696Y-116996873D01*
X133075765Y-116933996D01*
X133009139Y-116861267D01*
X132935318Y-116783206D01*
X132858800Y-116704332D01*
X132784084Y-116629167D01*
X132715669Y-116562230D01*
X132658054Y-116508041D01*
X132615739Y-116471121D01*
X132593223Y-116455991D01*
X132592209Y-116455850D01*
X132579709Y-116443902D01*
X132572286Y-116405253D01*
X132571525Y-116387690D01*
X133056593Y-116387690D01*
X133066793Y-116403439D01*
X133090064Y-116432293D01*
X133128301Y-116476387D01*
X133183399Y-116537851D01*
X133257251Y-116618818D01*
X133351751Y-116721422D01*
X133468795Y-116847795D01*
X133508721Y-116890804D01*
X133606636Y-116998037D01*
X133683323Y-117086706D01*
X133743945Y-117163414D01*
X133793665Y-117234765D01*
X133837647Y-117307363D01*
X133845850Y-117321966D01*
X133903277Y-117420668D01*
X133964509Y-117518108D01*
X134023686Y-117605472D01*
X134074951Y-117673946D01*
X134096760Y-117699404D01*
X134142321Y-117748630D01*
X134281103Y-117673869D01*
X134365725Y-117625618D01*
X134456751Y-117569576D01*
X134535144Y-117517484D01*
X134538406Y-117515182D01*
X134590876Y-117481511D01*
X134669206Y-117435772D01*
X134766441Y-117381806D01*
X134875624Y-117323452D01*
X134989801Y-117264551D01*
X135018755Y-117249967D01*
X135380583Y-117068677D01*
X135228446Y-117027064D01*
X135155194Y-117007355D01*
X135057551Y-116981548D01*
X134946475Y-116952516D01*
X134832921Y-116923131D01*
X134792159Y-116912664D01*
X134640633Y-116872958D01*
X134476521Y-116828377D01*
X134304423Y-116780301D01*
X134128939Y-116730108D01*
X133954667Y-116679177D01*
X133786206Y-116628887D01*
X133628156Y-116580618D01*
X133485116Y-116535747D01*
X133361685Y-116495654D01*
X133262462Y-116461717D01*
X133192047Y-116435317D01*
X133173209Y-116427280D01*
X133117567Y-116403349D01*
X133074724Y-116387240D01*
X133057570Y-116382914D01*
X133056593Y-116387690D01*
X132571525Y-116387690D01*
X132569274Y-116335699D01*
X132569131Y-116309978D01*
X132571264Y-116237738D01*
X132577086Y-116186974D01*
X132585734Y-116164592D01*
X132587365Y-116164105D01*
X132597767Y-116147706D01*
X132604369Y-116105776D01*
X132605599Y-116072935D01*
X132605599Y-115981765D01*
X132726047Y-115981765D01*
X132882355Y-115995897D01*
G37*
G36*
X143925362Y-111112419D02*
G01*
X143974376Y-111163334D01*
X144007602Y-111235865D01*
X144012450Y-111254519D01*
X144016845Y-111280778D01*
X144020844Y-111316788D01*
X144024503Y-111364699D01*
X144027876Y-111426658D01*
X144031021Y-111504814D01*
X144033993Y-111601315D01*
X144036846Y-111718310D01*
X144039639Y-111857947D01*
X144042425Y-112022373D01*
X144045261Y-112213737D01*
X144048202Y-112434189D01*
X144051305Y-112685875D01*
X144054625Y-112970944D01*
X144056153Y-113106057D01*
X144060171Y-113447457D01*
X144064158Y-113752711D01*
X144068121Y-114022138D01*
X144072067Y-114256061D01*
X144076002Y-114454799D01*
X144079934Y-114618674D01*
X144083871Y-114748007D01*
X144087818Y-114843119D01*
X144091783Y-114904330D01*
X144095772Y-114931962D01*
X144096032Y-114932602D01*
X144107391Y-114997741D01*
X144085051Y-115060823D01*
X144042894Y-115105920D01*
X144012997Y-115126228D01*
X143955313Y-115162797D01*
X143872422Y-115214098D01*
X143766903Y-115278599D01*
X143641335Y-115354772D01*
X143498299Y-115441084D01*
X143340374Y-115536005D01*
X143170138Y-115638006D01*
X142990172Y-115745556D01*
X142803054Y-115857124D01*
X142611365Y-115971180D01*
X142417684Y-116086193D01*
X142224590Y-116200634D01*
X142034663Y-116312971D01*
X141850482Y-116421674D01*
X141674627Y-116525214D01*
X141509676Y-116622058D01*
X141358211Y-116710678D01*
X141222809Y-116789542D01*
X141106051Y-116857121D01*
X141010515Y-116911883D01*
X140938782Y-116952298D01*
X140893431Y-116976837D01*
X140877334Y-116984082D01*
X140829081Y-116974809D01*
X140806225Y-116964870D01*
X140778058Y-116937379D01*
X140746832Y-116891514D01*
X140738128Y-116875531D01*
X140732452Y-116863102D01*
X140727284Y-116847801D01*
X140722534Y-116827557D01*
X140718113Y-116800299D01*
X140713929Y-116763957D01*
X140709893Y-116716462D01*
X140705915Y-116655741D01*
X140701905Y-116579726D01*
X140697772Y-116486345D01*
X140693427Y-116373528D01*
X140688779Y-116239205D01*
X140683739Y-116081305D01*
X140678216Y-115897759D01*
X140672120Y-115686494D01*
X140665361Y-115445442D01*
X140657849Y-115172532D01*
X140649494Y-114865692D01*
X140647530Y-114793271D01*
X140640250Y-114523421D01*
X140633279Y-114262405D01*
X140626680Y-114012703D01*
X140620515Y-113776794D01*
X140614847Y-113557159D01*
X140609737Y-113356277D01*
X140605249Y-113176627D01*
X140601445Y-113020690D01*
X140598387Y-112890945D01*
X140596138Y-112789873D01*
X140594894Y-112726694D01*
X140869793Y-112726694D01*
X140870454Y-112778547D01*
X140871992Y-112860937D01*
X140874328Y-112970908D01*
X140877385Y-113105501D01*
X140881084Y-113261757D01*
X140885347Y-113436721D01*
X140890096Y-113627432D01*
X140895251Y-113830935D01*
X140900736Y-114044270D01*
X140906472Y-114264480D01*
X140912380Y-114488607D01*
X140918382Y-114713694D01*
X140924400Y-114936782D01*
X140930356Y-115154914D01*
X140936172Y-115365132D01*
X140941769Y-115564478D01*
X140947068Y-115749993D01*
X140951993Y-115918722D01*
X140956463Y-116067704D01*
X140960402Y-116193983D01*
X140963731Y-116294601D01*
X140966372Y-116366600D01*
X140967676Y-116396533D01*
X140972771Y-116481179D01*
X140978684Y-116550043D01*
X140984708Y-116596417D01*
X140990137Y-116613594D01*
X140990526Y-116613505D01*
X141007578Y-116603407D01*
X141053674Y-116575913D01*
X141126571Y-116532368D01*
X141224025Y-116474111D01*
X141343794Y-116402485D01*
X141483634Y-116318832D01*
X141641303Y-116224493D01*
X141814556Y-116120811D01*
X142001152Y-116009127D01*
X142198847Y-115890783D01*
X142397272Y-115771986D01*
X142603350Y-115648591D01*
X142800356Y-115530612D01*
X142986058Y-115419386D01*
X143158229Y-115316248D01*
X143314640Y-115222535D01*
X143453060Y-115139582D01*
X143571262Y-115068725D01*
X143667015Y-115011300D01*
X143738091Y-114968642D01*
X143782261Y-114942089D01*
X143797287Y-114932983D01*
X143798069Y-114914483D01*
X143798362Y-114862571D01*
X143798204Y-114780299D01*
X143797629Y-114670718D01*
X143796676Y-114536881D01*
X143795380Y-114381839D01*
X143793779Y-114208645D01*
X143791909Y-114020350D01*
X143789807Y-113820006D01*
X143787509Y-113610666D01*
X143785052Y-113395381D01*
X143782472Y-113177204D01*
X143779806Y-112959185D01*
X143777092Y-112744378D01*
X143774364Y-112535834D01*
X143771661Y-112336605D01*
X143769019Y-112149743D01*
X143766474Y-111978300D01*
X143764062Y-111825328D01*
X143761822Y-111693879D01*
X143759788Y-111587004D01*
X143757999Y-111507757D01*
X143756490Y-111459188D01*
X143755415Y-111444239D01*
X143738457Y-111450618D01*
X143691070Y-111470426D01*
X143616194Y-111502374D01*
X143516766Y-111545176D01*
X143395725Y-111597543D01*
X143256009Y-111658190D01*
X143100558Y-111725827D01*
X142932310Y-111799168D01*
X142754203Y-111876925D01*
X142569176Y-111957811D01*
X142380167Y-112040539D01*
X142190115Y-112123820D01*
X142001959Y-112206369D01*
X141818637Y-112286896D01*
X141643087Y-112364115D01*
X141478249Y-112436739D01*
X141327061Y-112503479D01*
X141192461Y-112563049D01*
X141077388Y-112614161D01*
X140984781Y-112655528D01*
X140917577Y-112685862D01*
X140878716Y-112703876D01*
X140870087Y-112708337D01*
X140869793Y-112726694D01*
X140594894Y-112726694D01*
X140594761Y-112719952D01*
X140594317Y-112683662D01*
X140594333Y-112681430D01*
X140599349Y-112602796D01*
X140615107Y-112550089D01*
X140646481Y-112513240D01*
X140688372Y-112487229D01*
X140726077Y-112468994D01*
X140792716Y-112438237D01*
X140885459Y-112396196D01*
X141001477Y-112344113D01*
X141137941Y-112283226D01*
X141292022Y-112214775D01*
X141460892Y-112140000D01*
X141641721Y-112060141D01*
X141831679Y-111976437D01*
X142027939Y-111890127D01*
X142227671Y-111802451D01*
X142428046Y-111714650D01*
X142626234Y-111627962D01*
X142819408Y-111543627D01*
X143004737Y-111462885D01*
X143179394Y-111386976D01*
X143340548Y-111317139D01*
X143485371Y-111254613D01*
X143611033Y-111200639D01*
X143714707Y-111156455D01*
X143793562Y-111123302D01*
X143844769Y-111102420D01*
X143865501Y-111095047D01*
X143865561Y-111095046D01*
X143925362Y-111112419D01*
G37*
G36*
X134562090Y-107859080D02*
G01*
X134619559Y-107870126D01*
X134709065Y-107888583D01*
X134828860Y-107914055D01*
X134977196Y-107946141D01*
X135152326Y-107984445D01*
X135352503Y-108028567D01*
X135575978Y-108078109D01*
X135821004Y-108132673D01*
X136085834Y-108191860D01*
X136368719Y-108255272D01*
X136667912Y-108322511D01*
X136981666Y-108393178D01*
X137308232Y-108466875D01*
X137645863Y-108543204D01*
X137992812Y-108621766D01*
X138347330Y-108702162D01*
X138707671Y-108783995D01*
X139072086Y-108866866D01*
X139438827Y-108950376D01*
X139806148Y-109034128D01*
X140172300Y-109117723D01*
X140535537Y-109200762D01*
X140894109Y-109282847D01*
X141246270Y-109363580D01*
X141590272Y-109442562D01*
X141924367Y-109519395D01*
X142246807Y-109593681D01*
X142555846Y-109665021D01*
X142849735Y-109733017D01*
X143126726Y-109797271D01*
X143385072Y-109857383D01*
X143623026Y-109912956D01*
X143838839Y-109963592D01*
X144030765Y-110008891D01*
X144197055Y-110048457D01*
X144335961Y-110081889D01*
X144445737Y-110108790D01*
X144524634Y-110128762D01*
X144570904Y-110141406D01*
X144582412Y-110145375D01*
X144644232Y-110169420D01*
X144706507Y-110182531D01*
X144721384Y-110183345D01*
X144785929Y-110183345D01*
X144785929Y-110308056D01*
X144784835Y-110374878D01*
X144779571Y-110414741D01*
X144767162Y-110437133D01*
X144744637Y-110451542D01*
X144740344Y-110453537D01*
X144703285Y-110484586D01*
X144694451Y-110524842D01*
X144694257Y-110547722D01*
X144693744Y-110605365D01*
X144692928Y-110696066D01*
X144691824Y-110818120D01*
X144690449Y-110969825D01*
X144688817Y-111149475D01*
X144686945Y-111355365D01*
X144684847Y-111585793D01*
X144682539Y-111839054D01*
X144680037Y-112113443D01*
X144677356Y-112407257D01*
X144674512Y-112718790D01*
X144671520Y-113046340D01*
X144668397Y-113388201D01*
X144665156Y-113742669D01*
X144661815Y-114108041D01*
X144658703Y-114448146D01*
X144654659Y-114890446D01*
X144650951Y-115297741D01*
X144647579Y-115671493D01*
X144644544Y-116013163D01*
X144641845Y-116324213D01*
X144639483Y-116606105D01*
X144637457Y-116860301D01*
X144635769Y-117088262D01*
X144634417Y-117291449D01*
X144633403Y-117471324D01*
X144632725Y-117629350D01*
X144632385Y-117766987D01*
X144632383Y-117885698D01*
X144632718Y-117986943D01*
X144633390Y-118072186D01*
X144634401Y-118142886D01*
X144635749Y-118200506D01*
X144637435Y-118246508D01*
X144639459Y-118282353D01*
X144641822Y-118309503D01*
X144644523Y-118329419D01*
X144647562Y-118343564D01*
X144650940Y-118353398D01*
X144654657Y-118360384D01*
X144658713Y-118365982D01*
X144659011Y-118366362D01*
X144686213Y-118411726D01*
X144691166Y-118457137D01*
X144672743Y-118511321D01*
X144631370Y-118580670D01*
X144585609Y-118643701D01*
X144546894Y-118680061D01*
X144506790Y-118696099D01*
X144474650Y-118698635D01*
X144455804Y-118708563D01*
X144408258Y-118737627D01*
X144333665Y-118784746D01*
X144233676Y-118848838D01*
X144109942Y-118928824D01*
X143964117Y-119023621D01*
X143797850Y-119132150D01*
X143612795Y-119253328D01*
X143410604Y-119386076D01*
X143192927Y-119529312D01*
X142961417Y-119681955D01*
X142717726Y-119842925D01*
X142463505Y-120011140D01*
X142200406Y-120185520D01*
X142053398Y-120283079D01*
X141785987Y-120460591D01*
X141526526Y-120632766D01*
X141276670Y-120798508D01*
X141038076Y-120956721D01*
X140812400Y-121106309D01*
X140601300Y-121246174D01*
X140406430Y-121375221D01*
X140229448Y-121492354D01*
X140072010Y-121596475D01*
X139935773Y-121686488D01*
X139822392Y-121761297D01*
X139733525Y-121819806D01*
X139670827Y-121860918D01*
X139635955Y-121883537D01*
X139629281Y-121887673D01*
X139563568Y-121906671D01*
X139503249Y-121889705D01*
X139469882Y-121863068D01*
X139439440Y-121825931D01*
X139425258Y-121795438D01*
X139425125Y-121793383D01*
X139408101Y-121784107D01*
X139357146Y-121761989D01*
X139272435Y-121727098D01*
X139154143Y-121679502D01*
X139002446Y-121619268D01*
X138817520Y-121546465D01*
X138599539Y-121461160D01*
X138348679Y-121363423D01*
X138065115Y-121253320D01*
X137749024Y-121130921D01*
X137400579Y-120996292D01*
X137019957Y-120849502D01*
X136607333Y-120690620D01*
X136162882Y-120519713D01*
X135686779Y-120336849D01*
X135179201Y-120142096D01*
X134640322Y-119935523D01*
X134454437Y-119864306D01*
X134045145Y-119707516D01*
X133644679Y-119554107D01*
X133254377Y-119404591D01*
X132875577Y-119259482D01*
X132509618Y-119119292D01*
X132157839Y-118984534D01*
X131821579Y-118855720D01*
X131502177Y-118733364D01*
X131200970Y-118617978D01*
X130919299Y-118510076D01*
X130658500Y-118410169D01*
X130419915Y-118318772D01*
X130204880Y-118236396D01*
X130014734Y-118163555D01*
X129850817Y-118100761D01*
X129714467Y-118048527D01*
X129607023Y-118007367D01*
X129529823Y-117977792D01*
X129484207Y-117960316D01*
X129471269Y-117955359D01*
X129458384Y-117967437D01*
X129443234Y-118003326D01*
X129441275Y-118009665D01*
X129408884Y-118067341D01*
X129358907Y-118101754D01*
X129301075Y-118111068D01*
X129245118Y-118093444D01*
X129205187Y-118054244D01*
X129201548Y-118044530D01*
X129197889Y-118025529D01*
X129194150Y-117995745D01*
X129190270Y-117953679D01*
X129186189Y-117897835D01*
X129181844Y-117826714D01*
X129177176Y-117738820D01*
X129172124Y-117632654D01*
X129166626Y-117506719D01*
X129160622Y-117359518D01*
X129154052Y-117189553D01*
X129146854Y-116995326D01*
X129138967Y-116775341D01*
X129130332Y-116528098D01*
X129120886Y-116252102D01*
X129110569Y-115945854D01*
X129099320Y-115607857D01*
X129087079Y-115236613D01*
X129073785Y-114830626D01*
X129071841Y-114771098D01*
X128972622Y-111730686D01*
X129260551Y-111730686D01*
X129261435Y-111825281D01*
X129263462Y-111948364D01*
X129266651Y-112100714D01*
X129271021Y-112283109D01*
X129276594Y-112496329D01*
X129283388Y-112741152D01*
X129291424Y-113018357D01*
X129300721Y-113328722D01*
X129311298Y-113673027D01*
X129323176Y-114052050D01*
X129336374Y-114466570D01*
X129339389Y-114560473D01*
X129349872Y-114886307D01*
X129360079Y-115202887D01*
X129369944Y-115508232D01*
X129379403Y-115800361D01*
X129388391Y-116077293D01*
X129396842Y-116337046D01*
X129404692Y-116577641D01*
X129411877Y-116797095D01*
X129418331Y-116993428D01*
X129423989Y-117164659D01*
X129428787Y-117308807D01*
X129432660Y-117423890D01*
X129435544Y-117507929D01*
X129437372Y-117558941D01*
X129438003Y-117574173D01*
X129441995Y-117644039D01*
X134429002Y-119554062D01*
X139416008Y-121464085D01*
X139429016Y-121362301D01*
X139431205Y-121330468D01*
X139434141Y-121264696D01*
X139437750Y-121167506D01*
X139441960Y-121041415D01*
X139446698Y-120888946D01*
X139451892Y-120712617D01*
X139457469Y-120514948D01*
X139463356Y-120298460D01*
X139469482Y-120065671D01*
X139475772Y-119819103D01*
X139482156Y-119561274D01*
X139488407Y-119301140D01*
X139496044Y-118985424D01*
X139503449Y-118692983D01*
X139510580Y-118425122D01*
X139517394Y-118183151D01*
X139523848Y-117968375D01*
X139529899Y-117782104D01*
X139535506Y-117625643D01*
X139540624Y-117500301D01*
X139545213Y-117407384D01*
X139549228Y-117348202D01*
X139552628Y-117324060D01*
X139552894Y-117323660D01*
X139557488Y-117300840D01*
X139561541Y-117243142D01*
X139565018Y-117152153D01*
X139567882Y-117029459D01*
X139570095Y-116876647D01*
X139571621Y-116695304D01*
X139572425Y-116487017D01*
X139572447Y-116474996D01*
X139573091Y-116281354D01*
X139574315Y-116079695D01*
X139576041Y-115877060D01*
X139578188Y-115680491D01*
X139580677Y-115497031D01*
X139583428Y-115333721D01*
X139586361Y-115197603D01*
X139587317Y-115161234D01*
X139591213Y-115004897D01*
X139593202Y-114881906D01*
X139593235Y-114789186D01*
X139591263Y-114723664D01*
X139587236Y-114682265D01*
X139581104Y-114661914D01*
X139579288Y-114659798D01*
X139557984Y-114635419D01*
X139525044Y-114591201D01*
X139496849Y-114550394D01*
X139455838Y-114494504D01*
X139399481Y-114424688D01*
X139337807Y-114353218D01*
X139316529Y-114329766D01*
X139257615Y-114265171D01*
X139183872Y-114183311D01*
X139104452Y-114094395D01*
X139028507Y-114008629D01*
X139023977Y-114003484D01*
X138949653Y-113919412D01*
X138872352Y-113832608D01*
X138800810Y-113752849D01*
X138743767Y-113689911D01*
X138739745Y-113685517D01*
X138685596Y-113624904D01*
X138637751Y-113568642D01*
X138604161Y-113526170D01*
X138597221Y-113516275D01*
X138566343Y-113482502D01*
X138514929Y-113439145D01*
X138453783Y-113395269D01*
X138450209Y-113392927D01*
X138379893Y-113341212D01*
X138330690Y-113292804D01*
X138312806Y-113264790D01*
X138296838Y-113234274D01*
X138274062Y-113217593D01*
X138233537Y-113209641D01*
X138187912Y-113206489D01*
X138129475Y-113202435D01*
X138097829Y-113194249D01*
X138083337Y-113176057D01*
X138076361Y-113141988D01*
X138075807Y-113138180D01*
X138069400Y-113093980D01*
X138618141Y-113093980D01*
X138711861Y-113154119D01*
X138770763Y-113197230D01*
X138822395Y-113244029D01*
X138845937Y-113271487D01*
X138877089Y-113311637D01*
X138924437Y-113368077D01*
X138979249Y-113430478D01*
X138996162Y-113449166D01*
X139051087Y-113509873D01*
X139121356Y-113588251D01*
X139198263Y-113674555D01*
X139273101Y-113759041D01*
X139279253Y-113766013D01*
X139357820Y-113854664D01*
X139443424Y-113950558D01*
X139525685Y-114042106D01*
X139593790Y-114117241D01*
X139649720Y-114179679D01*
X139695192Y-114232647D01*
X139725270Y-114270245D01*
X139735104Y-114286176D01*
X139750526Y-114300622D01*
X139780458Y-114311664D01*
X139824623Y-114335401D01*
X139854481Y-114366801D01*
X139857950Y-114374361D01*
X139860988Y-114386853D01*
X139863571Y-114405825D01*
X139865675Y-114432826D01*
X139867275Y-114469404D01*
X139868345Y-114517110D01*
X139868863Y-114577491D01*
X139868803Y-114652095D01*
X139868142Y-114742473D01*
X139866853Y-114850172D01*
X139864913Y-114976742D01*
X139862298Y-115123730D01*
X139858983Y-115292687D01*
X139854943Y-115485160D01*
X139850154Y-115702698D01*
X139844592Y-115946850D01*
X139838231Y-116219166D01*
X139831048Y-116521192D01*
X139823018Y-116854479D01*
X139814116Y-117220575D01*
X139804318Y-117621029D01*
X139800620Y-117771716D01*
X139792007Y-118122008D01*
X139783571Y-118464209D01*
X139775360Y-118796386D01*
X139767423Y-119116608D01*
X139759808Y-119422942D01*
X139752564Y-119713455D01*
X139745739Y-119986216D01*
X139739382Y-120239292D01*
X139733542Y-120470751D01*
X139728267Y-120678661D01*
X139723606Y-120861088D01*
X139719608Y-121016102D01*
X139716320Y-121141770D01*
X139713793Y-121236158D01*
X139712073Y-121297336D01*
X139711391Y-121318982D01*
X139709500Y-121409957D01*
X139711769Y-121466968D01*
X139718370Y-121492299D01*
X139724456Y-121493258D01*
X139741664Y-121481990D01*
X139787580Y-121451675D01*
X139860525Y-121403426D01*
X139958817Y-121338357D01*
X140080778Y-121257581D01*
X140224726Y-121162211D01*
X140388981Y-121053362D01*
X140571865Y-120932147D01*
X140771695Y-120799679D01*
X140986792Y-120657072D01*
X141215477Y-120505439D01*
X141456068Y-120345894D01*
X141706886Y-120179551D01*
X141966251Y-120007522D01*
X142023474Y-119969566D01*
X142284572Y-119796333D01*
X142537520Y-119628427D01*
X142780635Y-119466968D01*
X143012231Y-119313077D01*
X143230625Y-119167877D01*
X143434133Y-119032490D01*
X143621071Y-118908036D01*
X143789756Y-118795638D01*
X143938503Y-118696417D01*
X144065629Y-118611494D01*
X144169449Y-118541992D01*
X144248280Y-118489032D01*
X144300437Y-118453736D01*
X144324237Y-118437225D01*
X144325481Y-118436243D01*
X144328247Y-118426520D01*
X144330944Y-118401850D01*
X144333590Y-118361042D01*
X144336202Y-118302903D01*
X144338798Y-118226242D01*
X144341395Y-118129867D01*
X144344012Y-118012586D01*
X144346666Y-117873207D01*
X144349374Y-117710538D01*
X144352155Y-117523387D01*
X144355025Y-117310563D01*
X144358004Y-117070874D01*
X144361107Y-116803128D01*
X144364353Y-116506132D01*
X144367760Y-116178696D01*
X144371345Y-115819627D01*
X144375126Y-115427734D01*
X144379120Y-115001824D01*
X144383345Y-114540706D01*
X144383590Y-114513683D01*
X144386961Y-114139194D01*
X144390197Y-113774436D01*
X144393286Y-113421079D01*
X144396215Y-113080796D01*
X144398971Y-112755258D01*
X144401541Y-112446138D01*
X144403912Y-112155106D01*
X144406071Y-111883835D01*
X144408006Y-111633997D01*
X144409703Y-111407263D01*
X144411149Y-111205304D01*
X144412331Y-111029794D01*
X144413237Y-110882403D01*
X144413853Y-110764804D01*
X144414167Y-110678667D01*
X144414166Y-110625666D01*
X144413839Y-110607474D01*
X144396568Y-110613170D01*
X144352834Y-110632355D01*
X144288791Y-110662209D01*
X144210595Y-110699912D01*
X144190389Y-110709824D01*
X144064719Y-110766672D01*
X143909054Y-110828701D01*
X143729116Y-110893729D01*
X143563015Y-110949195D01*
X143410410Y-111000177D01*
X143263415Y-111052591D01*
X143129929Y-111103456D01*
X143017853Y-111149789D01*
X142953410Y-111179371D01*
X142864305Y-111221285D01*
X142776111Y-111259779D01*
X142699868Y-111290195D01*
X142652548Y-111306264D01*
X142609901Y-111319227D01*
X142563908Y-111335144D01*
X142509761Y-111356020D01*
X142442651Y-111383860D01*
X142357771Y-111420668D01*
X142250313Y-111468449D01*
X142115468Y-111529208D01*
X142087293Y-111541960D01*
X141996859Y-111581235D01*
X141908500Y-111616693D01*
X141832729Y-111644282D01*
X141782647Y-111659357D01*
X141714328Y-111681771D01*
X141636086Y-111716467D01*
X141582073Y-111745870D01*
X141504055Y-111788066D01*
X141414746Y-111829027D01*
X141357932Y-111851094D01*
X141283762Y-111878540D01*
X141193374Y-111914412D01*
X141103705Y-111951945D01*
X141084422Y-111960340D01*
X141000667Y-111996913D01*
X140915587Y-112033700D01*
X140844404Y-112064128D01*
X140829145Y-112070566D01*
X140694847Y-112127214D01*
X140589719Y-112172144D01*
X140509170Y-112207421D01*
X140448606Y-112235113D01*
X140403436Y-112257283D01*
X140369068Y-112275998D01*
X140358513Y-112282251D01*
X140289477Y-112321967D01*
X140205162Y-112367350D01*
X140114619Y-112413868D01*
X140026895Y-112456994D01*
X139951040Y-112492195D01*
X139896101Y-112514943D01*
X139888411Y-112517602D01*
X139839444Y-112537072D01*
X139770976Y-112568703D01*
X139695266Y-112606741D01*
X139669559Y-112620376D01*
X139582601Y-112663963D01*
X139487033Y-112706832D01*
X139401202Y-112740831D01*
X139388065Y-112745427D01*
X139308843Y-112774986D01*
X139213775Y-112814289D01*
X139119435Y-112856386D01*
X139088930Y-112870845D01*
X138963284Y-112930917D01*
X138866980Y-112975372D01*
X138797045Y-113005491D01*
X138750503Y-113022557D01*
X138724648Y-113027853D01*
X138693069Y-113038608D01*
X138658973Y-113060916D01*
X138618141Y-113093980D01*
X138069400Y-113093980D01*
X138066690Y-113075284D01*
X134656927Y-112140184D01*
X134296487Y-112041337D01*
X133935877Y-111942445D01*
X133577508Y-111844170D01*
X133223795Y-111747172D01*
X132877148Y-111652114D01*
X132539982Y-111559657D01*
X132214709Y-111470462D01*
X131903741Y-111385192D01*
X131609491Y-111304508D01*
X131334372Y-111229071D01*
X131080797Y-111159543D01*
X130851177Y-111096585D01*
X130647927Y-111040860D01*
X130473458Y-110993029D01*
X130330183Y-110953752D01*
X130255174Y-110933192D01*
X129263183Y-110661300D01*
X129273765Y-111132373D01*
X129276777Y-111292321D01*
X129277799Y-111417655D01*
X129276796Y-111510174D01*
X129273734Y-111571679D01*
X129268577Y-111603970D01*
X129264557Y-111610043D01*
X129262132Y-111623846D01*
X129260790Y-111663801D01*
X129260551Y-111730686D01*
X128972622Y-111730686D01*
X128966074Y-111530041D01*
X128629169Y-111198581D01*
X128532514Y-111103763D01*
X128439306Y-111012835D01*
X128354285Y-110930381D01*
X128282193Y-110860990D01*
X128227771Y-110809246D01*
X128201588Y-110784947D01*
X128139173Y-110725750D01*
X128074645Y-110660489D01*
X128037816Y-110620841D01*
X127989298Y-110570453D01*
X127921643Y-110507023D01*
X127832208Y-110428208D01*
X127812151Y-110411201D01*
X128323727Y-110411201D01*
X128333190Y-110425433D01*
X128363651Y-110457863D01*
X128409097Y-110502186D01*
X128422229Y-110514511D01*
X128471415Y-110560860D01*
X128539600Y-110625848D01*
X128619669Y-110702657D01*
X128704509Y-110784470D01*
X128756434Y-110834764D01*
X128986145Y-111057684D01*
X128995840Y-110825647D01*
X128999443Y-110738228D01*
X129002345Y-110665468D01*
X129004279Y-110614298D01*
X129004974Y-110591650D01*
X129004957Y-110591148D01*
X128987932Y-110585008D01*
X128942162Y-110571614D01*
X128874243Y-110552709D01*
X128790770Y-110530034D01*
X128698340Y-110505333D01*
X128603548Y-110480346D01*
X128512991Y-110456818D01*
X128433263Y-110436489D01*
X128370962Y-110421102D01*
X128332683Y-110412400D01*
X128323727Y-110411201D01*
X127812151Y-110411201D01*
X127718352Y-110331668D01*
X127609476Y-110241392D01*
X127559569Y-110206918D01*
X127514325Y-110195229D01*
X127478323Y-110197094D01*
X127423994Y-110196970D01*
X127382534Y-110175435D01*
X127364360Y-110158695D01*
X127326284Y-110106293D01*
X127319993Y-110053523D01*
X127327313Y-110037406D01*
X128083837Y-110037406D01*
X128101178Y-110043136D01*
X128152017Y-110058002D01*
X128234671Y-110081541D01*
X128347453Y-110113292D01*
X128488681Y-110152794D01*
X128656671Y-110199585D01*
X128849736Y-110253202D01*
X129066195Y-110313185D01*
X129304362Y-110379070D01*
X129562552Y-110450398D01*
X129839082Y-110526705D01*
X130132268Y-110607530D01*
X130440424Y-110692412D01*
X130761867Y-110780888D01*
X131094913Y-110872498D01*
X131437877Y-110966778D01*
X131789075Y-111063268D01*
X132146822Y-111161505D01*
X132509435Y-111261028D01*
X132875228Y-111361375D01*
X133242519Y-111462084D01*
X133609622Y-111562694D01*
X133974853Y-111662743D01*
X134336527Y-111761769D01*
X134692962Y-111859311D01*
X135042471Y-111954905D01*
X135383372Y-112048092D01*
X135713979Y-112138409D01*
X136032609Y-112225394D01*
X136337577Y-112308585D01*
X136627198Y-112387522D01*
X136899790Y-112461741D01*
X137153666Y-112530782D01*
X137387143Y-112594182D01*
X137598537Y-112651480D01*
X137786164Y-112702214D01*
X137948338Y-112745923D01*
X138083377Y-112782144D01*
X138189594Y-112810415D01*
X138265308Y-112830276D01*
X138308831Y-112841264D01*
X138319091Y-112843431D01*
X138370994Y-112833591D01*
X138417278Y-112809044D01*
X138456908Y-112783434D01*
X138487747Y-112772579D01*
X138488044Y-112772576D01*
X138514572Y-112766995D01*
X138562015Y-112749419D01*
X138633254Y-112718607D01*
X138731175Y-112673313D01*
X138851887Y-112615568D01*
X138941922Y-112574164D01*
X139038636Y-112533058D01*
X139125453Y-112499202D01*
X139151023Y-112490150D01*
X139233108Y-112458642D01*
X139328270Y-112416781D01*
X139418160Y-112372717D01*
X139432516Y-112365099D01*
X139507875Y-112326185D01*
X139580243Y-112291680D01*
X139637361Y-112267341D01*
X139651368Y-112262326D01*
X139701030Y-112242617D01*
X139773422Y-112209546D01*
X139859493Y-112167645D01*
X139950197Y-112121443D01*
X140036483Y-112075470D01*
X140109304Y-112034257D01*
X140121471Y-112026975D01*
X140153090Y-112008995D01*
X140193866Y-111988299D01*
X140248391Y-111962821D01*
X140321259Y-111930496D01*
X140417062Y-111889259D01*
X140540391Y-111837043D01*
X140592103Y-111815290D01*
X140656723Y-111787796D01*
X140739469Y-111752117D01*
X140825119Y-111714825D01*
X140847379Y-111705063D01*
X140934397Y-111668127D01*
X141026145Y-111631251D01*
X141105687Y-111601197D01*
X141120890Y-111595817D01*
X141203868Y-111562433D01*
X141292318Y-111519945D01*
X141345031Y-111490594D01*
X141417413Y-111452319D01*
X141495110Y-111419754D01*
X141545605Y-111404081D01*
X141600144Y-111387490D01*
X141677083Y-111359249D01*
X141765909Y-111323410D01*
X141850251Y-111286683D01*
X141990659Y-111223318D01*
X142102795Y-111173299D01*
X142191468Y-111134623D01*
X142261486Y-111105284D01*
X142317658Y-111083277D01*
X142364790Y-111066598D01*
X142407692Y-111053242D01*
X142415506Y-111050987D01*
X142472813Y-111031150D01*
X142551495Y-110999261D01*
X142640512Y-110959976D01*
X142716367Y-110924095D01*
X142807541Y-110883030D01*
X142925964Y-110835228D01*
X143063735Y-110783671D01*
X143212955Y-110731342D01*
X143325973Y-110693919D01*
X143520986Y-110628380D01*
X143696843Y-110563952D01*
X143847755Y-110502845D01*
X143952980Y-110454728D01*
X144036023Y-110414848D01*
X144108903Y-110381687D01*
X144164614Y-110358302D01*
X144196148Y-110347752D01*
X144198854Y-110347451D01*
X144218474Y-110342897D01*
X144217687Y-110338385D01*
X144199348Y-110333562D01*
X144147213Y-110321067D01*
X144063049Y-110301301D01*
X143948622Y-110274669D01*
X143805700Y-110241573D01*
X143636050Y-110202415D01*
X143441438Y-110157599D01*
X143223631Y-110107527D01*
X142984395Y-110052602D01*
X142725499Y-109993228D01*
X142448708Y-109929806D01*
X142155789Y-109862740D01*
X141848509Y-109792432D01*
X141528635Y-109719285D01*
X141197934Y-109643703D01*
X140858173Y-109566088D01*
X140511117Y-109486843D01*
X140158535Y-109406370D01*
X139802194Y-109325072D01*
X139443858Y-109243353D01*
X139085297Y-109161616D01*
X138728276Y-109080262D01*
X138374562Y-108999695D01*
X138025923Y-108920317D01*
X137684124Y-108842532D01*
X137350933Y-108766742D01*
X137028117Y-108693351D01*
X136717442Y-108622760D01*
X136420675Y-108555373D01*
X136139583Y-108491593D01*
X135875933Y-108431822D01*
X135631492Y-108376463D01*
X135408026Y-108325919D01*
X135207303Y-108280594D01*
X135031088Y-108240889D01*
X134881150Y-108207208D01*
X134759254Y-108179953D01*
X134667168Y-108159527D01*
X134606658Y-108146334D01*
X134579491Y-108140775D01*
X134578237Y-108140615D01*
X134557604Y-108145568D01*
X134504265Y-108160141D01*
X134420320Y-108183719D01*
X134307867Y-108215689D01*
X134169008Y-108255439D01*
X134005841Y-108302354D01*
X133820468Y-108355821D01*
X133614986Y-108415228D01*
X133391497Y-108479961D01*
X133152101Y-108549407D01*
X132898896Y-108622952D01*
X132633983Y-108699983D01*
X132359461Y-108779886D01*
X132077431Y-108862050D01*
X131789992Y-108945859D01*
X131499244Y-109030702D01*
X131207287Y-109115964D01*
X130916220Y-109201033D01*
X130628144Y-109285294D01*
X130345158Y-109368136D01*
X130069362Y-109448944D01*
X129802856Y-109527105D01*
X129547740Y-109602007D01*
X129306113Y-109673035D01*
X129080075Y-109739576D01*
X128871726Y-109801018D01*
X128683167Y-109856746D01*
X128516496Y-109906148D01*
X128373813Y-109948611D01*
X128257219Y-109983520D01*
X128168812Y-110010263D01*
X128110694Y-110028227D01*
X128084964Y-110036797D01*
X128083837Y-110037406D01*
X127327313Y-110037406D01*
X127346193Y-109995837D01*
X127398923Y-109935175D01*
X127447046Y-109890434D01*
X127484586Y-109866412D01*
X127525408Y-109856765D01*
X127573915Y-109855132D01*
X127595027Y-109852457D01*
X127634171Y-109844230D01*
X127692411Y-109830148D01*
X127770811Y-109809908D01*
X127870434Y-109783208D01*
X127992345Y-109749745D01*
X128137605Y-109709216D01*
X128307280Y-109661318D01*
X128502432Y-109605749D01*
X128724126Y-109542206D01*
X128973424Y-109470386D01*
X129251391Y-109389986D01*
X129559089Y-109300704D01*
X129897583Y-109202237D01*
X130267936Y-109094281D01*
X130671212Y-108976536D01*
X131071151Y-108859614D01*
X131414562Y-108759218D01*
X131749100Y-108661519D01*
X132073044Y-108567017D01*
X132384672Y-108476209D01*
X132682263Y-108389594D01*
X132964093Y-108307671D01*
X133228442Y-108230937D01*
X133473587Y-108159892D01*
X133697807Y-108095034D01*
X133899378Y-108036862D01*
X134076581Y-107985873D01*
X134227692Y-107942567D01*
X134350990Y-107907442D01*
X134444753Y-107880997D01*
X134507258Y-107863729D01*
X134536785Y-107856138D01*
X134538406Y-107855845D01*
X134562090Y-107859080D01*
G37*
D11*
%TO.C,LED8*%
X92450000Y-102775000D02*
X92450000Y-106775000D01*
X92450000Y-102775000D02*
X98050000Y-102775000D01*
X92450000Y-106775000D02*
X97450000Y-106775000D01*
X98050000Y-106175000D02*
X97450000Y-106775000D01*
X98050000Y-106175000D02*
X98050000Y-102775000D01*
%TO.C,SW3*%
X88265000Y-107315000D02*
X102235000Y-107315000D01*
X88265000Y-121285000D02*
X88265000Y-107315000D01*
X102235000Y-107315000D02*
X102235000Y-121285000D01*
X102235000Y-121285000D02*
X88265000Y-121285000D01*
%TO.C,SW6*%
X88265000Y-126365000D02*
X102235000Y-126365000D01*
X88265000Y-140335000D02*
X88265000Y-126365000D01*
X102235000Y-126365000D02*
X102235000Y-140335000D01*
X102235000Y-140335000D02*
X88265000Y-140335000D01*
%TO.C,SW7*%
X107315000Y-126365000D02*
X121285000Y-126365000D01*
X107315000Y-140335000D02*
X107315000Y-126365000D01*
X121285000Y-126365000D02*
X121285000Y-140335000D01*
X121285000Y-140335000D02*
X107315000Y-140335000D01*
D13*
%TO.C,J1*%
X66840000Y-70315000D02*
X66840000Y-82315000D01*
X66840000Y-82315000D02*
X104840000Y-82315000D01*
X70340000Y-70315000D02*
X70340000Y-82315000D01*
X99840000Y-70315000D02*
X99840000Y-82315000D01*
X104840000Y-70315000D02*
X66840000Y-70315000D01*
X104840000Y-82315000D02*
X104840000Y-70315000D01*
D11*
%TO.C,LED6*%
X111500000Y-122425000D02*
X111500000Y-125825000D01*
X111500000Y-122425000D02*
X112100000Y-121825000D01*
X117100000Y-121825000D02*
X112100000Y-121825000D01*
X117100000Y-125825000D02*
X111500000Y-125825000D01*
X117100000Y-125825000D02*
X117100000Y-121825000D01*
%TO.C,SW11*%
X106750000Y-91150000D02*
X107350000Y-91150000D01*
X107050000Y-91450000D02*
X106750000Y-91150000D01*
X107350000Y-91150000D02*
X107050000Y-91450000D01*
X108450000Y-89350000D02*
X108450000Y-101150000D01*
X112550000Y-89350000D02*
X108450000Y-89350000D01*
X112550000Y-101150000D02*
X108450000Y-101150000D01*
X114050000Y-95250000D02*
X115050000Y-95250000D01*
X114550000Y-94750000D02*
X114550000Y-95750000D01*
X116550000Y-89350000D02*
X120650000Y-89350000D01*
X120650000Y-89350000D02*
X120650000Y-91750000D01*
X120650000Y-93950000D02*
X120650000Y-96550000D01*
X120650000Y-98750000D02*
X120650000Y-101150000D01*
X120650000Y-101150000D02*
X116550000Y-101150000D01*
X117550000Y-95250000D02*
G75*
G02*
X111550000Y-95250000I-3000000J0D01*
G01*
X111550000Y-95250000D02*
G75*
G02*
X117550000Y-95250000I3000000J0D01*
G01*
%TO.C,LED1*%
X111500000Y-140875000D02*
X111500000Y-144875000D01*
X111500000Y-140875000D02*
X117100000Y-140875000D01*
X111500000Y-144875000D02*
X116500000Y-144875000D01*
X117100000Y-144275000D02*
X116500000Y-144875000D01*
X117100000Y-144275000D02*
X117100000Y-140875000D01*
D12*
%TO.C,G\u002A\u002A\u002A*%
G36*
X136235791Y-134706257D02*
G01*
X136280757Y-134736832D01*
X136282326Y-134738372D01*
X136327082Y-134783128D01*
X136327082Y-136088519D01*
X136327082Y-137393909D01*
X136282326Y-137438666D01*
X136237886Y-137469761D01*
X136191979Y-137483395D01*
X136190327Y-137483422D01*
X136144862Y-137470780D01*
X136099896Y-137440206D01*
X136098328Y-137438666D01*
X136053571Y-137393909D01*
X136053571Y-136088519D01*
X136053571Y-134783128D01*
X136098328Y-134738372D01*
X136142767Y-134707276D01*
X136188674Y-134693642D01*
X136190327Y-134693616D01*
X136235791Y-134706257D01*
G37*
G36*
X132207487Y-133619478D02*
G01*
X132242776Y-133636102D01*
X132289449Y-133663188D01*
X132320865Y-133693014D01*
X132339370Y-133732733D01*
X132347307Y-133789499D01*
X132347022Y-133870465D01*
X132343328Y-133942954D01*
X132340522Y-134005620D01*
X132337591Y-134099340D01*
X132334644Y-134218701D01*
X132331791Y-134358291D01*
X132329143Y-134512695D01*
X132326808Y-134676502D01*
X132324898Y-134844298D01*
X132324767Y-134857722D01*
X132323057Y-135022569D01*
X132321184Y-135181254D01*
X132319223Y-135328848D01*
X132317248Y-135460419D01*
X132315335Y-135571037D01*
X132313558Y-135655773D01*
X132311991Y-135709696D01*
X132311783Y-135714721D01*
X132308145Y-135804837D01*
X132304450Y-135908658D01*
X132301554Y-136001907D01*
X132297362Y-136152338D01*
X132172445Y-136152338D01*
X132047528Y-136152338D01*
X132035946Y-135819567D01*
X132033302Y-135731866D01*
X132030340Y-135613133D01*
X132027164Y-135468801D01*
X132023880Y-135304303D01*
X132020591Y-135125074D01*
X132017403Y-134936547D01*
X132014420Y-134744154D01*
X132012246Y-134590685D01*
X132000129Y-133694575D01*
X132047629Y-133647074D01*
X132095179Y-133611215D01*
X132145280Y-133602195D01*
X132207487Y-133619478D01*
G37*
G36*
X143281741Y-133359883D02*
G01*
X143328028Y-133398433D01*
X143359125Y-133447635D01*
X143365416Y-133478204D01*
X143353814Y-133526367D01*
X143333507Y-133561060D01*
X143311157Y-133576261D01*
X143259382Y-133605166D01*
X143181744Y-133646055D01*
X143081804Y-133697209D01*
X142963122Y-133756907D01*
X142829261Y-133823430D01*
X142683781Y-133895058D01*
X142530244Y-133970072D01*
X142372211Y-134046751D01*
X142213243Y-134123376D01*
X142056901Y-134198227D01*
X141906747Y-134269583D01*
X141766341Y-134335727D01*
X141639245Y-134394936D01*
X141529020Y-134445493D01*
X141439228Y-134485676D01*
X141373429Y-134513767D01*
X141335185Y-134528045D01*
X141328122Y-134529509D01*
X141285811Y-134516986D01*
X141242263Y-134486654D01*
X141240323Y-134484753D01*
X141202962Y-134426585D01*
X141200245Y-134365204D01*
X141227477Y-134312637D01*
X141249843Y-134297398D01*
X141301636Y-134268455D01*
X141379295Y-134227530D01*
X141479256Y-134176343D01*
X141597957Y-134116615D01*
X141731835Y-134050067D01*
X141877329Y-133978418D01*
X142030876Y-133903389D01*
X142188913Y-133826701D01*
X142347878Y-133750074D01*
X142504209Y-133675229D01*
X142654343Y-133603887D01*
X142794718Y-133537767D01*
X142921772Y-133478590D01*
X143031941Y-133428077D01*
X143121665Y-133387948D01*
X143187380Y-133359924D01*
X143225523Y-133345725D01*
X143232484Y-133344298D01*
X143281741Y-133359883D01*
G37*
G36*
X143308842Y-135030948D02*
G01*
X143355217Y-135064674D01*
X143394204Y-135123895D01*
X143397445Y-135186028D01*
X143374856Y-135234642D01*
X143353855Y-135250102D01*
X143303752Y-135280162D01*
X143228017Y-135323022D01*
X143130118Y-135376878D01*
X143013526Y-135439929D01*
X142881710Y-135510373D01*
X142738138Y-135586407D01*
X142586280Y-135666230D01*
X142429605Y-135748040D01*
X142271583Y-135830033D01*
X142115682Y-135910410D01*
X141965373Y-135987366D01*
X141824123Y-136059101D01*
X141695404Y-136123812D01*
X141582683Y-136179696D01*
X141489430Y-136224953D01*
X141419114Y-136257780D01*
X141375205Y-136276375D01*
X141362427Y-136279976D01*
X141321731Y-136267513D01*
X141278923Y-136237307D01*
X141276791Y-136235220D01*
X141239289Y-136177028D01*
X141237666Y-136116022D01*
X141272007Y-136056318D01*
X141273062Y-136055164D01*
X141296686Y-136038667D01*
X141349344Y-136007601D01*
X141427496Y-135963801D01*
X141527606Y-135909102D01*
X141646136Y-135845340D01*
X141779547Y-135774349D01*
X141924304Y-135697964D01*
X142076867Y-135618021D01*
X142233699Y-135536354D01*
X142391262Y-135454799D01*
X142546020Y-135375190D01*
X142694433Y-135299363D01*
X142832965Y-135229153D01*
X142958078Y-135166394D01*
X143066234Y-135112922D01*
X143153896Y-135070571D01*
X143217525Y-135041178D01*
X143253584Y-135026576D01*
X143258326Y-135025378D01*
X143308842Y-135030948D01*
G37*
G36*
X143391198Y-134344513D02*
G01*
X143437399Y-134383037D01*
X143468489Y-134432190D01*
X143474820Y-134462841D01*
X143463227Y-134511003D01*
X143442911Y-134545750D01*
X143420667Y-134560848D01*
X143368943Y-134589713D01*
X143291232Y-134630655D01*
X143191026Y-134681986D01*
X143071818Y-134742017D01*
X142937100Y-134809059D01*
X142790365Y-134881424D01*
X142635105Y-134957423D01*
X142474813Y-135035366D01*
X142312981Y-135113566D01*
X142153103Y-135190333D01*
X141998670Y-135263978D01*
X141853175Y-135332813D01*
X141720110Y-135395150D01*
X141602969Y-135449298D01*
X141505244Y-135493570D01*
X141430427Y-135526277D01*
X141382010Y-135545729D01*
X141364765Y-135550615D01*
X141322323Y-135538086D01*
X141278716Y-135507745D01*
X141276791Y-135505859D01*
X141239436Y-135447705D01*
X141236704Y-135386353D01*
X141263945Y-135333800D01*
X141286189Y-135318702D01*
X141337912Y-135289837D01*
X141415623Y-135248895D01*
X141515829Y-135197564D01*
X141635038Y-135137533D01*
X141769756Y-135070491D01*
X141916491Y-134998126D01*
X142071751Y-134922127D01*
X142232043Y-134844184D01*
X142393874Y-134765984D01*
X142553753Y-134689217D01*
X142708186Y-134615572D01*
X142853681Y-134546737D01*
X142986745Y-134484400D01*
X143103886Y-134430252D01*
X143201612Y-134385980D01*
X143276429Y-134353273D01*
X143324845Y-134333821D01*
X143342091Y-134328935D01*
X143391198Y-134344513D01*
G37*
G36*
X143374629Y-135704308D02*
G01*
X143414994Y-135746195D01*
X143434488Y-135800788D01*
X143426288Y-135860266D01*
X143419469Y-135874349D01*
X143392672Y-135902936D01*
X143338349Y-135945497D01*
X143261092Y-135998730D01*
X143165487Y-136059330D01*
X143146560Y-136070841D01*
X142870208Y-136237799D01*
X142623387Y-136386752D01*
X142404478Y-136518654D01*
X142211859Y-136634459D01*
X142043911Y-136735121D01*
X141899013Y-136821593D01*
X141775544Y-136894828D01*
X141671883Y-136955782D01*
X141586410Y-137005407D01*
X141517504Y-137044658D01*
X141463545Y-137074488D01*
X141422911Y-137095850D01*
X141393983Y-137109700D01*
X141375140Y-137116989D01*
X141365992Y-137118741D01*
X141322631Y-137106178D01*
X141278607Y-137075766D01*
X141276791Y-137073985D01*
X141239288Y-137015791D01*
X141237668Y-136954777D01*
X141272015Y-136895052D01*
X141273062Y-136893908D01*
X141295197Y-136877305D01*
X141345349Y-136844075D01*
X141420191Y-136796234D01*
X141516399Y-136735799D01*
X141630647Y-136664787D01*
X141759609Y-136585214D01*
X141899960Y-136499096D01*
X142048374Y-136408450D01*
X142201526Y-136315294D01*
X142356089Y-136221642D01*
X142508739Y-136129513D01*
X142656149Y-136040921D01*
X142794994Y-135957885D01*
X142921950Y-135882420D01*
X143033689Y-135816543D01*
X143126886Y-135762271D01*
X143198217Y-135721620D01*
X143244354Y-135696607D01*
X143258580Y-135689937D01*
X143320216Y-135682948D01*
X143374629Y-135704308D01*
G37*
G36*
X132829394Y-137114639D02*
G01*
X132986476Y-137154192D01*
X133102309Y-137202137D01*
X133158454Y-137227402D01*
X133206131Y-137243418D01*
X133224488Y-137246379D01*
X133259651Y-137253664D01*
X133313798Y-137272456D01*
X133357290Y-137290746D01*
X133412851Y-137312855D01*
X133498718Y-137343066D01*
X133610007Y-137379909D01*
X133741834Y-137421916D01*
X133889316Y-137467619D01*
X134047569Y-137515547D01*
X134211709Y-137564233D01*
X134376853Y-137612207D01*
X134538115Y-137658001D01*
X134690614Y-137700145D01*
X134829464Y-137737172D01*
X134910692Y-137757951D01*
X135022434Y-137786393D01*
X135146523Y-137818713D01*
X135265116Y-137850233D01*
X135333327Y-137868770D01*
X135425502Y-137894150D01*
X135515530Y-137918942D01*
X135591231Y-137939794D01*
X135629630Y-137950375D01*
X135688677Y-137970096D01*
X135718272Y-137990239D01*
X135725359Y-138011507D01*
X135738727Y-138040510D01*
X135775502Y-138052024D01*
X135801741Y-138056870D01*
X135817176Y-138069395D01*
X135825243Y-138097899D01*
X135829374Y-138150683D01*
X135830922Y-138185953D01*
X135836198Y-138314112D01*
X135762975Y-138368293D01*
X135720726Y-138402009D01*
X135694059Y-138428003D01*
X135689322Y-138436150D01*
X135672903Y-138444999D01*
X135632744Y-138449775D01*
X135620513Y-138450033D01*
X135581170Y-138458588D01*
X135515715Y-138482258D01*
X135429815Y-138518267D01*
X135329138Y-138563843D01*
X135219352Y-138616210D01*
X135106125Y-138672596D01*
X134995123Y-138730226D01*
X134892015Y-138786326D01*
X134802467Y-138838122D01*
X134732149Y-138882841D01*
X134722487Y-138889559D01*
X134656124Y-138933429D01*
X134569741Y-138986240D01*
X134475869Y-139040495D01*
X134408250Y-139077540D01*
X134331723Y-139119159D01*
X134267403Y-139155819D01*
X134221973Y-139183595D01*
X134202117Y-139198559D01*
X134202041Y-139198676D01*
X134180026Y-139206734D01*
X134131210Y-139212721D01*
X134065248Y-139215560D01*
X134050262Y-139215654D01*
X133908976Y-139215654D01*
X133846206Y-139132104D01*
X133803244Y-139074246D01*
X133750367Y-139002092D01*
X133698848Y-138931026D01*
X133697704Y-138929438D01*
X133640374Y-138854313D01*
X133571971Y-138771160D01*
X133507155Y-138697791D01*
X133506247Y-138696815D01*
X133438595Y-138621434D01*
X133370480Y-138540745D01*
X133306198Y-138460392D01*
X133250045Y-138386022D01*
X133206314Y-138323280D01*
X133179301Y-138277809D01*
X133172595Y-138258270D01*
X133161397Y-138230828D01*
X133131694Y-138185007D01*
X133089323Y-138129586D01*
X133077735Y-138115615D01*
X133022804Y-138052738D01*
X132956178Y-137980009D01*
X132882357Y-137901948D01*
X132805839Y-137823074D01*
X132731123Y-137747909D01*
X132662708Y-137680972D01*
X132605093Y-137626783D01*
X132562778Y-137589863D01*
X132540262Y-137574733D01*
X132539248Y-137574592D01*
X132526748Y-137562644D01*
X132519325Y-137523995D01*
X132518564Y-137506432D01*
X133003632Y-137506432D01*
X133013832Y-137522181D01*
X133037103Y-137551035D01*
X133075340Y-137595129D01*
X133130438Y-137656593D01*
X133204290Y-137737560D01*
X133298790Y-137840164D01*
X133415834Y-137966537D01*
X133455760Y-138009546D01*
X133553675Y-138116779D01*
X133630362Y-138205448D01*
X133690984Y-138282156D01*
X133740704Y-138353507D01*
X133784686Y-138426105D01*
X133792889Y-138440708D01*
X133850316Y-138539410D01*
X133911548Y-138636850D01*
X133970725Y-138724214D01*
X134021990Y-138792688D01*
X134043799Y-138818146D01*
X134089360Y-138867372D01*
X134228142Y-138792611D01*
X134312764Y-138744360D01*
X134403790Y-138688318D01*
X134482183Y-138636226D01*
X134485445Y-138633924D01*
X134537915Y-138600253D01*
X134616245Y-138554514D01*
X134713480Y-138500548D01*
X134822663Y-138442194D01*
X134936840Y-138383293D01*
X134965794Y-138368709D01*
X135327622Y-138187419D01*
X135175485Y-138145806D01*
X135102233Y-138126097D01*
X135004590Y-138100290D01*
X134893514Y-138071258D01*
X134779960Y-138041873D01*
X134739198Y-138031406D01*
X134587672Y-137991700D01*
X134423560Y-137947119D01*
X134251462Y-137899043D01*
X134075978Y-137848850D01*
X133901706Y-137797919D01*
X133733245Y-137747629D01*
X133575195Y-137699360D01*
X133432155Y-137654489D01*
X133308724Y-137614396D01*
X133209501Y-137580459D01*
X133139086Y-137554059D01*
X133120248Y-137546022D01*
X133064606Y-137522091D01*
X133021763Y-137505982D01*
X133004609Y-137501656D01*
X133003632Y-137506432D01*
X132518564Y-137506432D01*
X132516313Y-137454441D01*
X132516170Y-137428720D01*
X132518303Y-137356480D01*
X132524125Y-137305716D01*
X132532773Y-137283334D01*
X132534404Y-137282847D01*
X132544806Y-137266448D01*
X132551408Y-137224518D01*
X132552638Y-137191677D01*
X132552638Y-137100507D01*
X132673086Y-137100507D01*
X132829394Y-137114639D01*
G37*
G36*
X143872401Y-132231161D02*
G01*
X143921415Y-132282076D01*
X143954641Y-132354607D01*
X143959489Y-132373261D01*
X143963884Y-132399520D01*
X143967883Y-132435530D01*
X143971542Y-132483441D01*
X143974915Y-132545400D01*
X143978060Y-132623556D01*
X143981032Y-132720057D01*
X143983885Y-132837052D01*
X143986678Y-132976689D01*
X143989464Y-133141115D01*
X143992300Y-133332479D01*
X143995241Y-133552931D01*
X143998344Y-133804617D01*
X144001664Y-134089686D01*
X144003192Y-134224799D01*
X144007210Y-134566199D01*
X144011197Y-134871453D01*
X144015160Y-135140880D01*
X144019106Y-135374803D01*
X144023041Y-135573541D01*
X144026973Y-135737416D01*
X144030910Y-135866749D01*
X144034857Y-135961861D01*
X144038822Y-136023072D01*
X144042811Y-136050704D01*
X144043071Y-136051344D01*
X144054430Y-136116483D01*
X144032090Y-136179565D01*
X143989933Y-136224662D01*
X143960036Y-136244970D01*
X143902352Y-136281539D01*
X143819461Y-136332840D01*
X143713942Y-136397341D01*
X143588374Y-136473514D01*
X143445338Y-136559826D01*
X143287413Y-136654747D01*
X143117177Y-136756748D01*
X142937211Y-136864298D01*
X142750093Y-136975866D01*
X142558404Y-137089922D01*
X142364723Y-137204935D01*
X142171629Y-137319376D01*
X141981702Y-137431713D01*
X141797521Y-137540416D01*
X141621666Y-137643956D01*
X141456715Y-137740800D01*
X141305250Y-137829420D01*
X141169848Y-137908284D01*
X141053090Y-137975863D01*
X140957554Y-138030625D01*
X140885821Y-138071040D01*
X140840470Y-138095579D01*
X140824373Y-138102824D01*
X140776120Y-138093551D01*
X140753264Y-138083612D01*
X140725097Y-138056121D01*
X140693871Y-138010256D01*
X140685167Y-137994273D01*
X140679491Y-137981844D01*
X140674323Y-137966543D01*
X140669573Y-137946299D01*
X140665152Y-137919041D01*
X140660968Y-137882699D01*
X140656932Y-137835204D01*
X140652954Y-137774483D01*
X140648944Y-137698468D01*
X140644811Y-137605087D01*
X140640466Y-137492270D01*
X140635818Y-137357947D01*
X140630778Y-137200047D01*
X140625255Y-137016501D01*
X140619159Y-136805236D01*
X140612400Y-136564184D01*
X140604888Y-136291274D01*
X140596533Y-135984434D01*
X140594569Y-135912013D01*
X140587289Y-135642163D01*
X140580318Y-135381147D01*
X140573719Y-135131445D01*
X140567554Y-134895536D01*
X140561886Y-134675901D01*
X140556776Y-134475019D01*
X140552288Y-134295369D01*
X140548484Y-134139432D01*
X140545426Y-134009687D01*
X140543177Y-133908615D01*
X140541933Y-133845436D01*
X140816832Y-133845436D01*
X140817493Y-133897289D01*
X140819031Y-133979679D01*
X140821367Y-134089650D01*
X140824424Y-134224243D01*
X140828123Y-134380499D01*
X140832386Y-134555463D01*
X140837135Y-134746174D01*
X140842290Y-134949677D01*
X140847775Y-135163012D01*
X140853511Y-135383222D01*
X140859419Y-135607349D01*
X140865421Y-135832436D01*
X140871439Y-136055524D01*
X140877395Y-136273656D01*
X140883211Y-136483874D01*
X140888808Y-136683220D01*
X140894107Y-136868735D01*
X140899032Y-137037464D01*
X140903502Y-137186446D01*
X140907441Y-137312725D01*
X140910770Y-137413343D01*
X140913411Y-137485342D01*
X140914715Y-137515275D01*
X140919810Y-137599921D01*
X140925723Y-137668785D01*
X140931747Y-137715159D01*
X140937176Y-137732336D01*
X140937565Y-137732247D01*
X140954617Y-137722149D01*
X141000713Y-137694655D01*
X141073610Y-137651110D01*
X141171064Y-137592853D01*
X141290833Y-137521227D01*
X141430673Y-137437574D01*
X141588342Y-137343235D01*
X141761595Y-137239553D01*
X141948191Y-137127869D01*
X142145886Y-137009525D01*
X142344311Y-136890728D01*
X142550389Y-136767333D01*
X142747395Y-136649354D01*
X142933097Y-136538128D01*
X143105268Y-136434990D01*
X143261679Y-136341277D01*
X143400099Y-136258324D01*
X143518301Y-136187467D01*
X143614054Y-136130042D01*
X143685130Y-136087384D01*
X143729300Y-136060831D01*
X143744326Y-136051725D01*
X143745108Y-136033225D01*
X143745401Y-135981313D01*
X143745243Y-135899041D01*
X143744668Y-135789460D01*
X143743715Y-135655623D01*
X143742419Y-135500581D01*
X143740818Y-135327387D01*
X143738948Y-135139092D01*
X143736846Y-134938748D01*
X143734548Y-134729408D01*
X143732091Y-134514123D01*
X143729511Y-134295946D01*
X143726845Y-134077927D01*
X143724131Y-133863120D01*
X143721403Y-133654576D01*
X143718700Y-133455347D01*
X143716058Y-133268485D01*
X143713513Y-133097042D01*
X143711101Y-132944070D01*
X143708861Y-132812621D01*
X143706827Y-132705746D01*
X143705038Y-132626499D01*
X143703529Y-132577930D01*
X143702454Y-132562981D01*
X143685496Y-132569360D01*
X143638109Y-132589168D01*
X143563233Y-132621116D01*
X143463805Y-132663918D01*
X143342764Y-132716285D01*
X143203048Y-132776932D01*
X143047597Y-132844569D01*
X142879349Y-132917910D01*
X142701242Y-132995667D01*
X142516215Y-133076553D01*
X142327206Y-133159281D01*
X142137154Y-133242562D01*
X141948998Y-133325111D01*
X141765676Y-133405638D01*
X141590126Y-133482857D01*
X141425288Y-133555481D01*
X141274100Y-133622221D01*
X141139500Y-133681791D01*
X141024427Y-133732903D01*
X140931820Y-133774270D01*
X140864616Y-133804604D01*
X140825755Y-133822618D01*
X140817126Y-133827079D01*
X140816832Y-133845436D01*
X140541933Y-133845436D01*
X140541800Y-133838694D01*
X140541356Y-133802404D01*
X140541372Y-133800172D01*
X140546388Y-133721538D01*
X140562146Y-133668831D01*
X140593520Y-133631982D01*
X140635411Y-133605971D01*
X140673116Y-133587736D01*
X140739755Y-133556979D01*
X140832498Y-133514938D01*
X140948516Y-133462855D01*
X141084980Y-133401968D01*
X141239061Y-133333517D01*
X141407931Y-133258742D01*
X141588760Y-133178883D01*
X141778718Y-133095179D01*
X141974978Y-133008869D01*
X142174710Y-132921193D01*
X142375085Y-132833392D01*
X142573273Y-132746704D01*
X142766447Y-132662369D01*
X142951776Y-132581627D01*
X143126433Y-132505718D01*
X143287587Y-132435881D01*
X143432410Y-132373355D01*
X143558072Y-132319381D01*
X143661746Y-132275197D01*
X143740601Y-132242044D01*
X143791808Y-132221162D01*
X143812540Y-132213789D01*
X143812600Y-132213788D01*
X143872401Y-132231161D01*
G37*
G36*
X134509129Y-128977822D02*
G01*
X134566598Y-128988868D01*
X134656104Y-129007325D01*
X134775899Y-129032797D01*
X134924235Y-129064883D01*
X135099365Y-129103187D01*
X135299542Y-129147309D01*
X135523017Y-129196851D01*
X135768043Y-129251415D01*
X136032873Y-129310602D01*
X136315758Y-129374014D01*
X136614951Y-129441253D01*
X136928705Y-129511920D01*
X137255271Y-129585617D01*
X137592902Y-129661946D01*
X137939851Y-129740508D01*
X138294369Y-129820904D01*
X138654710Y-129902737D01*
X139019125Y-129985608D01*
X139385866Y-130069118D01*
X139753187Y-130152870D01*
X140119339Y-130236465D01*
X140482576Y-130319504D01*
X140841148Y-130401589D01*
X141193309Y-130482322D01*
X141537311Y-130561304D01*
X141871406Y-130638137D01*
X142193846Y-130712423D01*
X142502885Y-130783763D01*
X142796774Y-130851759D01*
X143073765Y-130916013D01*
X143332111Y-130976125D01*
X143570065Y-131031698D01*
X143785878Y-131082334D01*
X143977804Y-131127633D01*
X144144094Y-131167199D01*
X144283000Y-131200631D01*
X144392776Y-131227532D01*
X144471673Y-131247504D01*
X144517943Y-131260148D01*
X144529451Y-131264117D01*
X144591271Y-131288162D01*
X144653546Y-131301273D01*
X144668423Y-131302087D01*
X144732968Y-131302087D01*
X144732968Y-131426798D01*
X144731874Y-131493620D01*
X144726610Y-131533483D01*
X144714201Y-131555875D01*
X144691676Y-131570284D01*
X144687383Y-131572279D01*
X144650324Y-131603328D01*
X144641490Y-131643584D01*
X144641296Y-131666464D01*
X144640783Y-131724107D01*
X144639967Y-131814808D01*
X144638863Y-131936862D01*
X144637488Y-132088567D01*
X144635856Y-132268217D01*
X144633984Y-132474107D01*
X144631886Y-132704535D01*
X144629578Y-132957796D01*
X144627076Y-133232185D01*
X144624395Y-133525999D01*
X144621551Y-133837532D01*
X144618559Y-134165082D01*
X144615436Y-134506943D01*
X144612195Y-134861411D01*
X144608854Y-135226783D01*
X144605742Y-135566888D01*
X144601698Y-136009188D01*
X144597990Y-136416483D01*
X144594618Y-136790235D01*
X144591583Y-137131905D01*
X144588884Y-137442955D01*
X144586522Y-137724847D01*
X144584496Y-137979043D01*
X144582808Y-138207004D01*
X144581456Y-138410191D01*
X144580442Y-138590066D01*
X144579764Y-138748092D01*
X144579424Y-138885729D01*
X144579422Y-139004440D01*
X144579757Y-139105685D01*
X144580429Y-139190928D01*
X144581440Y-139261628D01*
X144582788Y-139319248D01*
X144584474Y-139365250D01*
X144586498Y-139401095D01*
X144588861Y-139428245D01*
X144591562Y-139448161D01*
X144594601Y-139462306D01*
X144597979Y-139472140D01*
X144601696Y-139479126D01*
X144605752Y-139484724D01*
X144606050Y-139485104D01*
X144633252Y-139530468D01*
X144638205Y-139575879D01*
X144619782Y-139630063D01*
X144578409Y-139699412D01*
X144532648Y-139762443D01*
X144493933Y-139798803D01*
X144453829Y-139814841D01*
X144421689Y-139817377D01*
X144402843Y-139827305D01*
X144355297Y-139856369D01*
X144280704Y-139903488D01*
X144180715Y-139967580D01*
X144056981Y-140047566D01*
X143911156Y-140142363D01*
X143744889Y-140250892D01*
X143559834Y-140372070D01*
X143357643Y-140504818D01*
X143139966Y-140648054D01*
X142908456Y-140800697D01*
X142664765Y-140961667D01*
X142410544Y-141129882D01*
X142147445Y-141304262D01*
X142000437Y-141401821D01*
X141733026Y-141579333D01*
X141473565Y-141751508D01*
X141223709Y-141917250D01*
X140985115Y-142075463D01*
X140759439Y-142225051D01*
X140548339Y-142364916D01*
X140353469Y-142493963D01*
X140176487Y-142611096D01*
X140019049Y-142715217D01*
X139882812Y-142805230D01*
X139769431Y-142880039D01*
X139680564Y-142938548D01*
X139617866Y-142979660D01*
X139582994Y-143002279D01*
X139576320Y-143006415D01*
X139510607Y-143025413D01*
X139450288Y-143008447D01*
X139416921Y-142981810D01*
X139386479Y-142944673D01*
X139372297Y-142914180D01*
X139372164Y-142912125D01*
X139355140Y-142902849D01*
X139304185Y-142880731D01*
X139219474Y-142845840D01*
X139101182Y-142798244D01*
X138949485Y-142738010D01*
X138764559Y-142665207D01*
X138546578Y-142579902D01*
X138295718Y-142482165D01*
X138012154Y-142372062D01*
X137696063Y-142249663D01*
X137347618Y-142115034D01*
X136966996Y-141968244D01*
X136554372Y-141809362D01*
X136109921Y-141638455D01*
X135633818Y-141455591D01*
X135126240Y-141260838D01*
X134587361Y-141054265D01*
X134401476Y-140983048D01*
X133992184Y-140826258D01*
X133591718Y-140672849D01*
X133201416Y-140523333D01*
X132822616Y-140378224D01*
X132456657Y-140238034D01*
X132104878Y-140103276D01*
X131768618Y-139974462D01*
X131449216Y-139852106D01*
X131148009Y-139736720D01*
X130866338Y-139628818D01*
X130605539Y-139528911D01*
X130366954Y-139437514D01*
X130151919Y-139355138D01*
X129961773Y-139282297D01*
X129797856Y-139219503D01*
X129661506Y-139167269D01*
X129554062Y-139126109D01*
X129476862Y-139096534D01*
X129431246Y-139079058D01*
X129418308Y-139074101D01*
X129405423Y-139086179D01*
X129390273Y-139122068D01*
X129388314Y-139128407D01*
X129355923Y-139186083D01*
X129305946Y-139220496D01*
X129248114Y-139229810D01*
X129192157Y-139212186D01*
X129152226Y-139172986D01*
X129148587Y-139163272D01*
X129144928Y-139144271D01*
X129141189Y-139114487D01*
X129137309Y-139072421D01*
X129133228Y-139016577D01*
X129128883Y-138945456D01*
X129124215Y-138857562D01*
X129119163Y-138751396D01*
X129113665Y-138625461D01*
X129107661Y-138478260D01*
X129101091Y-138308295D01*
X129093893Y-138114068D01*
X129086006Y-137894083D01*
X129077371Y-137646840D01*
X129067925Y-137370844D01*
X129057608Y-137064596D01*
X129046359Y-136726599D01*
X129034118Y-136355355D01*
X129020824Y-135949368D01*
X129018880Y-135889840D01*
X128919661Y-132849428D01*
X129207590Y-132849428D01*
X129208474Y-132944023D01*
X129210501Y-133067106D01*
X129213690Y-133219456D01*
X129218060Y-133401851D01*
X129223633Y-133615071D01*
X129230427Y-133859894D01*
X129238463Y-134137099D01*
X129247760Y-134447464D01*
X129258337Y-134791769D01*
X129270215Y-135170792D01*
X129283413Y-135585312D01*
X129286428Y-135679215D01*
X129296911Y-136005049D01*
X129307118Y-136321629D01*
X129316983Y-136626974D01*
X129326442Y-136919103D01*
X129335430Y-137196035D01*
X129343881Y-137455788D01*
X129351731Y-137696383D01*
X129358916Y-137915837D01*
X129365370Y-138112170D01*
X129371028Y-138283401D01*
X129375826Y-138427549D01*
X129379699Y-138542632D01*
X129382583Y-138626671D01*
X129384411Y-138677683D01*
X129385042Y-138692915D01*
X129389034Y-138762781D01*
X134376041Y-140672804D01*
X139363047Y-142582827D01*
X139376055Y-142481043D01*
X139378244Y-142449210D01*
X139381180Y-142383438D01*
X139384789Y-142286248D01*
X139388999Y-142160157D01*
X139393737Y-142007688D01*
X139398931Y-141831359D01*
X139404508Y-141633690D01*
X139410395Y-141417202D01*
X139416521Y-141184413D01*
X139422811Y-140937845D01*
X139429195Y-140680016D01*
X139435446Y-140419882D01*
X139443083Y-140104166D01*
X139450488Y-139811725D01*
X139457619Y-139543864D01*
X139464433Y-139301893D01*
X139470887Y-139087117D01*
X139476938Y-138900846D01*
X139482545Y-138744385D01*
X139487663Y-138619043D01*
X139492252Y-138526126D01*
X139496267Y-138466944D01*
X139499667Y-138442802D01*
X139499933Y-138442402D01*
X139504527Y-138419582D01*
X139508580Y-138361884D01*
X139512057Y-138270895D01*
X139514921Y-138148201D01*
X139517134Y-137995389D01*
X139518660Y-137814046D01*
X139519464Y-137605759D01*
X139519486Y-137593738D01*
X139520130Y-137400096D01*
X139521354Y-137198437D01*
X139523080Y-136995802D01*
X139525227Y-136799233D01*
X139527716Y-136615773D01*
X139530467Y-136452463D01*
X139533400Y-136316345D01*
X139534356Y-136279976D01*
X139538252Y-136123639D01*
X139540241Y-136000648D01*
X139540274Y-135907928D01*
X139538302Y-135842406D01*
X139534275Y-135801007D01*
X139528143Y-135780656D01*
X139526327Y-135778540D01*
X139505023Y-135754161D01*
X139472083Y-135709943D01*
X139443888Y-135669136D01*
X139402877Y-135613246D01*
X139346520Y-135543430D01*
X139284846Y-135471960D01*
X139263568Y-135448508D01*
X139204654Y-135383913D01*
X139130911Y-135302053D01*
X139051491Y-135213137D01*
X138975546Y-135127371D01*
X138971016Y-135122226D01*
X138896692Y-135038154D01*
X138819391Y-134951350D01*
X138747849Y-134871591D01*
X138690806Y-134808653D01*
X138686784Y-134804259D01*
X138632635Y-134743646D01*
X138584790Y-134687384D01*
X138551200Y-134644912D01*
X138544260Y-134635017D01*
X138513382Y-134601244D01*
X138461968Y-134557887D01*
X138400822Y-134514011D01*
X138397248Y-134511669D01*
X138326932Y-134459954D01*
X138277729Y-134411546D01*
X138259845Y-134383532D01*
X138243877Y-134353016D01*
X138221101Y-134336335D01*
X138180576Y-134328383D01*
X138134951Y-134325231D01*
X138076514Y-134321177D01*
X138044868Y-134312991D01*
X138030376Y-134294799D01*
X138023400Y-134260730D01*
X138022846Y-134256922D01*
X138016439Y-134212722D01*
X138565180Y-134212722D01*
X138658900Y-134272861D01*
X138717802Y-134315972D01*
X138769434Y-134362771D01*
X138792976Y-134390229D01*
X138824128Y-134430379D01*
X138871476Y-134486819D01*
X138926288Y-134549220D01*
X138943201Y-134567908D01*
X138998126Y-134628615D01*
X139068395Y-134706993D01*
X139145302Y-134793297D01*
X139220140Y-134877783D01*
X139226292Y-134884755D01*
X139304859Y-134973406D01*
X139390463Y-135069300D01*
X139472724Y-135160848D01*
X139540829Y-135235983D01*
X139596759Y-135298421D01*
X139642231Y-135351389D01*
X139672309Y-135388987D01*
X139682143Y-135404918D01*
X139697565Y-135419364D01*
X139727497Y-135430406D01*
X139771662Y-135454143D01*
X139801520Y-135485543D01*
X139804989Y-135493103D01*
X139808027Y-135505595D01*
X139810610Y-135524567D01*
X139812714Y-135551568D01*
X139814314Y-135588146D01*
X139815384Y-135635852D01*
X139815902Y-135696233D01*
X139815842Y-135770837D01*
X139815181Y-135861215D01*
X139813892Y-135968914D01*
X139811952Y-136095484D01*
X139809337Y-136242472D01*
X139806022Y-136411429D01*
X139801982Y-136603902D01*
X139797193Y-136821440D01*
X139791631Y-137065592D01*
X139785270Y-137337908D01*
X139778087Y-137639934D01*
X139770057Y-137973221D01*
X139761155Y-138339317D01*
X139751357Y-138739771D01*
X139747659Y-138890458D01*
X139739046Y-139240750D01*
X139730610Y-139582951D01*
X139722399Y-139915128D01*
X139714462Y-140235350D01*
X139706847Y-140541684D01*
X139699603Y-140832197D01*
X139692778Y-141104958D01*
X139686421Y-141358034D01*
X139680581Y-141589493D01*
X139675306Y-141797403D01*
X139670645Y-141979830D01*
X139666647Y-142134844D01*
X139663359Y-142260512D01*
X139660832Y-142354900D01*
X139659112Y-142416078D01*
X139658430Y-142437724D01*
X139656539Y-142528699D01*
X139658808Y-142585710D01*
X139665409Y-142611041D01*
X139671495Y-142612000D01*
X139688703Y-142600732D01*
X139734619Y-142570417D01*
X139807564Y-142522168D01*
X139905856Y-142457099D01*
X140027817Y-142376323D01*
X140171765Y-142280953D01*
X140336020Y-142172104D01*
X140518904Y-142050889D01*
X140718734Y-141918421D01*
X140933831Y-141775814D01*
X141162516Y-141624181D01*
X141403107Y-141464636D01*
X141653925Y-141298293D01*
X141913290Y-141126264D01*
X141970513Y-141088308D01*
X142231611Y-140915075D01*
X142484559Y-140747169D01*
X142727674Y-140585710D01*
X142959270Y-140431819D01*
X143177664Y-140286619D01*
X143381172Y-140151232D01*
X143568110Y-140026778D01*
X143736795Y-139914380D01*
X143885542Y-139815159D01*
X144012668Y-139730236D01*
X144116488Y-139660734D01*
X144195319Y-139607774D01*
X144247476Y-139572478D01*
X144271276Y-139555967D01*
X144272520Y-139554985D01*
X144275286Y-139545262D01*
X144277983Y-139520592D01*
X144280629Y-139479784D01*
X144283241Y-139421645D01*
X144285837Y-139344984D01*
X144288434Y-139248609D01*
X144291051Y-139131328D01*
X144293705Y-138991949D01*
X144296413Y-138829280D01*
X144299194Y-138642129D01*
X144302064Y-138429305D01*
X144305043Y-138189616D01*
X144308146Y-137921870D01*
X144311392Y-137624874D01*
X144314799Y-137297438D01*
X144318384Y-136938369D01*
X144322165Y-136546476D01*
X144326159Y-136120566D01*
X144330384Y-135659448D01*
X144330629Y-135632425D01*
X144334000Y-135257936D01*
X144337236Y-134893178D01*
X144340325Y-134539821D01*
X144343254Y-134199538D01*
X144346010Y-133874000D01*
X144348580Y-133564880D01*
X144350951Y-133273848D01*
X144353110Y-133002577D01*
X144355045Y-132752739D01*
X144356742Y-132526005D01*
X144358188Y-132324046D01*
X144359370Y-132148536D01*
X144360276Y-132001145D01*
X144360892Y-131883546D01*
X144361206Y-131797409D01*
X144361205Y-131744408D01*
X144360878Y-131726216D01*
X144343607Y-131731912D01*
X144299873Y-131751097D01*
X144235830Y-131780951D01*
X144157634Y-131818654D01*
X144137428Y-131828566D01*
X144011758Y-131885414D01*
X143856093Y-131947443D01*
X143676155Y-132012471D01*
X143510054Y-132067937D01*
X143357449Y-132118919D01*
X143210454Y-132171333D01*
X143076968Y-132222198D01*
X142964892Y-132268531D01*
X142900449Y-132298113D01*
X142811344Y-132340027D01*
X142723150Y-132378521D01*
X142646907Y-132408937D01*
X142599587Y-132425006D01*
X142556940Y-132437969D01*
X142510947Y-132453886D01*
X142456800Y-132474762D01*
X142389690Y-132502602D01*
X142304810Y-132539410D01*
X142197352Y-132587191D01*
X142062507Y-132647950D01*
X142034332Y-132660702D01*
X141943898Y-132699977D01*
X141855539Y-132735435D01*
X141779768Y-132763024D01*
X141729686Y-132778099D01*
X141661367Y-132800513D01*
X141583125Y-132835209D01*
X141529112Y-132864612D01*
X141451094Y-132906808D01*
X141361785Y-132947769D01*
X141304971Y-132969836D01*
X141230801Y-132997282D01*
X141140413Y-133033154D01*
X141050744Y-133070687D01*
X141031461Y-133079082D01*
X140947706Y-133115655D01*
X140862626Y-133152442D01*
X140791443Y-133182870D01*
X140776184Y-133189308D01*
X140641886Y-133245956D01*
X140536758Y-133290886D01*
X140456209Y-133326163D01*
X140395645Y-133353855D01*
X140350475Y-133376025D01*
X140316107Y-133394740D01*
X140305552Y-133400993D01*
X140236516Y-133440709D01*
X140152201Y-133486092D01*
X140061658Y-133532610D01*
X139973934Y-133575736D01*
X139898079Y-133610937D01*
X139843140Y-133633685D01*
X139835450Y-133636344D01*
X139786483Y-133655814D01*
X139718015Y-133687445D01*
X139642305Y-133725483D01*
X139616598Y-133739118D01*
X139529640Y-133782705D01*
X139434072Y-133825574D01*
X139348241Y-133859573D01*
X139335104Y-133864169D01*
X139255882Y-133893728D01*
X139160814Y-133933031D01*
X139066474Y-133975128D01*
X139035969Y-133989587D01*
X138910323Y-134049659D01*
X138814019Y-134094114D01*
X138744084Y-134124233D01*
X138697542Y-134141299D01*
X138671687Y-134146595D01*
X138640108Y-134157350D01*
X138606012Y-134179658D01*
X138565180Y-134212722D01*
X138016439Y-134212722D01*
X138013729Y-134194026D01*
X134603966Y-133258926D01*
X134243526Y-133160079D01*
X133882916Y-133061187D01*
X133524547Y-132962912D01*
X133170834Y-132865914D01*
X132824187Y-132770856D01*
X132487021Y-132678399D01*
X132161748Y-132589204D01*
X131850780Y-132503934D01*
X131556530Y-132423250D01*
X131281411Y-132347813D01*
X131027836Y-132278285D01*
X130798216Y-132215327D01*
X130594966Y-132159602D01*
X130420497Y-132111771D01*
X130277222Y-132072494D01*
X130202213Y-132051934D01*
X129210222Y-131780042D01*
X129220804Y-132251115D01*
X129223816Y-132411063D01*
X129224838Y-132536397D01*
X129223835Y-132628916D01*
X129220773Y-132690421D01*
X129215616Y-132722712D01*
X129211596Y-132728785D01*
X129209171Y-132742588D01*
X129207829Y-132782543D01*
X129207590Y-132849428D01*
X128919661Y-132849428D01*
X128913113Y-132648783D01*
X128576208Y-132317323D01*
X128479553Y-132222505D01*
X128386345Y-132131577D01*
X128301324Y-132049123D01*
X128229232Y-131979732D01*
X128174810Y-131927988D01*
X128148627Y-131903689D01*
X128086212Y-131844492D01*
X128021684Y-131779231D01*
X127984855Y-131739583D01*
X127936337Y-131689195D01*
X127868682Y-131625765D01*
X127779247Y-131546950D01*
X127759190Y-131529943D01*
X128270766Y-131529943D01*
X128280229Y-131544175D01*
X128310690Y-131576605D01*
X128356136Y-131620928D01*
X128369268Y-131633253D01*
X128418454Y-131679602D01*
X128486639Y-131744590D01*
X128566708Y-131821399D01*
X128651548Y-131903212D01*
X128703473Y-131953506D01*
X128933184Y-132176426D01*
X128942879Y-131944389D01*
X128946482Y-131856970D01*
X128949384Y-131784210D01*
X128951318Y-131733040D01*
X128952013Y-131710392D01*
X128951996Y-131709890D01*
X128934971Y-131703750D01*
X128889201Y-131690356D01*
X128821282Y-131671451D01*
X128737809Y-131648776D01*
X128645379Y-131624075D01*
X128550587Y-131599088D01*
X128460030Y-131575560D01*
X128380302Y-131555231D01*
X128318001Y-131539844D01*
X128279722Y-131531142D01*
X128270766Y-131529943D01*
X127759190Y-131529943D01*
X127665391Y-131450410D01*
X127556515Y-131360134D01*
X127506608Y-131325660D01*
X127461364Y-131313971D01*
X127425362Y-131315836D01*
X127371033Y-131315712D01*
X127329573Y-131294177D01*
X127311399Y-131277437D01*
X127273323Y-131225035D01*
X127267032Y-131172265D01*
X127274352Y-131156148D01*
X128030876Y-131156148D01*
X128048217Y-131161878D01*
X128099056Y-131176744D01*
X128181710Y-131200283D01*
X128294492Y-131232034D01*
X128435720Y-131271536D01*
X128603710Y-131318327D01*
X128796775Y-131371944D01*
X129013234Y-131431927D01*
X129251401Y-131497812D01*
X129509591Y-131569140D01*
X129786121Y-131645447D01*
X130079307Y-131726272D01*
X130387463Y-131811154D01*
X130708906Y-131899630D01*
X131041952Y-131991240D01*
X131384916Y-132085520D01*
X131736114Y-132182010D01*
X132093861Y-132280247D01*
X132456474Y-132379770D01*
X132822267Y-132480117D01*
X133189558Y-132580826D01*
X133556661Y-132681436D01*
X133921892Y-132781485D01*
X134283566Y-132880511D01*
X134640001Y-132978053D01*
X134989510Y-133073647D01*
X135330411Y-133166834D01*
X135661018Y-133257151D01*
X135979648Y-133344136D01*
X136284616Y-133427327D01*
X136574237Y-133506264D01*
X136846829Y-133580483D01*
X137100705Y-133649524D01*
X137334182Y-133712924D01*
X137545576Y-133770222D01*
X137733203Y-133820956D01*
X137895377Y-133864665D01*
X138030416Y-133900886D01*
X138136633Y-133929157D01*
X138212347Y-133949018D01*
X138255870Y-133960006D01*
X138266130Y-133962173D01*
X138318033Y-133952333D01*
X138364317Y-133927786D01*
X138403947Y-133902176D01*
X138434786Y-133891321D01*
X138435083Y-133891318D01*
X138461611Y-133885737D01*
X138509054Y-133868161D01*
X138580293Y-133837349D01*
X138678214Y-133792055D01*
X138798926Y-133734310D01*
X138888961Y-133692906D01*
X138985675Y-133651800D01*
X139072492Y-133617944D01*
X139098062Y-133608892D01*
X139180147Y-133577384D01*
X139275309Y-133535523D01*
X139365199Y-133491459D01*
X139379555Y-133483841D01*
X139454914Y-133444927D01*
X139527282Y-133410422D01*
X139584400Y-133386083D01*
X139598407Y-133381068D01*
X139648069Y-133361359D01*
X139720461Y-133328288D01*
X139806532Y-133286387D01*
X139897236Y-133240185D01*
X139983522Y-133194212D01*
X140056343Y-133152999D01*
X140068510Y-133145717D01*
X140100129Y-133127737D01*
X140140905Y-133107041D01*
X140195430Y-133081563D01*
X140268298Y-133049238D01*
X140364101Y-133008001D01*
X140487430Y-132955785D01*
X140539142Y-132934032D01*
X140603762Y-132906538D01*
X140686508Y-132870859D01*
X140772158Y-132833567D01*
X140794418Y-132823805D01*
X140881436Y-132786869D01*
X140973184Y-132749993D01*
X141052726Y-132719939D01*
X141067929Y-132714559D01*
X141150907Y-132681175D01*
X141239357Y-132638687D01*
X141292070Y-132609336D01*
X141364452Y-132571061D01*
X141442149Y-132538496D01*
X141492644Y-132522823D01*
X141547183Y-132506232D01*
X141624122Y-132477991D01*
X141712948Y-132442152D01*
X141797290Y-132405425D01*
X141937698Y-132342060D01*
X142049834Y-132292041D01*
X142138507Y-132253365D01*
X142208525Y-132224026D01*
X142264697Y-132202019D01*
X142311829Y-132185340D01*
X142354731Y-132171984D01*
X142362545Y-132169729D01*
X142419852Y-132149892D01*
X142498534Y-132118003D01*
X142587551Y-132078718D01*
X142663406Y-132042837D01*
X142754580Y-132001772D01*
X142873003Y-131953970D01*
X143010774Y-131902413D01*
X143159994Y-131850084D01*
X143273012Y-131812661D01*
X143468025Y-131747122D01*
X143643882Y-131682694D01*
X143794794Y-131621587D01*
X143900019Y-131573470D01*
X143983062Y-131533590D01*
X144055942Y-131500429D01*
X144111653Y-131477044D01*
X144143187Y-131466494D01*
X144145893Y-131466193D01*
X144165513Y-131461639D01*
X144164726Y-131457127D01*
X144146387Y-131452304D01*
X144094252Y-131439809D01*
X144010088Y-131420043D01*
X143895661Y-131393411D01*
X143752739Y-131360315D01*
X143583089Y-131321157D01*
X143388477Y-131276341D01*
X143170670Y-131226269D01*
X142931434Y-131171344D01*
X142672538Y-131111970D01*
X142395747Y-131048548D01*
X142102828Y-130981482D01*
X141795548Y-130911174D01*
X141475674Y-130838027D01*
X141144973Y-130762445D01*
X140805212Y-130684830D01*
X140458156Y-130605585D01*
X140105574Y-130525112D01*
X139749233Y-130443814D01*
X139390897Y-130362095D01*
X139032336Y-130280358D01*
X138675315Y-130199004D01*
X138321601Y-130118437D01*
X137972962Y-130039059D01*
X137631163Y-129961274D01*
X137297972Y-129885484D01*
X136975156Y-129812093D01*
X136664481Y-129741502D01*
X136367714Y-129674115D01*
X136086622Y-129610335D01*
X135822972Y-129550564D01*
X135578531Y-129495205D01*
X135355065Y-129444661D01*
X135154342Y-129399336D01*
X134978127Y-129359631D01*
X134828189Y-129325950D01*
X134706293Y-129298695D01*
X134614207Y-129278269D01*
X134553697Y-129265076D01*
X134526530Y-129259517D01*
X134525276Y-129259357D01*
X134504643Y-129264310D01*
X134451304Y-129278883D01*
X134367359Y-129302461D01*
X134254906Y-129334431D01*
X134116047Y-129374181D01*
X133952880Y-129421096D01*
X133767507Y-129474563D01*
X133562025Y-129533970D01*
X133338536Y-129598703D01*
X133099140Y-129668149D01*
X132845935Y-129741694D01*
X132581022Y-129818725D01*
X132306500Y-129898628D01*
X132024470Y-129980792D01*
X131737031Y-130064601D01*
X131446283Y-130149444D01*
X131154326Y-130234706D01*
X130863259Y-130319775D01*
X130575183Y-130404036D01*
X130292197Y-130486878D01*
X130016401Y-130567686D01*
X129749895Y-130645847D01*
X129494779Y-130720749D01*
X129253152Y-130791777D01*
X129027114Y-130858318D01*
X128818765Y-130919760D01*
X128630206Y-130975488D01*
X128463535Y-131024890D01*
X128320852Y-131067353D01*
X128204258Y-131102262D01*
X128115851Y-131129005D01*
X128057733Y-131146969D01*
X128032003Y-131155539D01*
X128030876Y-131156148D01*
X127274352Y-131156148D01*
X127293232Y-131114579D01*
X127345962Y-131053917D01*
X127394085Y-131009176D01*
X127431625Y-130985154D01*
X127472447Y-130975507D01*
X127520954Y-130973874D01*
X127542066Y-130971199D01*
X127581210Y-130962972D01*
X127639450Y-130948890D01*
X127717850Y-130928650D01*
X127817473Y-130901950D01*
X127939384Y-130868487D01*
X128084644Y-130827958D01*
X128254319Y-130780060D01*
X128449471Y-130724491D01*
X128671165Y-130660948D01*
X128920463Y-130589128D01*
X129198430Y-130508728D01*
X129506128Y-130419446D01*
X129844622Y-130320979D01*
X130214975Y-130213023D01*
X130618251Y-130095278D01*
X131018190Y-129978356D01*
X131361601Y-129877960D01*
X131696139Y-129780261D01*
X132020083Y-129685759D01*
X132331711Y-129594951D01*
X132629302Y-129508336D01*
X132911132Y-129426413D01*
X133175481Y-129349679D01*
X133420626Y-129278634D01*
X133644846Y-129213776D01*
X133846417Y-129155604D01*
X134023620Y-129104615D01*
X134174731Y-129061309D01*
X134298029Y-129026184D01*
X134391792Y-128999739D01*
X134454297Y-128982471D01*
X134483824Y-128974880D01*
X134485445Y-128974587D01*
X134509129Y-128977822D01*
G37*
D11*
%TO.C,SW1*%
X88265000Y-88265000D02*
X102235000Y-88265000D01*
X88265000Y-102235000D02*
X88265000Y-88265000D01*
X102235000Y-88265000D02*
X102235000Y-102235000D01*
X102235000Y-102235000D02*
X88265000Y-102235000D01*
%TO.C,LED4*%
X73400000Y-122425000D02*
X73400000Y-125825000D01*
X73400000Y-122425000D02*
X74000000Y-121825000D01*
X79000000Y-121825000D02*
X74000000Y-121825000D01*
X79000000Y-125825000D02*
X73400000Y-125825000D01*
X79000000Y-125825000D02*
X79000000Y-121825000D01*
%TO.C,LED5*%
X92450000Y-122425000D02*
X92450000Y-125825000D01*
X92450000Y-122425000D02*
X93050000Y-121825000D01*
X98050000Y-121825000D02*
X93050000Y-121825000D01*
X98050000Y-125825000D02*
X92450000Y-125825000D01*
X98050000Y-125825000D02*
X98050000Y-121825000D01*
%TD*%
M02*
